<?xml version="1.0" encoding="utf-8"?>
<!-- Generator: Adobe Illustrator 17.0.0, SVG Export Plug-In . SVG Version: 6.00 Build 0)  -->
<!DOCTYPE svg PUBLIC "-//W3C//DTD SVG 1.1//EN" "http://www.w3.org/Graphics/SVG/1.1/DTD/svg11.dtd">
<svg version="1.1" id="Layer_1" xmlns="http://www.w3.org/2000/svg" xmlns:xlink="http://www.w3.org/1999/xlink" x="0px" y="0px"
	 width="876.531px" height="253.103px" viewBox="0 0 876.531 253.103" enable-background="new 0 0 876.531 253.103"
	 xml:space="preserve">
<g>
	<path fill="#FFFFFF" d="M6.489,23.911c12.417-2.739,26.088-2.425,41.009,0.939c6.563,3.956,12.149,8.079,16.762,12.365
		c8.08-5.35,16.259-8.94,24.538-10.766l2.483-0.546c8.093-1.786,15.987,1.636,23.676,10.259c2.886,3.031,4.593,5.741,5.121,8.132
		l0.69-0.152c5.373-12.374,19.277-24.121,41.711-35.243c5.602-2.584,11.44-4.547,17.511-5.886l7.727-1.704
		c4.251-0.841,6.459-0.894,6.621-0.158c0.367-0.08,0.511-0.305,0.43-0.675c10.025-2.209,17.507,3.28,22.441,16.465l2.678,12.143
		c0.196,4.395-0.945,8.407-3.422,12.04l-1.242,0.274l-0.274-1.242c1.137-2.276,1.998-4.492,2.585-6.647l-1.932,0.426
		c-0.209,2.555-2.815,5.828-7.816,9.825c-3.667,5.248-6.005,7.981-7.017,8.204c-2.56,3.266-4.163,4.968-4.805,5.111l0.274,1.242
		l0.551-0.122c3.398-3.835,5.236-5.785,5.511-5.845l0.825,1.12c-2.847,3.716-4.638,5.653-5.373,5.814l-3.296,0.149
		c-1.241,2.685-3.993,5.51-8.258,8.476l0.274,1.242l0.689-0.152l3.868-3.456c0.081,0.368,0.35,0.502,0.812,0.399
		c0.313,1.862-1.97,4.631-6.849,8.311c0.284,1.288-0.45,2.124-2.196,2.509l0.122,0.551l0.69-0.151
		c2.947-2.387,4.878-3.68,5.799-3.884l1.38-0.303l0.122,0.551c-3.944,6.176-10.168,13.383-18.671,21.624l-7.169,7.513l0.152,0.69
		c10.576-2.333,22.841,2.536,36.787,14.604c7.858,11.577,12.782,21.876,14.77,30.889l0.152,0.69
		c3.834,17.385-7.173,38.332-33.02,62.842c-0.737,0.163-5.826,4.42-15.269,12.771c-16.621,10.805-32.014,17.767-46.179,20.891
		l-5.796,1.278c-1.104,0.243-3.126,0.255-6.069,0.036c-0.368,0.082-0.51,0.307-0.43,0.673c-11.362,0.964-19.28,0.492-23.752-1.416
		c-0.828,0.182-3.549-1.002-8.163-3.554c-6.532,1.44-15.33-10.026-26.396-34.402l-0.821-3.727l-1.668-1.658l1.09-0.963
		c0.102,0.461,0.38,0.639,0.842,0.538c-0.649-2.944,1.541-8.104,6.569-15.484c1.011-0.223,1.926-0.229,2.744-0.026
		c1.514-1.009,2.2-1.836,2.058-2.48l-1.932,0.426l-0.274-1.242c2.302-2.244,4.282-3.549,5.938-3.913l0.122,0.551l1.932-0.426
		l-0.122-0.551l-1.38,0.303l-0.304-1.379l0.689-0.152l2.237,0.954l0.689-0.152l-0.178-3.434l0.69-0.151l0.304,1.379l1.242-0.274
		c0.828-0.182,1.141-0.733,0.938-1.653l-2.483,0.548c-0.284-1.288,1.275-2.307,4.679-3.059c0.294,0.901,0.808,1.269,1.546,1.106
		c3.856-2.199,6.382-3.867,7.579-4.999c0.459-0.101,0.73,0.034,0.812,0.401c1.197-1.132,2.393-1.831,3.589-2.095l0.552-0.122
		c0.642-0.142,1.429,0.361,2.357,1.505l0.122,0.551c-2.483,0.548-7.757,3.978-15.817,10.29l-3.437,2.783l0.964,1.089l0.152,0.69
		l-1.242,0.274c-0.283-1.286-0.657-1.88-1.116-1.779c-3.306,2.949-4.916,4.607-4.836,4.973l0.152,0.688
		c1.104-0.243,2.254-0.93,3.451-2.062l0.122,0.551c-3.933,5.787-5.845,9.152-5.733,10.091c0.459-0.103,1.145-0.058,2.053,0.125
		c0.341-2.391,3.871-6.496,10.594-12.319l1.932-0.426c0.001-0.868,0.323-1.374,0.968-1.516l1.38-0.305
		c0.849-0.089,1.354,0.233,1.516,0.968c-1.862,2.053-3.561,3.535-5.095,4.453l-0.152-0.69c-3.359,4.021-6.244,7.116-8.659,9.288
		l-0.815,2.206l1.242-0.274l0.274,1.242l-0.552,0.122c-0.909-0.183-1.594-0.226-2.053-0.125l0.274,1.242l3.326-0.01
		c-0.102-0.459,1.868-2.677,5.91-6.657l3.174-0.7c-0.274-1.675,0.27-3.144,1.632-4.41l0.689-0.152
		c1.665,0.985,3.093,1.344,4.289,1.079c-6.293,6.018-9.368,9.351-9.226,9.993l0.689-0.152c6.364-5.26,9.485-8.168,9.363-8.721
		l-0.152-0.688l-0.825-1.12c1.932-0.426,5.264-7.623,9.996-21.593c2.348-5.532,4.207-11.103,5.575-16.712
		c0.991-0.313,1.862-2.483,2.615-6.508c-0.547-2.483-3.013-7.534-7.393-15.153l2.047-5.806l8.806-5.993l4.406-4.299
		c2.907-10.865,4.383-22.331,4.423-34.398c-0.551-0.747-0.876-1.35-0.978-1.81c1.564-0.346,2.013-3.338,1.348-8.979
		c-0.644-0.726-1.014-1.317-1.116-1.779c1.287-0.284,1.323-3.186,0.106-8.704l-1.126-5.105c-1.379-6.255-5.273-11.665-11.682-16.234
		c-3.144-1.137-6.552-1.495-10.22-1.074c-8.27,3.177-15.709,6.842-22.317,10.999l0.122,0.551c3.461,7.823,5.877,13.752,7.251,17.789
		l-0.386,1.533c1.304,1.545,2.04,2.685,2.202,3.42c-0.279,0.93-0.365,1.625-0.264,2.084l0.994,1.228
		c1.261,15.347,0.973,23.225-0.866,23.629c1.015,4.602-0.614,12.531-4.882,23.794c0.366,1.654-0.368,3.36-2.2,5.114l-0.009-3.324
		l-0.152-0.69c-0.462,0.101-1.183,1.851-2.169,5.253l0.274,1.242c0.459-0.101,1.154-0.012,2.083,0.264
		c-4.253,13.96-10.506,27.156-18.761,39.586c-6.853,10.481-15.475,16.869-25.869,19.161c-11.893-5.383-18.55-11.293-19.971-17.733
		l0.552-0.122c-1.315-2.026-2.104-3.636-2.368-4.831c-1.197-5.427-1.059-14.862,0.414-28.306c1.138-3.144,1.588-6.136,1.348-8.978
		c1.483-1.579,2.442-4.446,2.88-8.592c4.826-14.857,11.844-30.488,21.056-46.894c6.974-10.796,13.347-18.425,19.117-22.879
		l5.911-6.657l-0.152-0.69c-7.471-5.008-14.062-7.556-19.772-7.649l-7.199-2.464l-7.727,1.704
		c-0.467-2.115-6.822-2.497-19.063-1.149L2.91,29.33c0.276-0.06,1.099-0.481,2.469-1.267L5.257,27.51l-5.105,1.127L0,27.946
		C0.551,27.825,2.715,26.478,6.489,23.911z M7.737,29.568l1.394,0.416c0.827-0.183,1.15-0.688,0.968-1.516l-1.394-0.416
		C7.897,28.328,7.574,28.833,7.737,29.568z M51.515,61.439l-0.122-0.551c-0.747,0.551-1.305,0.867-1.672,0.947l0.152,0.69
		l0.826,1.12c-7.73,9.133-13.307,18.176-16.733,27.13c-9.586,19.959-15.451,36.88-17.599,50.759
		c-1.741,8.294-1.85,15.89-0.328,22.788l0.578,2.622c1.319,5.981,4.737,8.359,10.256,7.142
		c11.287-5.672,21.495-18.002,30.619-36.991c0.367-0.08,1.004-2.439,1.912-7.077l1.394,0.416c-0.223-1.012,0.408-3.177,1.895-6.496
		c4.863-12.067,8.073-26.811,9.634-44.229l-0.623-12.016c-2.435-11.038-5.033-16.686-7.789-16.947
		C56.477,57.693,52.343,61.255,51.515,61.439z M66.214,136.618c-0.561,5.331-6.955,17.015-19.183,35.049l1.38-0.305
		c9.307-12.47,14.188-20.731,14.646-24.789c2.829-6.41,4.521-9.678,5.073-9.8l-0.122-0.551L66.214,136.618z M61.208,199.213
		l-0.39,4.138c0.642-0.142,1.288-1.153,1.936-3.031l-0.304-1.38L61.208,199.213z M65.386,203.067l0.548,2.483
		c1.749-1.254,2.623-2.314,2.625-3.182L65.386,203.067z M66.878,133.722l0.426,1.932c0.727-0.642,1.318-1.014,1.779-1.115
		l-0.396-1.795C67.94,133.296,67.337,133.621,66.878,133.722z M67.693,131.516l0.152,0.69l0.69-0.152
		c0.726-0.641,1.318-1.014,1.779-1.115l-0.274-1.242C69.119,130.768,68.336,131.376,67.693,131.516z M89.99,208.348l-0.689,0.152
		c-4.383-1.06-6.821-2.064-7.321-3.016l2.169-5.253l-0.152-0.69l-0.551,0.122c-10.755,10.283-15.645,17.63-14.671,22.045
		c10.275,1.98,16.034,3.603,17.279,4.871c0.828-0.183,1.201-0.457,1.12-0.825c8.369-0.978,16.094-2.247,23.178-3.811l0.964,1.091
		c-0.462,0.101-0.64,0.382-0.538,0.841l1.932-0.425l-0.826-1.12l-0.152-0.69c7.082-1.562,16.503-5.424,28.263-11.586
		c0.817,0.206,1.685,0.207,2.606,0.003c2.387-3.612,5.28-5.794,8.685-6.546c0.273,0.808,0.778,1.132,1.516,0.969l0.551-0.122
		l-0.825-1.12c0.747-0.55,3.001-1.481,6.763-2.795l-0.152-0.688l-1.38,0.303l-0.274-1.242c0.735-0.163,1.517-0.769,2.347-1.821
		l0.69-0.151l0.274,1.242l1.793-0.396l-0.825-1.12c14.947-12.268,26.62-26.03,35.024-41.292c1.283-3.369,3.067-5.546,5.359-6.535
		c1.149-2.663,1.459-5.191,0.932-7.584l-0.963-1.091c0.277-0.928,0.366-1.622,0.264-2.083c-9.803-9.896-29.004-11.882-57.599-5.963
		c-20.464,6.058-30.442,10.235-29.935,12.533c-6.915,23.326-13.374,40.619-19.378,51.876
		C93.687,202.808,91.862,206.778,89.99,208.348z M72.205,118.514l0.426,1.93l0.69-0.151c0.827-0.183,1.15-0.688,0.968-1.516
		l-1.394-0.416L72.205,118.514z M73.172,116.998l1.363,0.277l-0.426-1.932C73.323,115.712,73.011,116.262,73.172,116.998z
		 M79.32,229.512l0.122,0.551c0.273,0.808,0.778,1.13,1.516,0.968l1.932-0.426l-0.274-1.242L79.32,229.512z M82.651,235.432
		l0.274,1.242l3.573-1.512l-0.826-1.12C85.037,234.667,84.031,235.127,82.651,235.432z M83.467,233.226l0.152,0.69l0.551-0.122
		c1.177-1.223,2.179-1.928,3.007-2.11c0.284,1.288,2.866,2.069,7.751,2.341c0.727-0.642,1.549-1.065,2.47-1.267
		c0.284,1.29,3.828,1.182,10.636-0.32l1.242-0.274c0.459-0.101,0.741,0.079,0.842,0.538c0.46-0.101,0.64-0.38,0.538-0.843
		c4.794-0.572,7.929-0.348,9.409,0.675l1.38-0.305l-0.578-2.62c1.47-0.325,3.317-0.925,5.535-1.8
		c0.459-0.101,0.73,0.033,0.812,0.399l3.052-1.25l2.621-0.579l-0.304-1.38l-2.622,0.579c-0.921,0.202-1.834,0.212-2.743,0.026
		c-1.055,0.909-4.914,2.435-11.578,4.58c-0.462,0.101-0.741-0.077-0.842-0.538l-3.022,1.389c-0.461,0.103-1.153,0.015-2.083-0.264
		l-1.09,0.964c-6.623,1.461-14.316,1.132-23.078-0.988l-0.552,0.122C84.328,231.01,83.826,231.798,83.467,233.226z M111.092,237.117
		l0.305,1.38c0.828-0.183,1.333,0.14,1.516,0.968l6.195-2.089l-0.122-0.551c-1.656,0.365-2.585,0.087-2.788-0.832
		c-1.177,1.225-2.364,1.968-3.559,2.232C112.435,237.306,111.92,236.934,111.092,237.117z M121.455,235.555l0.273,1.242l2.484-0.548
		l-0.274-1.242L121.455,235.555z M176.757,21.81c0.284,1.29,0.012,2.024-0.816,2.206l-2.205-0.815
		c-1.201,2-4.922,4.366-11.168,7.092l-1.932,0.426l0.274,1.242l-6.347,1.401c0.284,1.288-3.067,4.246-10.052,8.871
		c0.223,1.014-2.522,3.884-8.228,8.615c-1.559,3.432-3.71,6.801-6.453,10.105l-1.932,0.426l-3.061-2.074l-0.69,0.152
		c1.355,21.887,1.195,37.354-0.474,46.404l0.274,1.242l2.483-0.548c-0.344-1.562,0.295-2.814,1.922-3.751
		c0.021-0.776,6.44-6.001,19.259-15.677c15.817-14.001,31.262-31.007,46.335-51.019c5.946-6.714,9.424-12.156,10.433-16.335
		c0.919-0.204,1.278-0.764,1.076-1.685l-10.605,0.459c-0.462,0.101-0.649,0.337-0.569,0.704l-3.295,0.147l-2.622,0.579l-3.603,1.374
		l-1.501-0.248c-0.656,0.531-1.444,0.897-2.362,1.1l-1.243,0.274l-0.273-1.242L176.757,21.81z M125.87,234.583
		c0.366,0.786,0.916,1.1,1.654,0.937l0.551-0.122l-0.273-1.242L125.87,234.583z M140.208,229.395l-1.394-0.416
		c-1.493,1.103-4.801,2.506-9.922,4.213l0.304,1.38c0.367,0.788,0.916,1.1,1.654,0.937c-0.141-0.642,0.359-1.428,1.506-2.357
		l3.725-0.822c8.353-3.674,15.014-6.928,19.985-9.76l-0.274-1.242l-2.483,0.548c-0.729,1.512-4.773,3.511-12.132,6.003
		C141.358,228.707,141.036,229.212,140.208,229.395z M132.498,106.519l0.152,0.69l2.621-0.579l0.278-1.363l-0.551,0.122
		C134.252,105.94,133.417,106.316,132.498,106.519z M138.534,221.806l0.122,0.551l0.551-0.122c0.277-0.062,1.109-0.437,2.5-1.13
		l1.363,0.277c1.605-1.028,2.338-1.865,2.196-2.509l-0.122-0.551C140.535,219.726,138.331,220.887,138.534,221.806z
		 M139.119,106.361l0.304,1.38c2.452-1.12,5.108-3.297,7.965-6.532l-0.69,0.152C146.054,101.504,143.527,103.17,139.119,106.361z
		 M141.394,216.401l0.274,1.242l0.551-0.122c2.494-0.935,3.65-1.819,3.468-2.646l-0.69,0.152L141.394,216.401z M149.046,99.541
		l0.152,0.69l0.689-0.152c2.578-2.303,3.817-3.686,3.716-4.146C150.301,97.145,148.783,98.348,149.046,99.541z M151.139,103.131
		l0.122,0.553l0.69-0.152c1.851-1.661,3.191-2.586,4.02-2.768l-0.152-0.69l-1.243,0.274
		C152.93,102.062,151.782,102.991,151.139,103.131z M153.814,212.359l0.274,1.242l3.051-1.252l-0.152-0.69L153.814,212.359z
		 M154.419,93.727l-0.278,1.363l0.552-0.122c0.726-0.642,1.318-1.014,1.779-1.115l-0.122-0.553L154.419,93.727z M154.739,104.364
		l0.122,0.551c3.458-2.691,5.938-4.782,7.443-6.272c0.726-0.642,1.272-1.004,1.642-1.086l-0.274-1.242l-0.552,0.122
		C157.41,101.17,154.617,103.811,154.739,104.364z M155.735,208.607l0.122,0.553c3.69-1.199,5.434-2.259,5.231-3.18l-0.552,0.122
		C157.518,207.734,155.918,208.568,155.735,208.607z M157.033,221.055l1.931-0.426l-0.304-1.38l-0.552,0.123
		C157.229,219.758,156.871,220.32,157.033,221.055z M157.941,209.424l0.426,1.932l0.551-0.122c-0.101-0.459-0.015-1.154,0.265-2.084
		L157.941,209.424z M162.499,81.817c0.223,1.014-1.247,2.446-4.405,4.299l0.152,0.69l1.38-0.305
		c2.619-2.119,3.858-3.502,3.715-4.146l-0.152-0.69L162.499,81.817z M158.546,90.791l0.122,0.551l8.009-5.672l-0.152-0.69
		l-0.825-1.12C163.838,85.044,161.453,87.354,158.546,90.791z M163.754,111.78l0.274,1.242l1.931-0.425
		c-0.182-0.829-0.688-1.151-1.516-0.969L163.754,111.78z M167.745,211.892c0.284,1.29-0.816,2.206-3.299,2.752
		c0.294,0.901,0.808,1.269,1.546,1.106c2.311-1.762,3.407-2.922,3.286-3.473L167.745,211.892z M164.941,201.803
		c0.294,0.901,0.808,1.269,1.546,1.106l0.69-0.152c-0.203-0.918-0.766-1.278-1.684-1.076L164.941,201.803z M167.473,76.813
		l-2.074,3.062l1.932-0.426c-0.283-1.286,0.217-2.072,1.505-2.357l-0.122-0.551L167.473,76.813z M166.941,83.586l2.621-0.577
		c-0.182-0.829-0.735-1.141-1.654-0.939C167.101,82.346,166.779,82.852,166.941,83.586z M168.882,86.486l0.152,0.69l1.932-0.426
		c0.828-0.182,1.141-0.733,0.938-1.653l-0.122-0.551C170.585,85.677,169.618,86.325,168.882,86.486z M169.53,74.335l0.426,1.932
		c0.918-0.204,1.278-0.764,1.075-1.685l-0.122-0.551L169.53,74.335z M171.514,89.233l2.622-0.577
		c0.551-0.122,1.878-2.197,3.979-6.231l-0.69,0.151C173.332,85.892,171.361,88.109,171.514,89.233z M172.01,76.392l0.274,1.242
		l2.622-0.577l-0.274-1.242L172.01,76.392z M176.573,78.714c-0.259,1.891-1.539,3.088-3.837,3.595l0.274,1.242l1.932-0.426
		c-0.264-1.194,0.745-2.526,3.025-3.994l-0.152-0.69L176.573,78.714z M172.993,208.129l2.205,0.817
		c0.183-0.041,2.517-2.581,7.001-7.621l-0.69,0.152C175.669,205.177,172.83,207.395,172.993,208.129z M175.684,192.779l0.426,1.932
		c0.828-0.183,1.151-0.688,0.968-1.516L175.684,192.779z M179.888,75.378c0.142,0.644-0.319,1.615-1.384,2.91l0.69-0.152
		c0.828-1.05,1.565-1.648,2.209-1.79l-0.274-1.242L179.888,75.378z M178.583,190.837l0.426,1.932l1.242-0.274l-0.426-1.932
		L178.583,190.837z M181.235,200.236l0.152,0.69l0.689-0.152l2.748-2.632l1.394,0.416c-0.244-1.103,0.488-1.939,2.196-2.509
		l-0.152-0.69l-0.963-1.089L181.235,200.236z M185.611,61.963l-1.353,3.047l0.152,0.69l1.932-0.426
		c-0.385-1.745,0.064-2.762,1.354-3.047l-0.152-0.69L185.611,61.963z M187.659,56.157l1.394,0.416l-0.426-1.932
		C187.84,55.009,187.517,55.515,187.659,56.157z M188.332,180.585l0.152,0.69l0.69-0.152c1.749-1.254,2.613-2.36,2.596-3.323
		l-0.122-0.551l-0.69,0.152C189.084,178.972,188.209,180.033,188.332,180.585z M191.152,190.09l0.551-0.122
		c0.919-0.202,1.278-0.762,1.076-1.684l-0.69,0.152C191.301,188.806,190.989,189.355,191.152,190.09z M195.682,183.738
		c0.182,0.829-0.371,1.384-1.658,1.668l0.274,1.242c1.186-1.612,2.148-2.499,2.886-2.661l-0.122-0.551L195.682,183.738z
		 M197.878,181.229L198,181.78c0.828-0.183,1.151-0.688,0.968-1.516l-0.122-0.551C198.039,179.987,197.716,180.492,197.878,181.229z
		 M198.415,19.638l3.174-0.699l0.305,1.379l-3.174,0.7L198.415,19.638z M198.486,165.613l0.304,1.38l0.552-0.123
		c0.918-0.202,1.278-0.762,1.075-1.684l-0.122-0.551C199.55,165.187,198.945,165.512,198.486,165.613z M203.971,157.024
		c0.642-0.142,1.288-1.153,1.936-3.031l-0.274-1.242l-0.69,0.152C203.828,153.536,203.504,154.909,203.971,157.024z"/>
	<path fill="#FFFFFF" d="M266.996,71.654l0.559-0.08c0.651-0.094,2.718,0.033,6.195,0.385c0.691-0.481,1.503-0.79,2.435-0.927
		l8.409,6.773c2.339,3.658,4.987,11.079,7.947,22.261c0.009,3.997-4.045,13.105-12.163,27.325c-1.866,0.271-5.043,2.97-9.532,8.096
		c-1.969,1.524-3.907,3.566-5.82,6.128l0.101,0.7l1.259-0.183c0.109,0.747-2.313,2.43-7.262,5.052
		c-6.524,6.852-11.764,10.754-15.717,11.708c-0.907-0.343-1.594-0.481-2.059-0.414c-0.679,0.575-1.53,0.937-2.555,1.086l-0.101-0.7
		l0.516-1.36l-1.259,0.183c-1.677,0.911-2.345,2.531-2.006,4.86c1.755,4.22,5.336,5.936,10.743,5.15l6.572-0.956
		c4.474-0.651,11.815-5.475,22.025-14.48c0.893,0.252,1.571,0.343,2.039,0.276c-0.017-1.425,0.945-2.658,2.888-3.704l12.26-11.918
		c1.304-0.19,3.391,0.413,6.259,1.803c-0.033,3.052-1.171,5.691-3.418,7.921c0.839-0.122,1.285,0.005,1.339,0.377
		c4.375-3.3,7.262-5.054,8.66-5.256l0.203,1.398c-3.572,4.898-7.783,9.983-12.632,15.256l-0.559,0.082l0.182,1.257l1.157-0.882
		l1.398-0.202c-0.021,3.144-1.147,4.878-3.384,5.203l0.183,1.259l1.958-0.284l0.101,0.699c-3.427,3.925-5.1,6.167-5.019,6.726
		l0.699-0.101c0.785-0.493,1.409-0.776,1.876-0.844l0.882,1.158l-1.296,0.903l-1.36-0.517c0.298,2.052-4.58,6.806-14.632,14.263
		c-5.096,2.93-11.093,4.896-17.99,5.898c-6.837-0.527-13.168-2.512-18.997-5.948c-3.883-2.482-9.164-11.327-15.85-26.539
		l-0.67-4.614c-0.367-14.318,3.114-28.673,10.446-43.066c6.076-4.689,10.412-10.223,13.007-16.595
		c7.799-7.892,11.64-12.257,11.518-13.097c-0.163-1.118,3.933-3.713,12.29-7.782l-0.102-0.7c-0.838,0.123-1.319-0.236-1.441-1.076
		L266.996,71.654z M273.332,97.577c-0.171,0.788-4.532,4.513-13.081,11.18c-12.549,16.484-19.314,28.223-20.296,35.219
		c0.48,0.692,0.79,1.504,0.925,2.435c2.262-0.805,5.158-4.127,8.687-9.973c2.143-0.312,8.326-8.537,18.544-24.683
		c1.182-1.694,3.448-6.07,6.803-13.124C274.792,97.793,274.263,97.442,273.332,97.577z M276.345,178.235l0.081,0.56l1.958-0.284
		c0.651-0.096,1.21-0.841,1.673-2.242c-0.373,0.053-0.593-0.151-0.661-0.618C277.24,176.535,276.223,177.396,276.345,178.235z
		 M281.272,174.807l0.183,1.259c0.771-0.587,1.388-0.916,1.856-0.983l-0.284-1.958l-0.7,0.101
		C281.516,173.536,281.164,174.062,281.272,174.807z M284.204,172.381l0.081,0.56c2.671-2.578,4.519-3.941,5.546-4.09l-0.102-0.699
		l-2.656,0.385C286.513,168.62,285.556,169.902,284.204,172.381z M288.278,163.08l0.081,0.56l1.258-0.183
		c1.981-1.43,2.977-2.432,2.99-3.004l-1.499-0.497C289.272,161.08,288.328,162.123,288.278,163.08z M291.724,150.444l0.285,1.958
		c0.966-1.855,2.382-2.917,4.248-3.187l-0.203-1.399C293.046,148.73,291.602,149.605,291.724,150.444z M296.006,161.244l0.882,1.156
		l-1.755,1.684l-0.699,0.101l-0.102-0.699C294.239,162.835,294.794,162.087,296.006,161.244z"/>
	<path fill="#FFFFFF" d="M346.334,61.519l0.562-0.065c0.653-0.079,2.715,0.104,6.183,0.548c0.703-0.462,1.523-0.75,2.459-0.861
		l8.227,6.994c2.241,3.718,4.693,11.206,7.356,22.461c-0.096,3.996-4.39,12.995-12.88,26.995c-1.873,0.221-5.12,2.836-9.742,7.84
		c-2.009,1.473-4.001,3.463-5.98,5.974l0.083,0.7l1.262-0.149c0.089,0.75-2.375,2.369-7.392,4.859
		c-6.703,6.678-12.045,10.44-16.022,11.29c-0.897-0.368-1.58-0.526-2.047-0.469c-0.694,0.558-1.554,0.896-2.583,1.017l-0.083-0.702
		l0.552-1.346l-1.263,0.151c-1.701,0.865-2.411,2.468-2.134,4.806c1.643,4.264,5.176,6.073,10.603,5.431l6.594-0.781
		c4.49-0.533,11.956-5.162,22.4-13.893c0.886,0.274,1.562,0.384,2.031,0.327c0.02-1.425,1.016-2.632,2.985-3.626l12.571-11.591
		c1.308-0.154,3.378,0.504,6.208,1.968c-0.114,3.052-1.321,5.66-3.626,7.828c0.842-0.099,1.285,0.039,1.33,0.413
		c4.461-3.184,7.392-4.86,8.795-5.027l0.166,1.403c-3.7,4.802-8.044,9.776-13.031,14.919l-0.561,0.067l0.149,1.262l1.18-0.851
		l1.404-0.166c-0.104,3.143-1.276,4.847-3.521,5.112l0.15,1.262l1.964-0.233l0.083,0.702c-3.53,3.833-5.261,6.03-5.195,6.592
		l0.701-0.084c0.798-0.473,1.429-0.738,1.898-0.793l0.851,1.178l-1.32,0.868l-1.345-0.551c0.243,2.059-4.758,6.681-15.004,13.871
		c-5.171,2.795-11.218,4.602-18.139,5.42c-6.821-0.707-13.097-2.858-18.834-6.448c-3.816-2.583-8.861-11.564-15.143-26.947
		l-0.548-4.631c0.01-14.323,3.871-28.58,11.58-42.775c6.198-4.526,10.678-9.944,13.442-16.248
		c8.005-7.681,11.96-11.944,11.86-12.787c-0.133-1.122,4.03-3.607,12.491-7.455l-0.083-0.702c-0.842,0.101-1.313-0.271-1.412-1.113
		L346.334,61.519z M351.984,87.599c-0.192,0.783-4.651,4.393-13.371,10.832c-12.981,16.145-20.053,27.7-21.22,34.669
		c0.462,0.706,0.749,1.524,0.86,2.459c2.282-0.745,5.266-3.99,8.949-9.74c2.151-0.255,8.548-8.315,19.189-24.184
		c1.226-1.661,3.607-5.975,7.146-12.941C353.437,87.854,352.918,87.488,351.984,87.599z M352.865,168.31l0.066,0.56l1.964-0.231
		c0.653-0.079,1.231-0.808,1.732-2.197c-0.375,0.045-0.589-0.166-0.645-0.635C353.804,166.634,352.765,167.468,352.865,168.31z
		 M357.88,165.012l0.15,1.264c0.787-0.567,1.412-0.879,1.881-0.935l-0.233-1.964l-0.701,0.084
		C358.158,163.748,357.792,164.265,357.88,165.012z M360.875,162.666l0.067,0.562c2.738-2.506,4.621-3.819,5.651-3.942l-0.083-0.7
		l-2.666,0.315C363.283,158.966,362.293,160.222,360.875,162.666z M365.193,153.476l0.067,0.562l1.262-0.151
		c2.018-1.377,3.041-2.351,3.068-2.923l-1.486-0.536C366.24,151.501,365.269,152.52,365.193,153.476z M368.972,140.934l0.233,1.964
		c1.015-1.827,2.458-2.852,4.331-3.074l-0.167-1.403C370.339,139.256,368.872,140.091,368.972,140.934z M372.968,151.843l0.851,1.18
		l-1.798,1.636l-0.701,0.082l-0.083-0.7C371.158,153.387,371.734,152.654,372.968,151.843z"/>
	<path fill="#FFFFFF" d="M384.424,44.441c0.572,0.041,0.88,0.296,0.925,0.764c-1.608,1.005-3.215,4.518-4.818,10.536l0.04,0.421
		l0.843-0.08c-0.142-1.499,1.239-4.376,4.148-8.627c0.535-0.334,1.131-0.533,1.788-0.596c1.262,0.355,1.918,0.766,1.963,1.233
		l0.08,0.844c0.027,0.281-0.1,0.435-0.381,0.462c0.045,0.469,0.883,1.334,2.518,2.598l0.04,0.423l-0.342,0.884
		c1.031-0.098,2.808,2.667,5.33,8.293c0.664,0.033,1.021,0.283,1.065,0.75l-0.811,1.923c0.664,0.031,1.025,0.327,1.078,0.891
		l0.121,1.266c-3.238,4.756-4.878,8.412-4.918,10.971c0.281-0.027,0.44,0.149,0.475,0.522l0.79-0.644l1.882,0.389
		c2.813-0.267,7.494-2.273,14.046-6.018c0.036,0.375,0.241,0.545,0.617,0.509c3.621-2.708,10.823-7.083,21.602-13.124
		c0.59,0.228,1.212,0.31,1.868,0.247c-0.045-0.468,1.84-1.545,5.654-3.233c1.299-1.259,3.478-2.223,6.537-2.893
		c0.027,0.281,0.181,0.409,0.462,0.382c0.039-0.572,0.342-0.884,0.904-0.937l1.406-0.134l0.04,0.421
		c0.054,0.562-0.39,0.889-1.326,0.978c0.155,0.647,0.468,0.949,0.938,0.904c0.536-0.336,1.131-0.534,1.789-0.596l2.083,2.499
		c-0.554,0.147-0.808,0.456-0.764,0.923l3.442,3.364l0.04,0.421l-0.844,0.08l0.094,0.985c0.843-0.08,1.292,0.161,1.346,0.724
		c-0.595,0.719-1.127,1.1-1.594,1.144l3.348,2.379l-0.71,1.487c0.373-0.036,0.836,0.346,1.386,1.146l-0.422,0.039
		c0.754,0.971,1.159,1.735,1.212,2.298c-0.648,0.158-0.949,0.469-0.904,0.937l2.385,1.194l0.08,0.844
		c-0.843,0.079-1.234,0.449-1.172,1.105c1.499-0.142,2.278,0.067,2.331,0.63c0.062,0.656-0.236,1.016-0.891,1.077l0.502,0.803
		c-13.598,9.241-23.595,22.54-29.986,39.896c-8.952,17.315-13.58,31.334-13.884,42.054l0.04,0.421l0.516,0.945
		c2.152-1.245,4.711-3.191,7.676-5.84c-0.08-0.843,0.616-1.478,2.09-1.901c0.563-2.041,1.539-3.22,2.928-3.543l1.406-0.134
		c-0.05-1.507,0.301-2.298,1.052-2.37l0.563-0.053l0.04,0.421l-0.469,1.038l0.985-0.094c-0.152-1.593,0.381-2.449,1.601-2.564
		l-0.081-0.844l-0.656-0.932l1.748-1.017c0.682,0.219,1.165,0.315,1.447,0.288c1.606-4.979,3.819-7.601,6.632-7.868l-0.657-0.932
		c1.451-1.651,2.811-3.766,4.08-6.349c1.594-0.152,3.206-2.101,4.836-5.854c-0.035-0.373,0.134-0.581,0.51-0.617l0.897,0.483
		c-0.152-1.593,0.809-2.915,2.887-3.965l-0.134-1.406l0.421-0.041c0.572,0.041,0.885,0.343,0.938,0.904l-0.724,1.346l0.174,1.829
		c0.937-0.089,1.438,0.195,1.5,0.851c0.054,0.562-0.249,0.875-0.904,0.937l-0.08-0.843l-1.406,0.134
		c-1.676,1.295-2.608,2.425-2.8,3.388l0.04,0.423l0.421-0.041l2.458-2.504c0.664,0.033,1.025,0.327,1.079,0.891
		c0.116,1.219-1.736,4.139-5.554,8.76c-2.293,4.759-5.759,10.106-10.397,16.034c-1.069,1.711-2.045,2.891-2.928,3.542
		c0.089,0.939-0.438,1.887-1.575,2.846c-0.027-0.281-0.181-0.408-0.462-0.382l-3.558,5.874l-2.17,1.058l0.08,0.843l0.422-0.039
		c0.187-0.019,2.045-1.377,5.574-4.078l0.421-0.041l0.04,0.423c0.045,0.469-1.595,2.137-4.917,5.008l-1.487-0.709l-0.422,0.039
		c-0.648,0.158-0.949,0.469-0.904,0.939c1.218-0.116,1.86,0.156,1.922,0.81l0.04,0.421c-1.006,0.38-1.602,0.579-1.789,0.596
		l0.656,0.932l0.04,0.421c0.054,0.563-0.249,0.875-0.904,0.939l-0.422,0.039l-1.024-0.327c-2.957,2.742-5.701,4.232-8.233,4.472
		l-0.093-0.985l-1.829,0.175c0.089,0.939-0.147,1.433-0.71,1.487c-1.831-1.338-4.043-2.216-6.637-2.634
		c-0.746-0.873-2.968-1.846-6.664-2.913l-0.054-0.563c0.228-0.589,0.329-1.024,0.302-1.305c-1.478-0.617-3.751-3.619-6.817-9.003
		l0.208-2.292c-0.335-0.536-0.533-1.13-0.596-1.788l0.422-0.039l-0.503-0.805l-0.267-2.812l0.71-1.488l-0.964-1.185l-0.307-3.235
		c-0.062-0.654,0.02-1.279,0.247-1.868c-0.027-0.281-0.181-0.409-0.462-0.382c0.115-2.754,0.597-4.172,1.44-4.252
		c0.027,0.281,0.181,0.408,0.462,0.382l0.342-0.884l-0.04-0.423l-0.804,0.502c-0.657,0.063-1.016-0.233-1.078-0.891l1.326-0.978
		c0.146,0.555,0.454,0.808,0.924,0.764c2.298-11.665,5.42-20.62,9.368-26.863c-0.089-0.937,0.783-3.197,2.619-6.779l-2.196,0.776
		c-0.974-0.284-1.474-0.569-1.5-0.849c-2.131,0.486-3.12,1.526-2.968,3.12l-0.421,0.039l-0.897-0.481l-0.329,1.024l0.121,1.266
		l0.421-0.039l-0.08-0.844l0.843-0.08l-0.208,2.292l-0.843,0.079l-0.081-0.843l-0.563,0.053c-1.51,2.036-2.643,4.557-3.397,7.561
		l-0.843,0.08l0.207-2.292l-0.08-0.843l-0.844,0.079l0.081,0.844l-0.985,0.094c0.441-2.314,0.641-3.703,0.597-4.174l-0.857-3.04
		c0.32-0.599,0.451-1.225,0.389-1.882l-0.985,0.094c0.17,1.781-0.791,4.616-2.881,8.505c-0.519-1.463-1.012-2.175-1.481-2.131
		c-0.839,3.11-1.916,4.725-3.229,4.848l0.04,0.423l0.844-0.08c-0.612,2.519-0.891,4.059-0.838,4.621l-0.563,0.055l-1.346-0.724
		l-0.422,0.041c0.143,1.5-0.116,2.281-0.77,2.343c-0.471,0.045-0.983-0.378-1.54-1.272c0.695-0.634,1.278-0.973,1.748-1.017
		l-0.039-0.423l-2.251,0.214c0.08,0.844-0.02,1.279-0.301,1.307l0.516,0.944c0.054,0.563-0.342,0.885-1.185,0.966l0.267,2.812
		c0.036,0.377-0.533,0.856-1.708,1.44l0.636,2.209l0.134,1.408l-1.406,0.134l-0.175-1.829l-0.421,0.041
		c0.142,1.5,0.355,2.237,0.635,2.209l0.422-0.039c-0.474,0.992-0.793,2.112-0.958,3.355c0.335,0.536,0.521,0.993,0.556,1.367
		c-0.646,0.156-0.949,0.469-0.904,0.937l-0.885-0.341l-1.326,0.978l-0.844,0.081l-0.08-0.844l0.711-1.487l-0.08-0.844l-0.844,0.08
		l-0.207,2.29l0.174,1.829l-0.563,0.053c-0.563,0.053-0.875-0.247-0.938-0.904l-0.121-1.266c0.84-3.107,1.585-4.739,2.232-4.896
		l0.214,2.25l1.326-0.978c-0.335-0.534-0.52-0.99-0.556-1.365l-0.12-1.267c-0.936,0.089-1.438-0.194-1.5-0.849
		c0.97-0.754,1.941-4.962,2.916-12.626l1.272-1.541l0.897,0.483l0.469-1.038l-0.081-0.844l-1.407,0.134
		c-0.124-1.312,0.98-7.094,3.318-17.347c0.231-1.533,0.63-2.329,1.193-2.384l-0.502-0.803c0.446-1.271,0.625-2.377,0.536-3.316
		c-0.17-1.779-2.438-6.722-6.803-14.823C376.996,61.848,379.046,51.577,384.424,44.441z M378.777,138.793
		c0.027,0.283,0.181,0.409,0.462,0.382c-0.236,0.498-0.306,1.26-0.208,2.292l-0.421,0.039l-1.025-0.329
		c0.053,0.563-0.201,0.872-0.764,0.925c-0.427-0.527-0.656-0.932-0.683-1.213C376.397,139.636,377.278,138.937,378.777,138.793z
		 M380.574,124.856l0.134,1.406c0.658-0.062,0.954-0.421,0.891-1.077L380.574,124.856z M382.847,105.479l0.121,1.266
		c0.655-0.062,0.957-0.375,0.904-0.937l-0.04-0.423L382.847,105.479z M384.613,124.046l0.563-0.053
		c0.373-0.036,0.84,0.394,1.4,1.286c0.035,0.375-0.347,0.837-1.146,1.386l-0.563,0.055L384.613,124.046z M384.996,117.623
		l0.081,0.843l1.406-0.134c0.563-0.053,0.818-0.361,0.764-0.923L384.996,117.623z M389.317,110.824
		c0.419,0.435,0.661,0.98,0.724,1.636l0.421-0.041l-0.16-1.687L389.317,110.824z M391.515,104.087
		c0.036,0.377-0.109,0.863-0.429,1.461l0.985-0.094c-0.027-0.281,0.069-0.762,0.288-1.447L391.515,104.087z M404.665,88.644
		l0.053,0.563l3.095-0.295l0.469-1.038l-0.563,0.053C406.621,88.317,405.601,88.555,404.665,88.644z M406.165,95.455l0.08,0.844
		l1.407-0.134l-0.081-0.844L406.165,95.455z M407.578,134.21l-0.342,0.884l1.406-0.134
		C408.59,134.399,408.233,134.149,407.578,134.21z M408.092,100.807l0.04,0.423l2.291,0.207l2.25-0.214l-0.08-0.843L408.092,100.807
		z M408.144,116.274l0.04,0.421l0.563-0.053c0.893-2.545,1.326-3.958,1.3-4.24C408.599,113.107,407.965,114.398,408.144,116.274z
		 M408.744,88.257l0.844-0.08c0.655-0.063,0.957-0.375,0.904-0.939l-0.985,0.094C408.954,87.479,408.699,87.787,408.744,88.257z
		 M410.435,110.519l0.054,0.563l0.843-0.08c0.639-2.237,2.261-6.08,4.865-11.533l-0.08-0.844l-0.422,0.041
		C413.028,103.462,411.275,107.413,410.435,110.519z M412.994,113.54c0.154,0.649,0.467,0.951,0.937,0.906l0.329-1.026
		L412.994,113.54z M413.385,93.777c0.155,0.647,0.467,0.949,0.938,0.904l0.468-1.04l-0.039-0.421
		C414.121,93.564,413.666,93.749,413.385,93.777z M413.421,118.043l0.054,0.562c0.335,0.536,0.516,0.945,0.542,1.226l-0.422,0.039
		c0.335,0.536,0.521,0.993,0.556,1.367l0.844-0.08l-0.73-3.194L413.421,118.043z M414.163,130.319l0.134,1.408l0.843-0.08
		l-0.04-0.423C415.039,130.569,414.725,130.266,414.163,130.319z M417.464,93.388l0.094,0.985l1.406-0.134l-0.093-0.985
		L417.464,93.388z M418.085,104.4c1.593-0.152,2.967-0.14,4.119,0.033l-0.04-0.421c-0.335-0.536-0.52-0.99-0.556-1.367
		C419.196,103.158,418.023,103.744,418.085,104.4z M424.955,76.638l0.093,0.985l0.563-0.055c0.563-0.053,0.814-0.408,0.751-1.064
		L424.955,76.638z M435.272,59.76l0.563-0.053l2.196-0.778l-0.04-0.421l-1.828,0.175C435.515,58.839,435.219,59.198,435.272,59.76z
		 M435.905,79.855l-0.482,0.897l0.04,0.421l0.563-0.053c0.563-0.053,0.817-0.361,0.763-0.925L435.905,79.855z M437.64,78.695
		l-0.469,1.04l0.04,0.421l1.407-0.134l-0.04-0.423C438.515,78.945,438.203,78.642,437.64,78.695z M438.414,58.469l0.422-0.041
		c0.655-0.062,0.957-0.375,0.904-0.937l-0.563,0.053C438.623,57.691,438.369,58,438.414,58.469z M439.959,156.82l0.503,0.803
		l-0.804,0.504l-0.503-0.805L439.959,156.82z M441.937,56.713l0.421-0.039c0.563-0.053,0.818-0.361,0.764-0.925l-0.421,0.041
		C442.147,55.938,441.893,56.246,441.937,56.713z M448.152,145.964l0.844-0.08c-2.229,3.43-3.574,5.215-4.033,5.352l-0.422,0.039
		C446.48,147.779,447.682,146.009,448.152,145.964z M451.79,140.934l0.516,0.945l0.04,0.421l-0.422,0.041
		c-0.657,0.062-1.011-0.188-1.064-0.75L451.79,140.934z M460.254,115.008c0.571,0.041,0.879,0.296,0.924,0.764
		c0.063,0.658-0.188,1.012-0.75,1.065l-0.844,0.08l-0.093-0.985C459.529,115.361,459.783,115.053,460.254,115.008z M462.29,112.544
		l0.502,0.805l-0.79,0.642l-0.516-0.945L462.29,112.544z"/>
	<path fill="#FFFFFF" d="M530.133,46.246c7.515-0.551,12.571,7.203,15.164,23.256l0.277,3.805
		c-2.079,7.709-8.219,17.368-18.419,28.974c-0.074,0.289-1.672,1.682-4.794,4.177l-0.704,0.051
		c-0.377,0.027-0.581-0.192-0.617-0.663l-7.89,6.386l-0.704,0.051c-4.229,0.31-6.484-1.461-6.765-5.313
		c-1.317,0.096-3.898-2.925-7.748-9.067l-0.563,0.041c-12.145,16.001-18.115,30.56-17.91,43.672c0.124,1.69,2.095,2.821,5.915,3.391
		l4.509-0.331c5.636-0.413,17.74-7.296,36.312-20.653c-0.096-1.314,1.314-2.692,4.232-4.134l1.925,1.134l0.704-0.051
		c0.846-0.062,1.237-0.516,1.175-1.362l-0.041-0.563l-0.704,0.051c-0.819,0.438-1.416,0.671-1.791,0.699
		c0.447-1.637,3.47-3.559,9.07-5.765c-0.089-1.219,0.334-1.867,1.274-1.935l3.102-0.228l-0.104-1.408l-1.267,0.092l-0.135-1.833
		c4.602-0.337,7.909-2.28,9.916-5.826c2.202-2.144,4.616-4.021,7.238-5.629c0.123,1.69,1.218,2.459,3.287,2.309
		c0.062,0.846-0.331,1.3-1.177,1.362l-0.563,0.041l-1.319-0.611l-1.788,2.68c0.469-0.034,0.723,0.185,0.757,0.653
		c-1.88,0.139-3.074,1.266-3.578,3.379l0.092,1.269l0.563-0.041l-0.134-1.833l1.267-0.092c0.846-0.062,1.314,0.519,1.403,1.738
		l3.107-2.069l1.269-0.092l0.092,1.267c-13.386,17.132-22.314,26.76-26.786,28.88l0.041,0.563l1.269-0.092
		c4.169-2.382,8.183-6.267,12.038-11.649l1.216-0.798l0.565-0.041c0.096,1.317,0.567,1.942,1.411,1.88l0.094,1.267
		c-0.471,0.036-2.461,1.88-5.97,5.539c-0.88-0.408-1.509-0.598-1.884-0.57l-0.611,1.319c1.713,0.159,2.605,0.755,2.682,1.788
		c0.027,0.377-1.963,2.221-5.97,5.537l-1.267,0.092c-0.063-0.844-0.329-1.25-0.798-1.216c-2.548,1.32-5.523,3.9-8.925,7.738
		l0.563-0.041c1.562-0.586,3.583-2.009,6.061-4.27l0.706-0.051l0.041,0.563c-2.766,3.509-6.21,6.121-10.334,7.84l-0.051-0.704
		l2.35-2.723l-1.267,0.092c-9.3,5.876-14.652,8.866-16.061,8.969c-1.54,2.19-3.343,3.362-5.409,3.513l-1.269,0.092l-1.309-0.471
		l-0.611,1.32l0.041,0.563l2.537-0.185c6.779-2.857,12.747-5.844,17.902-8.962l1.267-0.092c-4.314,4.283-11.471,8.443-21.47,12.482
		c0.062,0.844-0.33,1.298-1.175,1.36l-4.509,0.331c-0.846,0.062-1.299-0.329-1.362-1.175c0.469-0.034,0.688-0.284,0.653-0.755
		l-1.309-0.471c-0.377,0.027-1.631,0.31-3.764,0.843c-9.05-1.038-13.649-2.59-13.8-4.657c-9.989-12.586-15.37-21.588-16.145-27.01
		c-0.337-4.602,1.322-10.957,4.978-19.065c-0.289-3.946,1.577-7.483,5.599-10.61l0.467-3.293l-1.217,0.798
		c-0.034-0.469-0.287-0.688-0.756-0.654l3.388-7.897l1.268-0.094c0.374-0.027,0.581,0.195,0.616,0.665
		c1.314-0.098,4.258-3.759,8.829-10.99l-0.798-1.216c1.954-2.977,9.974-10.175,24.061-21.596c2.024-0.716,5.078-2.874,9.159-6.481
		c3.011-1.445,4.89-2.199,5.643-2.254l-0.093-1.269c-4.074,1.149-6.39,1.743-6.953,1.785l-1.833,0.134
		C515.706,50.419,520.479,48.56,530.133,46.246z M498.597,97.291l0.563-0.041c12.981-9.735,19.342-16.387,19.08-19.957l-0.563,0.041
		c-6.301,4.24-11.877,9.986-16.729,17.234C500.289,94.616,499.506,95.523,498.597,97.291z M520.515,143.145l1.973-0.146
		c0.846-0.062,1.237-0.516,1.175-1.36l-1.319-0.613C521.685,141.076,521.075,141.782,520.515,143.145z M524.349,54.319l0.563-0.041
		l3.201-0.802c0.027,0.377,0.228,0.55,0.605,0.522l0.611-1.32l-3.804,0.279C524.694,53.209,524.301,53.663,524.349,54.319z
		 M538.554,126.38c0.154,0.839,0.608,1.231,1.362,1.177l1.267-0.094l-0.092-1.267L538.554,126.38z M543.807,136.197l0.051,0.704
		l1.833-0.134l1.124-2.065l-0.563,0.041C545.278,135.664,544.463,136.149,543.807,136.197z M553.353,109.855
		c0.469-0.034,0.721,0.183,0.755,0.653c-1.233,1.225-3.706,2.917-7.419,5.078c0.116,1.598-0.212,2.898-0.99,3.896l0.704-0.051
		c4.038-0.295,7.671-2.922,10.899-7.882c-0.949-1.348-1.464-2.584-1.548-3.711l-0.563,0.041
		C554.533,107.926,553.92,108.587,553.353,109.855z M559.647,116.478l0.563-0.041l0.051,0.704c0.178,2.444-1.358,4.682-4.609,6.714
		l-0.563,0.041l-0.238-3.242C554.817,120.184,556.415,118.793,559.647,116.478z M561.344,114.511l0.704-0.051l0.135,1.831
		l-1.973,0.146l-0.041-0.563C560.294,115.013,560.685,114.559,561.344,114.511z M574.781,96.81l1.973-0.144l0.051,0.704
		c0.069,0.94-0.968,1.629-3.107,2.069l0.144,1.973l3.189-0.942c-0.534,1.74-1.13,2.632-1.786,2.68l-0.563,0.043l-2.065-1.125
		c0.158,2.163-1.392,4.211-4.65,6.15l0.092,1.267c1.314-0.096,2.004,0.279,2.065,1.125c0.062,0.844-0.329,1.298-1.175,1.36
		l-1.269,0.094l-0.185-2.536l-0.706,0.051c0.221,3.007-1.173,4.619-4.179,4.84l-0.656-1.228c1.165-0.839,4.643-5.581,10.433-14.223
		C573.045,98.92,573.843,98.202,574.781,96.81z M568.532,98.543l1.269-0.094l0.051,0.706c-2.85,2.382-4.227,4.184-4.138,5.403
		l-1.267,0.092l-0.094-1.269C564.305,102.725,565.698,101.112,568.532,98.543z"/>
	<path fill="#FFFFFF" d="M639.779,31.695c1.284,1.159,3.586,1.889,6.905,2.187c-0.024-0.469,0.197-0.718,0.668-0.742
		c0.05,0.94,2.269,3.751,6.664,8.424c1.348,2.384,2.31,5.446,2.882,9.188c-0.653,14.655-2.254,23.794-4.801,27.414l-1.834,0.096
		c0.06,1.129-0.488,2.43-1.636,3.905c0.044,0.846,2.293,4.22,6.751,10.118l5.84,17.099l0.389,7.479
		c0.192,3.668-3.499,12.54-11.067,26.608l-6.948,7.861l-0.706,0.036l-0.103-1.975c-1.814,1.416-3.002,2.136-3.566,2.165l0.058,1.13
		l1.834-0.096c-3.122,3.465-5.719,5.249-7.786,5.357l-2.399,0.123c-6.585,0.343-13.139-2.381-19.666-8.173
		c-5.955,5.215-9.956,8.111-11.999,8.688l-0.067-1.271c1.223-0.063,2.401-0.973,3.537-2.73c-0.846,0.043-1.288-0.31-1.327-1.064
		c5.361-0.279,7.945-2.298,7.75-6.063l-1.901-1.173l-1.129,0.058c-0.622,2.579-6.193,7.02-16.71,13.319
		c-5.27,0.274-12.848-2.208-22.742-7.448c-4.343-3.735-6.705-9.224-7.082-16.469c1.589-20.266,9.002-40.932,22.245-61.994
		c11.005-15.097,18.228-23.112,21.67-24.047c-5.486,6.984-9.164,11.512-11.036,13.59l0.036,0.706l0.565-0.029
		c7.638-9.074,14.148-15.4,19.527-18.983c0.851,0.051,1.295,0.406,1.329,1.062c-3.973,3.415-5.934,5.593-5.886,6.532l1.242-0.63
		l1.129-0.058l0.029,0.563c-1.274,2.708-2.578,4.852-3.91,6.429c-0.18,1.99-1.365,3.703-3.554,5.136
		c-0.957,3.353-2.706,5.093-5.246,5.225l0.036,0.706l0.719,2.934c-2.389,1.255-3.566,2.165-3.537,2.73l0.029,0.565l1.24-0.632
		l1.159,0.507c-0.065-1.221,1.543-2.956,4.823-5.203c-0.06-1.129,2.247-3.937,6.919-8.424l0.706-0.036
		c-6.047,7.106-9.524,11.862-10.437,14.266l0.029,0.563l8.688-9.789l0.706-0.036l0.067,1.269c-3.542,2.639-5.638,5.861-6.289,9.666
		l-2.54,0.132c0.043,0.846,0.676,1.238,1.899,1.173l2.475-1.401c0.677,0.343,1.487,0.488,2.427,0.44
		c-0.034-0.658,0.771-1.502,2.417-2.531c0.019,0.377,0.216,0.555,0.593,0.534c-0.082-1.598,1.68-3.953,5.292-7.066l0.565-0.029
		l0.029,0.565l-4.616,6.465l0.094,1.834l1.242-0.63l0.563-0.029c0.375-0.021,0.575,0.159,0.594,0.534
		c1.094-0.716,3.977-1.48,8.652-2.29c7.049-24.04,10.493-37.659,10.327-40.858l1.129-0.058l0.192,3.668l0.706-0.038
		C635.851,38.69,637.567,36.336,639.779,31.695z M577.35,118.132c0.108,2.071-0.262,3.126-1.108,3.17l0.161,3.103
		c0.848-0.043,1.538-2.153,2.077-6.332L577.35,118.132z M578.958,113.662l-0.545,3.141c0.752-0.039,1.308-1.105,1.673-3.199
		L578.958,113.662z M591.558,105.65l-0.038-0.706l0.404-3.134l-0.565,0.029c-0.748,0.135-1.872,2.079-3.376,5.835l0.125,2.399
		C589.938,107.149,591.086,105.674,591.558,105.65l0.029,0.563c-1.464,4.511-2.949,7.702-4.455,9.57l0.029,0.565l-0.706,0.036
		l-1.158-0.505c-1.103,4.208-1.62,6.924-1.557,8.145c0.822-0.514,1.466-0.784,1.939-0.808l0.036,0.706
		c-2.874,10.053-5.045,16.345-6.518,18.873l0.038,0.706l3.669-0.192c9.911-8.909,16.511-17.128,19.8-24.657
		c3.196-5.635,7.33-14.105,12.403-25.404l-1.307-0.641l-6.208,0.324l-0.067-1.271l4.316-1.355l-0.036-0.706
		c-0.055-1.034-0.932-1.601-2.636-1.702c-0.73,0.51-1.327,0.776-1.798,0.8l-0.63-1.24c4.54-1.557,8.159-3.629,10.855-6.224
		c-0.377,0.019-2.035-0.082-4.968-0.308c-5.08,0.264-9.428,4.643-13.042,13.129C598.739,94.1,596.063,97.966,591.558,105.65z
		 M580.344,118.541l-0.404,3.134c0.414,0.735,0.649,1.572,0.697,2.511l0.706-0.036c-0.015-2.074,0.545-3.141,1.673-3.201
		c-0.747-1.658-1.403-2.473-1.966-2.444L580.344,118.541z M581.356,113.537l-0.432,2.569c0.846-0.043,1.238-0.676,1.175-1.899
		l-0.038-0.706L581.356,113.537z M582.56,112.201l0.038,0.706c0.135,0.843,0.581,1.243,1.336,1.204l-0.038-0.706
		C583.853,112.559,583.408,112.158,582.56,112.201z M584.91,108.401l0.132,2.54l0.565-0.029c-0.021-0.375,0.101-1.654,0.365-3.84
		C585.228,107.301,584.876,107.743,584.91,108.401z M585.136,90.987l0.067,1.269l1.975-0.101c-0.043-0.848-0.488-1.249-1.336-1.204
		L585.136,90.987z M586.583,69.83l0.096,1.834c0.656-0.034,1.416-0.873,2.274-2.523l-0.038-0.706
		C588.018,69.332,587.241,69.796,586.583,69.83z M586.939,161.068l4.374-0.226l0.031,0.563c0.043,0.848-0.358,1.293-1.204,1.336
		l-3.134-0.402L586.939,161.068z M592.6,79.421c0.045,0.846-0.546,1.302-1.767,1.365l0.094,1.834l0.706-0.036l1.769-1.365
		l1.834-0.096l0.036,0.706c-0.337,0.774-0.493,1.394-0.469,1.863c1.843-0.849,2.786-1.747,2.831-2.694l-0.058-1.129l-1.099,0.623
		C595.722,80.533,594.43,80.175,592.6,79.421z M591.507,93.768l1.307,0.641l-0.103-1.976
		C591.873,92.665,591.473,93.11,591.507,93.768z M593.473,96.212l0.065,1.271c0.94-0.05,1.545-1.117,1.815-3.208
		C594.694,94.309,594.066,94.957,593.473,96.212z M594.946,159.944l1.271-0.065l0.065,1.269l-2.54,0.132
		C593.886,160.424,594.287,159.979,594.946,159.944z M612.261,62.978l0.094,1.834c0.045,0.846-0.356,1.291-1.204,1.336l-0.63-1.24
		C610.492,64.343,611.07,63.701,612.261,62.978z M620.009,127.658c0.034,0.659-0.916,2.36-2.848,5.1l0.565-0.029
		c0.656-0.034,1.618-1.5,2.884-4.395l-0.038-0.706L620.009,127.658z M641.326,96.837c-2.567,3.247-3.843,6.804-3.831,10.67
		c0.514,0.822,0.781,1.423,0.802,1.798c-2.908,3.924-5.133,9.228-6.672,15.909c-3.627,6.414-6.76,9.69-9.392,9.827
		c-1.963,2.177-2.901,4.066-2.819,5.664l0.038,0.706c0.846-0.045,2.108,0.694,3.794,2.208l1.834-0.094
		c6.112-0.319,12.328-8.705,18.64-25.164c1.305-5.727,1.903-9.671,1.79-11.836l-0.065-1.269
		C645.145,99.517,643.771,96.71,641.326,96.837z M621.153,125.193c0.021,0.377-0.183,1-0.61,1.87l0.706-0.036
		c0.752-0.039,1.106-0.483,1.064-1.329l-0.029-0.565L621.153,125.193z M629.488,108.63l0.096,1.834l0.706-0.036
		c2.564-5.133,4.574-10,6.032-14.604c0.375-0.021,0.555-0.218,0.536-0.594l-0.067-1.269
		C634.777,96.991,632.343,101.881,629.488,108.63z"/>
	<path fill="#FFFFFF" d="M704.776,26.905l0.99-0.033l3.448,1.728c0.009,0.283,0.875,2.375,2.605,6.279
		c-2.317,7.142-4.828,14.15-7.527,21.021l-1.802,5.571l0.629,1.959c-0.848,0.027-1.615,1.089-2.302,3.184l-0.563,0.017l0.036,1.13
		c2.184-2.425,3.417-3.644,3.699-3.653c0.009,0.283,0.202,0.418,0.579,0.406c0.027,0.848-0.998,2.718-3.072,5.612l0.014,0.423
		l0.848-0.027l5.114-8.08l-1.978,0.063c0.437-1.05,0.891-1.582,1.363-1.598l0.563-0.019c0.034,1.038,0.332,1.545,0.897,1.526
		c5.246-6.857,12.733-14.402,22.46-22.629c1.935-1.382,3.372-2.088,4.316-2.119l1.052,1.946l1.115-0.459
		c2.071-0.067,5.547,4.016,10.43,12.247l1.411-0.045c-0.017-0.565,1.117-1.92,3.405-4.068c2.288-2.052,3.638-4.074,4.047-6.066
		c0.937-0.123,2.315-1.206,4.138-3.244c3.338-1.708,5.477-2.578,6.419-2.608c3.818,1.574,5.754,3.117,5.802,4.621
		c0.688,3.843,2.084,7.709,4.187,11.6c0.051,1.601,0.303,3.573,0.755,5.914c-0.253,3.872-1.142,7.012-2.668,9.414
		c-1.182,1.36-2.103,2.047-2.761,2.069l0.45,0.832c-0.803,10.204-2.572,15.35-5.301,15.438c0.012,0.377-0.303,0.906-0.94,1.584
		l0.014,0.425l0.976-0.456l1.129-0.036l0.063,1.976c-0.915,0.879-1.559,2.831-1.932,5.859c-1.307,3.341-2.769,6.261-4.386,8.764
		l0.861,0.396l-2.415,4.037l0.629,1.958c-1.226,0.039-2.766,6.357-4.624,18.95c-1.189,1.168-1.762,2.367-1.723,3.59l0.05,1.553
		l0.846-0.027c0.754-0.024,1.829-1.755,3.227-5.193c0.375-0.012,1.105-0.834,2.184-2.473l1.142,0.387
		c0.557-0.3,1.022-0.456,1.399-0.468l-0.009-0.283l-0.565,0.017c-0.558,0.209-1.028,0.315-1.403,0.327l-0.024-0.706
		c3.785-2.475,5.64-4.891,5.564-7.246l0.988-0.031l0.038,1.129c1.557-1.368,2.665-2.064,3.326-2.084l-0.024-0.707l-1.411,0.046
		l-0.027-0.848c1.788-0.057,3.013-1.511,3.677-4.359c1.13-0.036,2.393-1.773,3.792-5.21c-0.033-1.036,1.49-2.028,4.569-2.975
		c-0.009-0.283,1.391-2.165,4.203-5.647l0.563-0.019l0.055,1.696c-1.487,3.629-3.449,7.085-5.888,10.367
		c0.298,0.462,0.45,0.832,0.459,1.115c-0.942,0.031-2.146,2.144-3.614,6.337c-2.091,2.423-3.972,5.499-5.641,9.228l1.142,0.387
		l0.848-0.027c-0.041-1.317,0.909-2.524,2.853-3.626l-0.027-0.846l1.413-0.046l0.012,0.425c-1.142,2.581-2.55,4.229-4.223,4.941
		c-0.772,2.382-2.615,5.172-5.528,8.377c-2.178,2.613-3.382,4.727-3.614,6.335c-1.13,0.036-2.86,1.93-5.189,5.679l0.591,0.831
		c0.015,0.471-0.308,0.716-0.966,0.736c-0.574-0.264-1.238-0.384-1.99-0.36l0.014,0.423l0.45,0.834
		c0.06,1.884-2.622,3.525-8.041,4.922c-0.298-0.461-0.456-0.974-0.474-1.54l-2.528,0.505c-5.832-2.545-8.777-4.807-8.841-6.785
		c0.356-0.577,0.988-2.951,1.892-7.128l-0.593-0.831c0.973-4.929,1.976-7.414,3.014-7.447l-0.041-1.271
		c-0.027-0.848,0.906-2.574,2.802-5.179l-0.014-0.423l-0.988,0.031l-0.009-0.283c0.94-0.029,2.009-3.504,3.201-10.421l3.501-9.867
		c-0.392-0.459-0.593-0.829-0.601-1.111c1.896-2.605,2.805-5.131,2.727-7.58c1.517-2.593,2.977-7.068,4.376-13.429
		c1.183-1.26,2.357-5.871,3.516-13.824c1.505-0.048,2.5-2.858,2.982-8.436l-0.587-0.687c0.726-0.872,1.082-1.541,1.067-2.014
		l-1.44-0.802c0.012,0.377-1.423,1.225-4.3,2.54c-1.471,1.178-2.415,2.622-2.829,4.331c-0.521,1.432-1.463,2.923-2.826,4.473
		l-8.663,12.011l-2.31,2.901c0.044,1.413-1.384,2.495-4.28,3.247l0.615,1.535c-1.641,4.672-2.742,7.065-3.304,7.174l0.587,0.688
		c-0.394,2.464-1.574,5.376-3.538,8.736c-1.94,7.13-3.946,10.73-6.015,10.795l0.014,0.425c0.939-0.031,1.42,0.236,1.439,0.802
		c-1.29,0.985-1.892,2.699-1.814,5.146l0.099,3.107c0.012,0.378-0.401,0.769-1.235,1.171c-0.007-0.188-0.199-0.277-0.574-0.265
		l0.135,4.237c0.053,1.696-0.889,3.187-2.826,4.473l0.072,2.259l0.988-0.031l0.041,1.271c-1.225,0.039-1.824,0.435-1.8,1.189
		c0.204,0.466,0.315,0.98,0.332,1.543c-0.933,0.313-1.742,2.978-2.43,7.995c-1.129,0.036-1.649,1.468-1.559,4.292l0.05,1.553
		c0.012,0.377-0.399,0.767-1.235,1.17l-0.565,0.019c-0.565,0.017-0.855-0.207-0.87-0.68l-1.117,0.461l-1.411,0.045
		c-0.788-1.01-1.745-1.499-2.874-1.463c-0.473,0.015-1.637-1.031-3.494-3.139l-0.036-1.13c1.245-2.302,4.074-14.03,8.486-35.19
		c0.471-0.014,1.163-3.429,2.076-10.243c1.574-6.741,2.896-11.12,3.961-13.132c-0.392-0.459-0.591-0.829-0.601-1.112l3.256-8.728
		l-0.565,0.017c-2.036,1.197-5.869,6.549-11.502,16.059c-0.565,0.019-1.817,2.132-3.756,6.34c-1.033,0.128-3.446,4.259-7.236,12.389
		c-2.877,1.413-5.653,5.977-8.327,13.696c-1.123,0.226-2.942,3.819-5.451,10.778l-0.988,0.031l-0.014-0.423
		c-0.021-0.658,0.702-3.038,2.175-7.138c-0.918,0.786-2.692,4.235-5.325,10.349c0.298,0.462,0.452,0.834,0.461,1.117
		c-1.13,0.036-2.005,3.598-2.627,10.685c-0.985,1.636-1.759,2.459-2.324,2.478l-1.976,0.063c-2.453-3.031-5.184-4.499-8.198-4.403
		c-0.724-2.048-2.077-3.043-4.054-2.98l-0.055-1.696c-0.005-0.187,0.132-0.286,0.414-0.295c-0.978-1.194-1.476-1.978-1.488-2.357
		c1.911-2.132,4.222-9.416,6.934-21.85c0.565-0.019,1.183-1.31,1.855-3.877c0.913-0.969,1.812-3.78,2.699-8.426
		c0.558-0.206,1.493-1.932,2.804-5.179l-0.639-2.242c2.021-4.588,3.22-6.888,3.596-6.9l-0.587-0.688
		c0.726-0.87,1.077-1.682,1.053-2.437l-0.629-1.958c1.115-0.507,1.889-1.284,2.329-2.338c-0.298-0.461-0.456-0.974-0.474-1.54
		c-0.021-0.658,0.577-1.1,1.797-1.329l-0.01-0.283l-0.887-1.243c1.317-0.043,2.235-2.285,2.752-6.732
		c0.606-1.622,1.242-2.444,1.901-2.464l-0.615-1.535l0.502-1.995c-0.377,0.012-0.569-0.075-0.574-0.265
		c0.469-0.015,1.202-2.158,2.197-6.431c0.829-0.593,1.437-2.166,1.827-4.723c1.716-2.317,3.019-5.751,3.912-10.303
		c0.375-0.012,1.254-2.019,2.634-6.022c-0.204-0.464-0.31-0.839-0.319-1.122c1.002-1.067,2.613-5.172,4.836-12.312
		C703.083,28.513,704.305,26.92,704.776,26.905z M689.775,101.459l1.553-0.05l-0.036-1.129
		C690.819,100.295,690.316,100.689,689.775,101.459z M700.816,84.283l0.01,0.283l0.565-0.017c2.146-0.634,3.213-1.185,3.198-1.658
		l-1.413,0.045C702.167,83.818,701.381,84.266,700.816,84.283z M701.989,76.755c1.567-1.086,2.867-1.648,3.905-1.68l-1.024-1.098
		c0.658-0.022,0.98-0.315,0.961-0.88l-0.014-0.423C703.205,73.513,701.929,74.872,701.989,76.755z M705.745,70.414l0.423-0.014
		l2.387-0.5l-0.014-0.425c-0.586-0.639-0.885-1.149-0.897-1.526C706.334,68.275,705.702,69.097,705.745,70.414z M708.139,74.578
		c-0.829,0.593-1.24,0.983-1.235,1.171l1.271-0.041c-0.024-0.752,0.812-1.158,2.507-1.211l-0.014-0.425
		C708.973,74.127,708.131,74.295,708.139,74.578z M707.043,66.838l0.858,0.255l1.129-0.036c0.738-0.495,1.341-0.75,1.814-0.766
		l-0.041-1.271C708.273,65.48,707.019,66.087,707.043,66.838z M714.197,60.671l0.014,0.425c0.471-0.015,0.927-0.454,1.372-1.317
		l-0.009-0.283C715.101,59.512,714.644,59.904,714.197,60.671z M715.024,86.515l0.014,0.425l0.283-0.01
		c-0.015-0.469,0.529-1.147,1.632-2.031l-0.014-0.423C716.187,84.593,715.55,85.275,715.024,86.515z M716.91,57.051
		c0.024,0.755-0.437,1.146-1.377,1.175l0.014,0.425l1.836-0.06l0.516-1.57L716.91,57.051z M716.026,55.948l1.293,0.666
		c1.199-0.791,2.315-1.206,3.353-1.238l-0.091-2.824l0.543-0.724l-0.988,0.031C719.571,51.877,718.201,53.242,716.026,55.948z
		 M726.61,46.563c0.009,0.283-0.074,0.663-0.247,1.139l0.014,0.423l0.283-0.009c-0.009-0.283,0.166-0.663,0.529-1.147l-0.014-0.425
		L726.61,46.563z M729.583,104.145c0.026,0.754-0.152,1.135-0.527,1.147c0.39,0.461,0.591,0.829,0.601,1.112
		c0.658-0.021,0.981-0.265,0.966-0.738c-0.01-0.283-0.204-0.418-0.579-0.406l0.538-0.865l-0.009-0.283L729.583,104.145z
		 M734.682,69.063l0.014,0.425c0.658-0.021,0.98-0.315,0.961-0.879l-0.014-0.425C734.987,68.301,734.666,68.594,734.682,69.063z
		 M736.235,86.685l0.009,0.283l0.988-0.031c-0.009-0.283,0.122-0.663,0.389-1.144l-0.425,0.014
		C736.54,85.922,736.22,86.215,736.235,86.685z M767.265,133.049l-1.04,2.86c0.743-0.307,1.257-0.464,1.54-0.473l-0.45-0.834
		l-0.024-0.706l0.848-0.027l-0.027-0.848L767.265,133.049z M769.592,130.713l0.022,0.706c1.012-0.786,1.8-1.189,2.365-1.206
		l-0.036-1.13l-0.565,0.017C771.002,129.113,770.407,129.651,769.592,130.713z M773.213,80.413l0.988-0.033l0.06,1.836
		c-0.639,0.682-0.951,1.257-0.935,1.726l-0.846,0.027l0.396-0.861l-0.45-0.834C772.963,81.41,773.225,80.79,773.213,80.413z
		 M774.315,114.869l1.002,0.392c-0.041-1.317,0.784-2.004,2.48-2.059l-0.05-1.553C776.617,111.686,775.471,112.761,774.315,114.869z
		 M779.294,120.223l0.587,0.688l0.014,0.425l-0.565,0.017c-0.565,0.019-0.856-0.255-0.875-0.82L779.294,120.223z"/>
	<path fill="#FFFFFF" d="M759.827,221.654c1.053,0.925,1.86,1.386,2.423,1.375c0.01,0.659-0.875,1.19-2.66,1.596l-0.581-0.98
		l-0.015-0.99C759.08,221.995,759.357,221.661,759.827,221.654z M760.316,216.701c0.565-0.009,0.855,0.457,0.868,1.399l0.99-0.015
		c-0.015-0.942,0.26-1.416,0.826-1.425l2.261-0.036l0.007,0.425c-0.635,1.516-1.235,2.372-1.798,2.571l-2.261,0.036
		c0.021,1.317-0.252,1.982-0.817,1.99l-0.581-0.98C760.161,218.775,760.328,217.453,760.316,216.701z M811.805,18.921l0.988-0.015
		c2.49,2.694,4.376,5.82,5.657,9.38c1.788-0.027,2.706,1.466,2.754,4.479c0.762,0.649,2.463,3.919,5.097,9.813l-0.968,1.428
		l0.01,0.565l0.988-0.015c1.867-1.065,4.241-2.939,7.119-5.621l-0.848,0.012l-2.393,0.603l-0.024-1.555
		c2.824-0.135,5.866-1.314,9.13-3.531l0.855,0.411c3.85-0.718,6.1-1.413,6.751-2.083l0.423-0.007
		c0.659,0.084,0.995,0.408,1.005,0.973c-5.628,1.596-8.628,2.631-8.997,3.107c4.23-0.536,6.907-1.046,8.031-1.536l1.843,0.394
		l2.679-0.464l-0.44-0.983l-0.009-0.565l0.425-0.007c7.02,3.283,10.557,6.527,10.606,9.728c1.046,0.644,3.177,4.427,6.393,11.348
		c1.834,2.987,4.386,9.449,7.649,19.382c-1.187,2.562-1.766,4.691-1.738,6.386l0.009,0.565c0.012,0.755,0.163,1.411,0.454,1.971
		c-0.459,0.855-0.827,4.489-1.103,10.898l-1.93,3.139c0.012,0.755,0.209,1.409,0.596,1.97c-0.903,2.651-3.098,6.83-6.59,12.536
		c0.039,2.451-7.092,10.521-21.387,24.212c-4.11,2.324-9.166,4.381-15.165,6.169c0.015,0.944-1.204,1.432-3.651,1.469l0.438,0.983
		l0.01,0.565c-0.848,0.014-2.351,0.368-4.506,1.058c-0.661,0.01-1.228-0.168-1.704-0.538c-4.867,2.148-7.722,3.227-8.57,3.24
		c-1.499,0.589-2.288,1.403-2.365,2.439c-7.707,1.158-12.173,1.743-13.396,1.762c-2.826,0.043-5.107-1.24-6.842-3.852l-0.01-0.565
		c0.536-1.987,1.884-2.997,4.052-3.03c0.474,0.276,1.088,0.408,1.843,0.396c0.188-0.003,0.281-0.146,0.276-0.428l2.408,0.387
		l1.695-0.027l-0.007-0.423c-0.754,0.012-1.512-0.307-2.274-0.954l-2.12,0.033l-4.655,0.495l-0.438-0.981
		c0.283-0.005,0.421-0.149,0.416-0.432c-0.567-0.084-1.757-0.913-3.571-2.487c0.015,1.036-0.587,1.562-1.812,1.582l0.438,0.981
		l0.038,2.401c0.01,0.661-0.267,0.993-0.832,1.004c-0.384-0.466-0.586-1.264-0.603-2.394l-0.283,0.005
		c0.007,0.377-0.175,0.849-0.543,1.421l0.605,2.535c-0.656,0.104-0.983,0.438-0.974,1.004c0.283-0.005,0.426,0.183,0.433,0.558
		c-0.563,0.104-0.841,0.437-0.832,1.002c0.291,0.562,0.442,1.219,0.454,1.971c-0.94,0.015-1.677,1.156-2.208,3.425l0.469,2.961
		l-4.396,8.123l0.618,3.381c-0.469,0.103-1.067,0.959-1.798,2.572l0.471,2.959c-0.377,0.005-1.118,0.865-2.221,2.578l0.868,1.401
		c-0.534,1.987-1.084,2.983-1.649,2.992l0.298,0.985l0.024,1.553c0.017,1.036-0.541,1.564-1.672,1.581l0.44,0.983l0.007,0.423
		c-0.928,0.863-1.463,2.85-1.605,5.96c0.478,0.368,0.906,0.551,1.281,0.546l0.007,0.423c-1.13,0.017-2.317,2.389-3.564,7.121
		l-2.261,0.034l0.007,0.425c1.507-0.024,2.264,0.293,2.274,0.954l0.024,1.553c0.01,0.658-0.454,0.997-1.398,1.01l-0.856-0.551
		l-0.423,0.007l0.009,0.565c0.473-0.009,1.089,0.312,1.851,0.959c0.021,1.319-0.863,1.992-2.653,2.021l0.015,0.988
		c1.225-0.019,1.851,0.961,1.882,2.939l0.009,0.565c0.01,0.658-0.313,0.993-0.974,1.004c-0.565,0.009-0.851-0.319-0.861-0.976
		l0.408-0.995l-0.988,0.015c0.014,0.94-0.262,1.416-0.826,1.425l-1.288-0.968l-0.565,0.009l0.015,0.988
		c-0.565,0.009-0.853-0.319-0.863-0.976c0.379-0.005,0.841-0.485,1.391-1.433l-0.009-0.565l-0.988,0.015l1.805-2.007l-0.039-2.543
		c0.565-0.009,0.843-0.344,0.832-1.002l-0.014-0.988c-0.942,0.014-1.418-0.31-1.428-0.968l-0.015-0.988
		c0.377-0.007,0.844-0.154,1.406-0.447l-0.44-0.981l-0.045-2.966c-0.012-0.755,0.454-1.139,1.394-1.153l-1.01-1.398l-0.009-0.565
		l2.23-2.012l-0.031-1.978c-0.012-0.755-0.163-1.411-0.454-1.971l1.226-2.987c-0.199-0.658-0.301-1.175-0.307-1.55l1.255-1.009
		l-0.461-2.394l-0.009-0.565c-0.017-1.038,1.481-1.719,4.491-2.048l-0.015-0.988l-2.394,0.601l-0.296-0.985l-0.046-2.966
		c-0.021-1.317,0.961-5.006,2.937-11.067c1.13-6.14,2.672-13.134,4.622-20.985c0.473-5.943,1.182-8.921,2.122-8.937l-0.454-1.971
		c1.69-6.431,2.86-10.123,3.502-11.076l-0.046-2.966l-0.601-2.393l0.98-0.581l0.856,0.551l-0.031-1.978l-0.462-2.536
		c0.659-0.01,1.25-1.338,1.774-3.984l-0.579-0.981c0.642-1.139,0.957-1.992,0.949-2.557c-0.283,0.003-0.426-0.135-0.43-0.418
		c0.659-0.01,1.387-1.668,2.184-4.979c-0.005-0.377-0.156-0.892-0.449-1.548c0.236-3.018,1.216-6.66,2.941-10.927
		c-0.659,0.01-0.993-0.313-1.004-0.973l-0.024-1.555l0.988-0.015l-0.015-0.988l-0.438-0.983l1.79-2.995l0.283-0.003l-0.024-1.555
		c1.48-7.84,3.931-16.827,7.356-26.962c-0.024-1.6,1.093-5.432,3.355-11.497c2.504-8.611,4.129-13.112,4.879-13.501l4.513-0.493
		c0.005,0.283,0.149,0.421,0.432,0.418l-0.461-2.396C810.88,20.113,811.427,18.926,811.805,18.921z M768.006,193.125l0.015,0.988
		l0.423-0.007c0.565-0.009,0.843-0.343,0.832-1.002L768.006,193.125z M778.308,155.659l0.015,0.99l1.695-0.027
		c-0.01-0.658-0.298-0.983-0.863-0.974L778.308,155.659z M784.598,151.182l0.423-0.007c-0.634,1.517-1.235,2.329-1.8,2.43
		l-0.005-0.425C783.668,151.857,784.127,151.189,784.598,151.182z M839.313,70.779c-0.565,0.009-0.853-0.363-0.865-1.117
		c-3.285,0.897-7.287,3.977-12.011,9.229c-0.664-0.367-1.139-0.548-1.422-0.545c0.01,0.661-0.315,0.995-0.973,1.005l-0.283,0.003
		c-0.661,0.01-0.995-0.313-1.005-0.973l0.409-0.995c-3.34-2.68-5.023-4.962-5.052-6.847c-1.319,0.021-2.905,4.002-4.761,11.944
		c-0.565,0.009-1.01,1.711-1.334,5.107c-0.363,0.949-0.637,1.423-0.826,1.427c0.007,0.377,0.151,0.563,0.433,0.558
		c-0.247,2.36-1.547,6.666-3.9,12.92c0.017,1.036-0.389,2.22-1.216,3.55l-0.565,0.009l-0.015-0.988l-0.283,0.005l-4.54,7.983
		c-0.565,0.009-0.853-0.315-0.863-0.976l0.819-1.99c-0.584-1.214-0.887-2.53-0.909-3.942l-0.99,0.015
		c-0.325,3.304-1.194,4.963-2.607,4.985l0.015,0.988l0.581,0.981c-0.755,0.012-1.535,1.344-2.341,3.992l0.611,2.958
		c-1.028,0.676-1.776,1.017-2.245,1.024l0.009,0.565c0.94-0.014,1.418,0.31,1.428,0.968c-0.824,1.615-1.423,2.473-1.798,2.571
		c-0.387-0.651-0.586-1.308-0.596-1.968l-0.423,0.005l0.022,1.413c0.962,1.493,1.451,2.475,1.457,2.946l-2.339,3.992
		c0.659,0.086,0.995,0.409,1.004,0.974c-0.843,0.295-1.245,1.668-1.207,4.115l0.021,1.413l-0.563,0.009
		c-0.57-0.274-0.997-0.408-1.279-0.404l0.007,0.425c0.029,1.886,1.082,3.045,3.163,3.484c0.558-0.384,1.168-0.584,1.827-0.593
		l0.423-0.007l0.026,1.553l0.846-0.014l2.394-0.601c0.577,0.839,0.87,1.493,0.877,1.964l0.848-0.014
		c-0.017-1.13,1.007-1.944,3.072-2.449l-0.298-0.985c-0.012-0.752,0.733-1.283,2.235-1.589c0.104,0.659,0.39,0.983,0.863,0.976
		l0.99-0.015l-0.015-0.988l2.684-0.041c-0.014-0.942,0.26-1.418,0.826-1.427l0.855,0.411c-0.014-0.94,3.174-1.791,9.57-2.55
		c-0.009-0.565,0.545-1.281,1.661-2.146l0.998,0.55c-0.007-0.469,0.409-0.995,1.247-1.574l2.269,0.531
		c-0.019-1.223,1.192-2.089,3.634-2.6l-0.015-0.99l-2.252,0.601l-0.009-0.565c-0.01-0.754,0.593-1.233,1.815-1.442l-0.015-0.988
		l-0.848,0.014c0.01,0.659-0.175,0.992-0.55,0.997l-0.856-0.551c-4.681,2.05-7.866,3.088-9.56,3.115l-0.015-0.99
		c0.94-0.014,3.239-0.707,6.892-2.084c-0.007-0.471-0.488-0.933-1.435-1.391c-3.848,1.002-6.237,1.841-7.167,2.512l-0.565,0.009
		l-0.007-0.423l0.964-1.569l-0.005-0.425l-2.269-0.531c0.015,1.038-0.259,1.559-0.824,1.569l-0.581-0.981l-0.015-0.988l2.252-0.601
		c1.701,0.353,3.067,0.519,4.105,0.502l0.409-0.995c-1.896-0.629-3.406-0.937-4.537-0.918l-2.238,1.447l-0.425,0.007
		c-0.283,0.003-0.425-0.135-0.43-0.418c-2.81,0.986-4.453,1.481-4.922,1.49l-0.007-0.425c-0.007-0.469,5.51-3.052,16.554-7.745
		c4.86-2.336,8.123-4.694,9.783-7.077l-0.425,0.007c-2.235,1.637-3.872,2.463-4.907,2.478l-0.425,0.007l-0.005-0.425l5.313-3.614
		l1.428,0.966l0.425-0.005l-0.464-2.536l1.398-1.012c0.572,0.37,0.998,0.551,1.281,0.546c-0.007-0.375,0.132-0.567,0.414-0.572
		l-0.438-0.981c2.978-2.307,4.46-3.978,4.444-5.015c3.605-4.388,7.018-9.058,10.24-14.008c3.456-7.967,5.169-12.985,5.138-15.058
		l1.185-5.53l-0.438-0.981c0.272-0.663,0.406-1.137,0.403-1.42l-0.856-0.551C851.668,62.533,845.821,65.309,839.313,70.779z
		 M791.995,136.089l1.413-0.022l0.015,0.99l-1.413,0.021L791.995,136.089z M792.358,132.126l1.413-0.021l0.021,1.413
		c0.012,0.754-0.264,1.134-0.829,1.142l-0.565,0.009l-0.009-0.565c0.365-0.663,0.546-1.185,0.541-1.562
		C792.552,132.547,792.362,132.408,792.358,132.126z M794.689,127.569l0.298,0.985l-0.839,0.579l-0.438-0.983L794.689,127.569z
		 M796.385,127.543l0.425-0.007l0.015,0.988l-1.273,0.021C795.634,127.885,795.912,127.55,796.385,127.543z M797.988,148.997
		l0.007,0.423l2.826-0.043c0.56-0.291,1.029-0.44,1.406-0.445l-0.015-0.99C801.091,148.62,799.683,148.97,797.988,148.997z
		 M798.267,130.48l3.108-0.048l0.015,0.99c0.01,0.659-0.267,0.993-0.832,1.002c-0.01-0.658-0.771-0.978-2.276-0.954L798.267,130.48z
		 M798.423,140.511l1.271-0.019l0.015,0.988l-1.271,0.021L798.423,140.511z M799.659,101.632l0.438,0.981l0.009,0.565l-0.387,2.41
		l0.848-0.014c-0.024-1.601,0.293-2.406,0.952-2.417l-0.581-0.981c0.807-2.648,1.398-3.978,1.776-3.984l-0.44-0.983l0.409-0.995
		l-0.998-0.55C801.308,95.672,800.632,97.661,799.659,101.632z M811.536,138.754l0.01,0.565l0.438,0.983l-1.398,1.01l-0.848,0.014
		l-0.015-0.99l-0.565,0.009l0.031,1.978l-1.696,0.027l-0.015-0.99l-2.254,0.459l0.44,0.983c-1.499,0.683-2.578,1.028-3.235,1.038
		c-0.003-0.283-0.101-0.421-0.289-0.42c0.021,1.32-0.767,2.132-2.363,2.439l0.015,0.99c3.759-0.433,6.008-1.271,6.744-2.507
		l2.401-0.036c-0.009-0.565,2.187-1.589,6.594-3.071l-0.009-0.565c-1.695,0.027-2.735-0.098-3.115-0.375l0.409-0.995l-0.009-0.565
		L811.536,138.754z M801.661,94.112l0.01,0.565l0.988-0.015l0.37-3.538C802.093,91.516,801.637,92.511,801.661,94.112z
		 M806.414,136.431c0.007,0.473-0.409,0.949-1.25,1.432l-1.836,0.029l-0.015-0.99L806.414,136.431z M804.694,107.49l0.99-0.015
		c0.567,0.182,0.855,0.505,0.863,0.976c-0.565,0.009-0.841,0.531-0.824,1.567l-0.99,0.015L804.694,107.49z M806.388,98.137
		c0.003,0.283-0.178,0.757-0.545,1.421l0.99-0.015l-0.022-1.413L806.388,98.137z M807.563,146.73l0.009,0.565l1.695-0.027
		c5.619-2.064,8.947-3.105,9.985-3.12l-0.009-0.565l-1.695,0.026C814.83,144.686,811.504,145.728,807.563,146.73z M814.199,137.3
		c0.577,0.747,0.87,1.399,0.879,1.964l0.423-0.005c0.658-0.01,0.985-0.344,0.974-1.005c-0.473,0.007-1.089-0.312-1.853-0.961
		L814.199,137.3z M817.455,137.673l0.009,0.565l0.283-0.003c0.653-0.385,1.122-0.582,1.404-0.587l-0.007-0.423l-0.423,0.005
		C818.065,137.522,817.643,137.671,817.455,137.673z M818.226,132.715l1.838-0.027l0.007,0.423c0.01,0.755-0.315,1.135-0.973,1.146
		l-0.848,0.014L818.226,132.715z M818.342,140.203l0.423-0.005c0.565-0.009,0.843-0.343,0.832-1.002l-0.423,0.005
		C818.611,139.305,818.334,139.639,818.342,140.203z M820.649,115.721l0.848-0.012c0.012,0.848-1.017,1.382-3.084,1.601
		l-0.015-0.988L820.649,115.721z M821.142,120.235l0.015,0.99l2.261-0.036l-0.015-0.988L821.142,120.235z M824.3,114.251l0.015,0.99
		c-0.283,0.003-1.223,0.159-2.819,0.468C821.487,115.051,822.42,114.563,824.3,114.251z M823.98,130.083l0.565-0.009l0.009,0.565
		c0.01,0.661-0.317,0.995-0.974,1.005l-0.423,0.005l-0.009-0.565C823.138,130.427,823.415,130.091,823.98,130.083z M823.641,135.599
		l-0.409,0.997l1.413-0.022C824.634,135.916,824.299,135.589,823.641,135.599z M832.237,134.054
		c-0.005-0.375-0.199-0.563-0.574-0.557c0.007,0.473-2.656,1.831-7.991,4.079l0.009,0.565l0.995,0.409
		c3.083-1.649,4.859-2.478,5.331-2.485l0.007,0.423c2.622-0.887,5.564-2.581,8.823-5.081l-0.015-0.99l-0.283,0.005
		C834.713,132.838,832.612,134.047,832.237,134.054z M828.534,123.088l0.009,0.565l1.702,0.397l-0.007-0.423l-0.438-0.983
		C829.144,122.938,828.723,123.087,828.534,123.088z M835.119,119.454c0.007,0.378-0.127,0.899-0.399,1.56l0.988-0.015l-0.024-1.553
		L835.119,119.454z M835.205,124.964l0.848-0.012c4.845-3.372,7.267-5.246,7.262-5.624l-0.007-0.423l-1.413,0.021L835.205,124.964z
		 M835.967,119.44l0.009,0.565c0.377-0.005,0.851,0.128,1.42,0.402l-0.015-0.988L835.967,119.44z M844.14,117.902l0.425-0.007
		c1.769-1.158,2.653-2.019,2.644-2.584l-0.283,0.003C845.059,116.57,844.133,117.431,844.14,117.902z M845.431,109.968l-0.409,0.997
		c0.567,0.086,0.855,0.411,0.863,0.974c0.652-0.385,1.072-0.581,1.262-0.584l-0.015-0.988L845.431,109.968z M847.065,124.357
		l0.855,0.409c0.445-1.606,1.141-2.418,2.083-2.434l-0.015-0.988C848.029,122.694,847.056,123.7,847.065,124.357z M848.522,108.932
		l1.272-0.021l-0.024-1.553C849.392,107.363,848.978,107.889,848.522,108.932z M849.802,127.706l0.024,1.555
		c0.565-0.009,0.843-0.343,0.832-1.002L849.802,127.706z M851.925,118.771l0.007,0.423c0.375-0.005,0.791-0.481,1.248-1.432
		l-0.423,0.007C852.194,117.872,851.917,118.206,851.925,118.771z M852.602,107.738l0.024,1.553l0.99-0.014
		c-0.007-0.471,0.265-1.135,0.817-1.992l-0.565,0.009C853.307,107.586,852.884,107.735,852.602,107.738z M853.761,100.372
		c0.103,0.659,0.438,0.983,1.004,0.974l0.408-0.997L853.761,100.372z M857.611,111.759l0.853,0.409l-0.021-1.411
		C857.878,110.86,857.601,111.194,857.611,111.759z"/>
</g>
<g>
	<path fill="#FFFFFF" d="M526.994,212.771c-2.315-3.281-3.473-6.755-3.473-10.421c0-7.334,5.564-11,16.693-11
		c2.379,0,4.92,0.194,7.623,0.579c2.958,0.387,5.628,1.416,8.008,3.088c2.703,1.802,4.374,3.956,5.018,6.465
		c0.32,1.288,0.481,2.542,0.481,3.763c0,2.959-0.901,6.112-2.701,9.457c-0.903,1.673-2.766,4.503-5.597,8.491
		c1.351,0.385,4.535,0.771,9.553,1.158c4.052,0.322,6.914,1.06,8.587,2.218c2.509,1.675,3.698,4.6,3.571,8.781
		c-0.13,5.921-4.117,8.878-11.964,8.878c-0.903,0-2.141-0.034-3.716-0.098c-1.576-0.065-2.718-0.096-3.425-0.096
		c-1.158,0-3.264,0.08-6.32,0.241c-3.055,0.159-5.421,0.241-7.092,0.241c-7.977,0-13.348-1.608-16.114-4.825
		c-1.802-2.124-2.701-4.278-2.701-6.465c0-1.93,0.772-3.956,2.315-6.078c0.964-1.286,2.653-3.138,5.066-5.549
		c2.411-2.413,4.035-4.198,4.872-5.355c-3.088-0.642-4.696-0.997-4.825-1.062C529.052,214.668,527.766,213.865,526.994,212.771z"/>
	<path fill="#FFFFFF" d="M626.253,212.771c0.192,7.719-2.446,14.604-7.912,20.649c-5.468,6.047-12.095,9.296-19.877,9.745
		c-1.223,0.065-2.35,0.096-3.377,0.096c-4.824,0-8.428-0.868-10.807-2.605c-2.768-2.059-4.407-5.563-4.92-10.517
		c-0.194-1.351-0.291-2.733-0.291-4.15c0-8.104,1.993-15.438,5.984-21.999c4.437-7.397,10.355-11.708,17.753-12.93
		c1.286-0.255,2.572-0.385,3.86-0.385c5.789,0,10.452,2.108,13.991,6.32C624.193,201.209,626.059,206.466,626.253,212.771z
		 M601.075,220.585c4.241-2.636,6.361-5.659,6.361-9.07c0-0.706-0.065-1.447-0.195-2.218c-4.437,1.286-6.655,3.956-6.655,8.008
		C600.586,218.335,600.748,219.428,601.075,220.585z"/>
	<path fill="#FFFFFF" d="M633.035,214.507c-1.48-2.059-2.22-4.15-2.22-6.272c0-4.374,2.477-7.493,7.429-9.36
		c4.503-1.93,8.974-3.826,13.413-5.693c5.53-2.25,10.324-3.537,14.376-3.86c3.924-0.32,6.818,0.259,8.685,1.737
		c0.772,0.644,1.158,1.351,1.158,2.124c0,0.516-0.226,1.223-0.675,2.122c-0.452,0.903-0.903,1.802-1.351,2.703
		c-0.45,0.901-2.478,6.691-6.08,17.368c-1.673,4.825-3.699,11.482-6.078,19.973c-1.543,5.277-2.864,8.974-3.956,11.096
		c-2.122,3.924-4.696,5.886-7.719,5.886c-1.481,0-3.088-0.45-4.824-1.351c-3.925-2.059-5.886-5.467-5.886-10.228
		c0-2.701,0.868-7.171,2.605-13.412c1.737-6.046,2.542-10.324,2.413-12.833c-3.153,1.737-5.438,2.605-6.851,2.605
		C635.737,217.112,634.256,216.244,633.035,214.507z"/>
	<path fill="#FFFFFF" d="M685.245,188.455c-0.387-4.246,2.122-7.525,7.525-9.841c4.309-1.865,9.423-2.798,15.342-2.798
		c2.25,0,4.181,0.161,5.789,0.481c4.568,0.903,8.073,2.703,10.519,5.403c2.636,2.896,3.763,6.595,3.376,11.098
		c-0.192,2.572-0.771,5.436-1.737,8.587c-0.901,2.637-1.769,5.275-2.605,7.912v0.868l-0.868,0.868v0.868
		c0,1.543,0.483,2.637,1.447,3.28c1.415,0.903,2.379,1.834,2.894,2.798c0.579,1.158,0.868,2.381,0.868,3.667
		c0,3.473-2.122,7.429-6.368,11.869c-1.867,1.995-5.244,4.92-10.132,8.781c-3.088,2.509-6.818,4.792-11.192,6.851
		c-5.468,2.637-10.069,3.956-13.799,3.956c-3.216,0-5.595-0.998-7.14-2.992c-2.894-3.795-4.342-7.525-4.342-11.192
		c0-3.86,2.026-5.917,6.078-6.176c14.152-0.834,21.966-5.467,23.448-13.895c-7.784,0-12.417-2.315-13.895-6.946
		c-0.45-1.415-0.675-2.766-0.675-4.052c0-2.252,0.771-4.472,2.315-6.659c0.771-1.093,2.54-3.023,5.306-5.789
		c-2.572-0.45-5.146-0.932-7.719-1.447C686.981,193.055,685.5,191.222,685.245,188.455z"/>
</g>
</svg>
