<?xml version="1.0" encoding="utf-8"?>
<!-- Generator: Adobe Illustrator 17.0.0, SVG Export Plug-In . SVG Version: 6.00 Build 0)  -->
<!DOCTYPE svg PUBLIC "-//W3C//DTD SVG 1.1//EN" "http://www.w3.org/Graphics/SVG/1.1/DTD/svg11.dtd">
<svg version="1.1" xmlns="http://www.w3.org/2000/svg" xmlns:xlink="http://www.w3.org/1999/xlink" x="0px" y="0px" width="1300px"
	 height="700px" viewBox="0 0 1300 700" enable-background="new 0 0 1300 700" xml:space="preserve">
<g id="EXPLOSIONS" display="none">
	<defs>
		<rect id="SVGID_1_" width="1300" height="700"/>
	</defs>
	<clipPath id="SVGID_2_" display="inline">
		<use xlink:href="#SVGID_1_"  overflow="visible"/>
	</clipPath>
	<g display="inline" clip-path="url(#SVGID_2_)">
		
			<radialGradient id="SVGID_3_" cx="1282.7617" cy="-29.4393" r="518.8748" gradientTransform="matrix(1.0239 -0.3567 0.3759 0.9716 -1198.1176 1037.5044)" gradientUnits="userSpaceOnUse">
			<stop  offset="0" style="stop-color:#F5EA14"/>
			<stop  offset="1" style="stop-color:#F05A26"/>
		</radialGradient>
		<polygon fill="url(#SVGID_3_)" points="318.913,327.74 206.197,473.819 316.379,437.082 226.709,506.15 415.476,493.688 
			236.79,542.654 344.582,560.137 235.623,580.372 399.56,632.688 223.304,616.249 296.279,679.542 200.835,647.386 
			311.703,810.923 170.029,671.245 206.543,801.988 133.383,685.913 125.104,766.097 93.874,690.179 39.536,860.173 54.692,683.716 
			4.544,740.783 19.023,667.041 -29.846,693.717 -10.253,641.5 -141.424,694.409 -30.76,609.172 -99.255,616.769 -40.842,572.667 
			-220.03,564.956 -39.673,534.954 -143.866,501.961 -27.354,499.077 -132.559,407.822 -4.882,467.941 -78.737,352.26 
			25.924,444.074 -47.609,229.394 62.562,429.413 45.153,215.264 102.076,425.143 141.736,265.461 141.254,431.604 202.545,346.174 
			176.923,448.283 		"/>
		
			<radialGradient id="SVGID_4_" cx="1272.8274" cy="-26.7067" r="163.311" gradientTransform="matrix(1.0239 -0.3567 0.3759 0.9716 -1198.1176 1037.5044)" gradientUnits="userSpaceOnUse">
			<stop  offset="0" style="stop-color:#F1F1F1"/>
			<stop  offset="1" style="stop-color:#F5EA14"/>
		</radialGradient>
		<polygon fill="url(#SVGID_4_)" points="76.196,456.875 107.034,525.793 157.762,481.348 135.341,548.047 209.991,558.406 
			138.775,582.771 166.846,627.489 115.324,609.635 106.26,643.596 78.728,612.893 24.678,668.097 50.419,590.646 -2.752,577.861 
			46.984,555.913 -0.396,506.791 70.44,529.05 		"/>
	</g>
	<g display="inline" clip-path="url(#SVGID_2_)">
		
			<radialGradient id="SVGID_5_" cx="1586.1355" cy="273.5433" r="518.8748" gradientTransform="matrix(-0.5424 -0.9388 0.8839 -0.5514 1837.4075 2200.7361)" gradientUnits="userSpaceOnUse">
			<stop  offset="0" style="stop-color:#F5EA14"/>
			<stop  offset="1" style="stop-color:#F05A26"/>
		</radialGradient>
		<polygon fill="url(#SVGID_5_)" points="958.989,391.83 1123.614,475.152 1066.866,373.814 1151.525,448.94 1103.884,265.86 
			1185.491,432.193 1182.449,323.035 1222.758,426.266 1243.402,255.426 1260.309,431.638 1308.794,348.088 1295.108,447.869 
			1434.951,308.299 1324.32,473.654 1445.896,413.268 1345.6,506.898 1425.914,499.994 1357.2,544.907 1534.368,566.401 
			1358.2,584.605 1423.659,623.162 1348.51,622.769 1383.878,665.768 1328.913,656.316 1405.482,775.237 1301.004,682.521 
			1321.311,748.376 1267.037,699.271 1293.067,876.726 1229.775,705.195 1216.906,813.726 1192.223,699.823 1122.317,820.274 
			1157.426,683.588 1057.648,777.828 1128.205,657.805 931.124,770.293 1106.933,624.566 899.848,681.827 1095.329,586.554 
			931.042,577.543 1094.328,546.86 998.918,502.677 1104.021,508.695 		"/>
		
			<radialGradient id="SVGID_6_" cx="1576.201" cy="276.2759" r="163.311" gradientTransform="matrix(-0.5424 -0.9388 0.8839 -0.5514 1837.4075 2200.7361)" gradientUnits="userSpaceOnUse">
			<stop  offset="0" style="stop-color:#F1F1F1"/>
			<stop  offset="1" style="stop-color:#F5EA14"/>
		</radialGradient>
		<polygon fill="url(#SVGID_6_)" points="1131.351,606.024 1193.262,562.809 1140.093,521.316 1209.813,530.831 1205.99,455.562 
			1243.277,520.946 1281.937,484.987 1274.063,538.942 1309.121,541.477 1284.126,574.278 1348.487,617.016 1267.582,606.257 
			1264.995,660.883 1234.11,616.145 1194.745,671.896 1203.325,598.143 		"/>
	</g>
</g>
<g id="CHARACTER_LVL_2" display="none">
	<g display="inline">
		<path fill="#339999" d="M200.397,273.544l-7.518-24.298c-7.421,13.168-20.665,23.226-37.076,26.394
			c-23.546,4.544-44.846-11.856-58.729-25.157c-0.606,4.977,1.381,9.571,2.377,14.731c5.349,27.715,33.14,45.655,62.074,40.072
			C177.932,302.119,192.975,286.708,200.397,273.544z"/>
		<path fill="#339999" d="M-66.475,261.3l4.271,32.859c8.566-13.861,23.063-23.895,40.481-26.16
			c24.993-3.248,48.275,10.492,58.231,32.274c0.927-5.4,1.075-11.028,0.332-16.745c-3.991-30.709-32.122-52.369-62.832-48.378
			C-43.406,237.414-57.908,247.443-66.475,261.3z"/>
		<path fill="#339999" d="M-66.088,249.102l4.271,32.859c8.566-13.861,23.063-23.895,40.481-26.16
			c24.993-3.248,48.275,10.492,58.231,32.274c0.927-5.4,1.075-11.028,0.332-16.745c-3.991-30.709-32.122-52.369-62.832-48.378
			C-43.019,225.217-57.521,235.245-66.088,249.102z"/>
		<g>
			
				<ellipse transform="matrix(0.1663 -0.9861 0.9861 0.1663 -291.1028 458.874)" fill="#666666" cx="125.828" cy="401.596" rx="13.734" ry="19.821"/>
			<path fill="#999999" d="M144.73,404.258c-1.262,7.478-11.033,12.067-21.829,10.247c-6.166-1.041-11.325-3.947-14.387-7.64
				c2.565,4.829,8.567,8.834,16.045,10.096c10.796,1.819,20.568-2.769,21.83-10.248c0.54-3.207-0.575-6.424-2.873-9.199
				C144.654,399.657,145.118,401.959,144.73,404.258z"/>
		</g>
		<path fill="#333333" d="M60.698,368.035l-19.465-32.761l-55.193,26.406c0,0-0.979,11.42,4.686,21.916
			c4.82,8.929,10.931,13.739,12.649,14.977L60.698,368.035z"/>
		
			<ellipse transform="matrix(0.9995 0.0318 -0.0318 0.9995 10.9214 -1.7129)" fill="#333333" cx="59.39" cy="343.008" rx="53.568" ry="37.695"/>
		<g>
			
				<ellipse transform="matrix(0.2844 0.9587 -0.9587 0.2844 328.8769 284.6942)" fill="#666666" cx="-26.276" cy="362.659" rx="14.721" ry="21.244"/>
			<path fill="#999999" d="M-45.512,367.578c-1.008-8.778,8.443-17.078,21.113-18.538c7.234-0.833,13.953,0.75,18.574,3.892
				c-4.435-4.573-12.45-7.113-21.227-6.103c-12.67,1.46-22.119,9.76-21.111,18.538c0.435,3.766,2.725,7.003,6.195,9.363
				C-43.936,372.704-45.199,370.275-45.512,367.578z"/>
		</g>
		<path fill="#333333" d="M3.402,398.64l26.463-27.888l-43.225-23.781c0,0-9.823,5.906-14.999,16.652
			c-4.402,9.143-4.713,16.912-4.707,19.03L3.402,398.64z"/>
		<path fill="#000033" d="M58.32,376.705c-28.461-0.904-51.236-17.27-52.315-37.052c-0.091,0.767-0.153,1.54-0.178,2.32
			c-0.661,20.81,22.775,38.439,52.345,39.378c29.569,0.939,54.077-15.167,54.738-35.976c0.025-0.78,0.011-1.556-0.031-2.327
			C110.547,362.722,86.78,377.61,58.32,376.705z"/>
		<path fill="#333333" d="M67.411,367.199l47.108,46.533c2.459-0.993,9.694-4.229,14.884-9.82c6.34-6.833,8.758-14.655,8.758-14.655
			L91.323,342.99L67.411,367.199z"/>
		<path fill="#99CCCC" d="M-66.254,254.33l4.271,32.859c8.566-13.861,23.063-23.895,40.481-26.16
			c24.993-3.248,48.275,10.492,58.231,32.274c0.927-5.4,1.075-11.028,0.332-16.745C33.07,245.849,4.939,224.19-25.77,228.181
			C-43.185,230.444-57.687,240.473-66.254,254.33z"/>
		<path fill="#99CCFF" d="M194.874,273.271l-5.724-29.655c-7.017,13.09-19.645,23.029-35.365,26.064
			c-22.555,4.353-43.119-12.19-56.542-25.579c-0.542,4.965,1.4,9.568,2.396,14.728c5.349,27.715,32.153,45.846,59.869,40.497
			C175.223,296.292,187.856,286.357,194.874,273.271z"/>
		<path fill="#99CCCC" d="M194.856,273.852l-5.724-29.655c-7.017,13.09-19.645,23.029-35.365,26.064
			c-22.555,4.353-43.119-12.19-56.542-25.579c-0.542,4.965,1.4,9.568,2.396,14.728c5.349,27.715,32.153,45.846,59.869,40.497
			C175.205,296.873,187.838,286.938,194.856,273.852z"/>
		<g>
			
				<radialGradient id="SVGID_7_" cx="-3476.4702" cy="4723.9004" r="32.8513" gradientTransform="matrix(-0.2515 0.9679 -0.9679 -0.2515 3616.2634 4833.1431)" gradientUnits="userSpaceOnUse">
				<stop  offset="0" style="stop-color:#F9D8B7"/>
				<stop  offset="1" style="stop-color:#FFCC99"/>
			</radialGradient>
			<path fill="url(#SVGID_7_)" d="M-83.56,303.561c0.254-0.423,0.482-0.854,0.689-1.29c0.972,2.368,2.523,4.306,4.639,5.57
				c3.012,1.801,6.684,1.95,10.385,0.735c4.401-0.617,8.518-3.173,11-7.324c0.367-0.613,6.569-13.221,6.794-17.362
				c5.14-11.548-7.872-30.372-8.936-30.731c-5.152-4.512-15.639-6.332-27.014-4.087c-5.845,1.153-11.064,3.212-15.174,5.772
				c-3.193,1.16-6.036,3.399-7.928,6.563c-3.292,5.505-2.756,12.214,0.835,16.972c-0.313,2.492-0.005,5.004,0.87,7.307
				c-0.69,0.755-1.315,1.589-1.861,2.503c-4.314,7.214-2.06,16.503,5.038,20.749C-97.125,313.181-87.874,310.774-83.56,303.561z"/>
			<path fill="#CC9966" d="M-106.329,303.822c-2.545-5.513-5.546-9.849,0.716-17.262c0.267-0.259,0.314-0.51,0.816-0.926
				c1.787-1.948,4.19-4.103,7.384-6.542c-7.191,3.356-3.247,1.559-8.033,3.768c-0.353,0.163-0.688,0.342-1.013,0.528
				c-0.825-1.243-1.373-2.532-1.075-4.267c-0.034-1.315,0.862-2.453,1.19-3.033c0.735-1.282,1.818-2.762,3.376-4.527
				c-3.389,2.48-1.526,1.143-3.785,2.781c-0.107,0.078-0.202,0.163-0.302,0.245c-2.819-6.071-4.078-11.68,9.857-22.519
				c-7.096,3.316-3.287,1.711-8.011,3.893c-7.047,3.257-8.397,11.833-5.007,19.168c0.358,0.773,0.773,1.5,1.235,2.18
				c-0.771,2.199-0.301,4.806,1.14,6.999c-5.043,3.914-5.833,11.156-2.945,17.412c1.831,3.969,5.259,6.69,9.167,7.763
				C-103.593,308.089-105.243,306.176-106.329,303.822z"/>
			<path fill="#CC9966" d="M-79.602,298.514c1.514,0.109,2.959,0.119,4.289-0.236c-1.045-0.391-2.374-0.773-3.653-1.017
				c1.236-2.42,2.53-4.669,2.814-7c-1.207,1.32-2.653,3.27-3.464,4.939c-0.306,0.631-0.623,1.244-0.964,1.833
				c-0.043-0.003-0.425,0.733-0.842,1.325c-2.388,3.404-6.003,5.594-13.597,4.671c3.33,1.589,1.523,0.696,3.728,1.766
				C-88.056,306.363-82.134,303.429-79.602,298.514z"/>
			<path fill="#CC9966" d="M-63.935,249.36c-4.232-1.507-15.461-3.264-19.016-1.282c2.428-0.404,11.656,2.59,14.167,3.483
				c7.611,2.712,13.864,8.8,19.262,19.608C-48.924,262.319-56.323,252.07-63.935,249.36z"/>
		</g>
		<g>
			
				<radialGradient id="SVGID_8_" cx="3692.9282" cy="2339.4797" r="28.8215" gradientTransform="matrix(0.2771 -0.9609 0.9609 0.2771 -3065.1433 3148.3477)" gradientUnits="userSpaceOnUse">
				<stop  offset="0" style="stop-color:#F9D8B7"/>
				<stop  offset="1" style="stop-color:#FFCC99"/>
			</radialGradient>
			<path fill="url(#SVGID_8_)" d="M211.555,219.8c-7.194-2.074-14.777,1.66-18.323,8.534c-0.363-0.201-0.743-0.367-1.146-0.483
				c-5.342-1.54-12.01,5.319-14.895,15.321c-1.225,4.248-1.568,8.38-1.15,11.846c-1.399,7.535,4.918,15.615,14.667,18.425
				c0.742,0.214,1.483,0.388,2.221,0.53c0.571,0.235,1.159,0.445,1.767,0.62c7.965,2.297,16.148-1.562,18.872-8.678
				c9.005,2.286,18.061-2.309,20.418-10.48c1.683-5.837-0.502-11.95-5.108-16.009c0.414-0.715,0.75-1.489,0.989-2.318
				c1.612-5.591-1.715-11.46-7.432-13.109c-1.496-0.431-3.007-0.529-4.453-0.339C216.244,221.879,214.069,220.525,211.555,219.8z"/>
			<path fill="#CC9966" d="M225.905,225.683c4.478,3.946,3.719,12.123-1.691,18.262c-4.575,5.19-11.011,7.263-15.596,5.397
				c4.529,3.613,12.309,1.783,17.601-4.221c5.412-6.139,6.169-14.316,1.692-18.262c-0.693-0.61-1.47-1.083-2.309-1.425
				C225.703,225.513,225.806,225.595,225.905,225.683z"/>
			<path fill="#CC9966" d="M214.16,221.092c4.57,3.84,4.003,12.032-1.263,18.297c-2.051,2.44-4.512,4.217-7.022,5.264
				c0.432,0.474,0.831,0.96,1.202,1.453c2.794-0.979,5.575-2.881,7.852-5.589c5.266-6.265,5.832-14.457,1.263-18.297
				c-0.707-0.594-1.495-1.049-2.342-1.37C213.955,220.928,214.06,221.007,214.16,221.092z"/>
			<path fill="#CC9966" d="M228.753,260.034c-1.659,1.924-3.569,3.438-5.55,4.521c0.008-0.018,0.019-0.036,0.027-0.054
				c-0.019,0.025-0.041,0.047-0.061,0.072c-1.777,0.966-3.614,1.577-5.39,1.805c-1.982-0.241-4.102-1.194-5.923-2.827
				c-1.972-1.766-3.195-3.97-3.557-6.06c-0.204,0.303-0.424,0.595-0.683,0.861c-0.029,0.031-0.064,0.054-0.094,0.083
				c0.296,2.173,1.541,4.497,3.602,6.344c0.745,0.667,1.541,1.218,2.359,1.657c1.109,0.652,2.356,1.042,3.681,1.185
				c0.022,0.003,0.046,0.007,0.069,0.009c4.427,0.446,9.706-1.858,13.623-6.398c5.566-6.451,6.26-14.972,1.557-19.03
				c-0.729-0.627-1.542-1.11-2.42-1.456c0.106,0.083,0.214,0.167,0.318,0.255C235.015,245.062,234.318,253.584,228.753,260.034z"/>
			<path fill="#CC9966" d="M189.962,227.93l13.01,15.83l0.051,0.059c0.578,0.613,1.114,1.266,1.594,1.939l0.399,0.584
				c2.005,3.066,2.774,6.38,2.057,8.866c-0.249,0.861-0.67,1.604-1.253,2.204c-1.394,1.438-3.605,1.96-6.227,1.473
				c-2.795-0.518-5.674-2.103-8.106-4.463c-1.637-1.586-2.941-3.418-3.806-5.32l-0.918,3.183c0.856,1.355,1.904,2.641,3.105,3.806
				c2.759,2.673,6.061,4.477,9.301,5.079c3.413,0.634,6.368-0.126,8.32-2.14c0.851-0.878,1.463-1.947,1.818-3.179
				c0.84-2.915,0.187-6.469-1.788-9.879l0.168-0.135l-1.201-1.463c-0.528-0.735-1.113-1.447-1.743-2.119l-11.274-13.718
				c-0.347-0.189-0.711-0.347-1.095-0.458C191.593,227.853,190.783,227.813,189.962,227.93z"/>
			<path fill="#CC9966" d="M196.671,235.102l2.41,1.568c-0.867-6.229,1.182-11.945,5.082-14.481
				C199.501,223.58,196.603,228.865,196.671,235.102z"/>
			<path fill="#CC9966" d="M203.028,259.266c-3.805,5.935-9.05,9.245-12.756,8.383c3.665,2.584,10.061-0.82,14.471-7.782
				c0.019-0.03,0.037-0.06,0.056-0.09L203.028,259.266z"/>
		</g>
		<g>
			<path fill="#99CCCC" d="M109.643,257.932c-4.64-10.722-12.001-17.521-26.879-17.993c-0.895-0.028-1.781-0.013-2.664,0.019
				c-6.828-7.465-16.42-12.253-27.171-12.595c-12.992-0.413-24.701,5.765-32.114,15.595c-20.911,0.259-22.58,20.899-23.386,46.28
				c-0.825,25.969,0.167,51.142,21.723,51.827c2.169,0.069,17.219-0.325,23.539-0.124c16.672,0.53,30.632-8.799,32.249-21.146
				c1.719,0.295,3.478,0.477,5.269,0.534c0.364,0.012,0.723,0.005,1.085,0.006c1.526,9.522,9.146,18.736,18.621,18.935
				c14.944,0.313,22.755-4.575,17.681-33.104C117.597,306.164,114.283,268.654,109.643,257.932z"/>
			<path fill="#333333" d="M22.304,266.821"/>
			<g>
				<polygon fill="#FFFFFF" points="86.748,333.907 59.252,335.021 56.941,249.328 80.953,248.355 				"/>
				<polygon fill="#CCCCCC" points="86.748,333.907 59.252,335.021 56.941,249.328 66.947,248.922 71.914,326.656 85.584,325.811 
									"/>
				<path fill="#339999" d="M58.085,275.96l-22.517,2.567c0,0-1.759-17.346,2.332-25.708c4.091-8.363,17.322-1.976,17.322-1.976
					L58.085,275.96z"/>
				<path fill="#99CCCC" d="M59.692,274.149l-22.518,2.568c0,0-1.759-17.346,2.333-25.709c4.091-8.363,17.322-1.975,17.322-1.975
					L59.692,274.149z"/>
				<path fill="#339999" d="M82.714,276.049l19.758,0.282c0,0,0.026-15.2-4.245-22.101c-4.272-6.902-15.198-0.217-15.198-0.217
					L82.714,276.049z"/>
				<path fill="#99CCCC" d="M80.924,274.958l19.758,0.282c0,0,0.026-15.201-4.245-22.102c-4.272-6.902-15.198-0.217-15.198-0.217
					L80.924,274.958z"/>
				<polygon fill="#663300" points="86.72,335.362 59.311,336.473 58.96,327.182 86.344,326.072 				"/>
				
					<rect x="69.436" y="324.769" transform="matrix(0.9992 -0.0405 0.0405 0.9992 -13.3598 3.3322)" fill="#CCCCCC" width="12.278" height="13.366"/>
				
					<rect x="69.462" y="325.85" transform="matrix(0.9992 -0.0405 0.0405 0.9992 -13.3908 3.3188)" fill="#999999" width="11.481" height="12.5"/>
				<circle cx="74.022" cy="306.796" r="3.002"/>
				<circle cx="71.62" cy="290.608" r="3.002"/>
				<ellipse transform="matrix(0.9992 -0.0405 0.0405 0.9992 -10.829 3.1049)" cx="71.161" cy="268.623" rx="5.68" ry="5.618"/>
				<polygon points="69.993,271.772 52.228,278.309 51.444,258.954 69.703,264.611 				"/>
				<polygon points="72.316,271.678 90.552,276.755 89.767,257.4 72.026,264.517 				"/>
			</g>
		</g>
		<path fill="#663300" d="M174.229-23.762"/>
		<path fill="#FFCC99" d="M211.991,86.723c-2.662-9.643-11.23-15.692-19.136-13.509c-7.907,2.182-12.159,11.769-9.497,21.413
			c1.204,4.363,3.62,7.985,6.633,10.447c-2.862,4.186-3.827,10.305-2.121,16.49c2.693,9.755,11.009,15.97,18.575,13.882
			c7.567-2.088,11.517-11.689,8.826-21.444c-1.169-4.233-3.396-7.797-6.161-10.308C212.477,99.491,213.757,93.121,211.991,86.723z"
			/>
		
			<radialGradient id="SVGID_9_" cx="57.1377" cy="111.4501" r="128.5752" gradientTransform="matrix(0.9995 0.0318 -0.0318 0.9995 8.7363 6.9361)" gradientUnits="userSpaceOnUse">
			<stop  offset="0" style="stop-color:#F9D8B7"/>
			<stop  offset="1" style="stop-color:#FFCC99"/>
		</radialGradient>
		<circle fill="url(#SVGID_9_)" cx="62.306" cy="120.144" r="128.575"/>
		<path fill="#CC9966" d="M65.448,242.399C-7.798,240.072-65.29,178.807-62.963,105.561c0.288-9.055,1.48-17.868,3.48-26.357
			c-3.977,11.729-6.319,24.232-6.733,37.252c-2.255,70.974,53.453,130.338,124.428,132.593c32.855,1.044,63.217-10.34,86.582-29.902
			C122.294,234.629,94.839,243.333,65.448,242.399z"/>
		<path d="M176.766,54.354c-8.499-16.11-18.677-28.353-27.614-34.317c-0.112-0.333-0.227-0.678-0.346-1.038
			C134.186-25.029,78.253-42.617,23.873-20.284C-0.526-10.264-20.459,6.09-33.709,25.053c-7.368,7.642-14.265,18.08-19.483,30.293
			c-12.676,29.672-12.067,50.213-10.203,50.27c12.123,0.828,16.147-9.471,21.287-22.575c-5.807-4.374-3.516-7.264-1.501-10.752
			c1.871-3.241,12.82,0.302,13.83-2.053c1.011-2.355-8.957-9.891-6.92-13.418c2.077-3.595,13.478,0.892,15.938-1.358
			c2.461-2.249-6.059-8.298-4.343-11.27c1.857-3.215,12.218-0.532,13.683-2.095c1.466-1.563-1.947-5.107-0.835-7.032
			c1.661-2.877,6.259-3.715,11.717-2.579c0.608-3.807,4.634-5.301,7.528-7.132c18.814-6.227,37.28-10.709,57.11-10.079
			c25.253,0.802,59.865,0.254,76.47,10.48c3.449,2.884-6.295,10.571-5.589,12.341c0.708,1.77,17.758,5.655,19.695,8.617
			c1.79,2.738-3.108,10.483-0.918,11.7c2.19,1.219,9.414-3.903,11.579-0.592c2.124,3.249-3.67,12.677-2.336,14.143
			c1.334,1.466,8.263-2.631,10.215,0.353c2.1,3.212,1.063,8.93-2.218,13.972c6.169,12.366,18.372,23.409,19.613,33.404
			C191.925,119.408,191.471,82.225,176.766,54.354z"/>
		<g>
			<path fill="#999999" d="M139.928,12.329c-2.265,2.707-12.049,1.773-12.049,1.773s-0.2-0.098-0.244-0.164
				c-0.448-0.685,4-2.482,3.422-3.841c-0.535-1.255-4.333-2.005-4.251-2.955c0.082-0.951,3.509-1.576,2.862-3.095
				c-0.634-1.49-5.22-2.449-5.42-3.228c-0.2-0.778,2.805-1.602,2.224-2.97c-0.628-1.474-2.84-2.751-5.335-3.213
				c-2.853-5.132-13.271-11.338-16.438-14.433c0.399-0.291,23.113,9.185,29.361,20.977C135.833,4.524,139.003,9.443,139.928,12.329z
				"/>
		</g>
		<polyline fill="#666666" points="155.642,91.926 188.408,85.651 190.416,95.124 156.673,99.516 		"/>
		<polyline fill="#666666" points="-14.744,106.572 -59.244,97.843 -59.436,106.771 -8.16,115.5 		"/>
		<path fill="#999999" d="M-10.374,102.71c0,0-5.264,0.817-6.03,1.758c-0.767,0.941-0.139,8.309,0.402,8.887
			c0.541,0.578,3.243,3.854,7.237,4.11c3.994,0.256,73.959,0.503,74.927-1.125c0.968-1.629,3.818-6.886,7.118-8.873
			c3.301-1.987,6.978-1.992,8.887-0.999c1.909,0.994,5.329,7.089,6.923,7.563c1.594,0.473,73.634-11.853,74.622-13.018
			c0.988-1.164,1.679-11.95,0.591-12.904c-1.089-0.953-7.37,0.715-8.679,0.394c-1.309-0.321-6.113-8.461-8.656-9.502
			c-2.542-1.042-19.425-4.618-24.407-4.336c-4.981,0.283-15.648,0.688-18.475,2.074c-2.827,1.386-13.785,18.518-15.12,19.008
			c-1.335,0.49-6.739-3.797-7.941-4.109c-1.202-0.312-5.006-1.594-7.283,0.083c-2.277,1.677-6.823,5.026-6.823,5.026
			s-20.932-16.243-25.34-17.172c-4.408-0.929-23.191,1.078-27.75,2.248c-4.559,1.17-16.925,8.615-19.455,11.52
			C-8.159,96.248-10.374,102.71-10.374,102.71z"/>
		<circle cx="71.105" cy="152.005" r="3.414"/>
		<circle cx="89.036" cy="148.599" r="3.413"/>
		<g>
			<path fill="#CC9966" d="M97.341,169.373c-0.458-0.169-10.528-4.208-10.749-11.088l0.688-0.067
				c0.191,5.958,10.435,9.827,10.539,9.865L97.341,169.373z"/>
		</g>
		<g>
			<path fill="#CC9966" d="M79.554,167.688l-1.126-0.789c0.805-1.15,2.636-4.534,1.46-6.357l0.47-0.767
				C82.273,162.747,79.694,167.489,79.554,167.688z"/>
		</g>
		<g>
			<path fill="#CC9966" d="M98.569,191.336c-0.306-0.052-7.494-1.327-8.445-5.635l1.135-0.25c0.785,3.553,6.864,4.817,6.931,4.828
				L98.569,191.336z"/>
		</g>
		<g>
			<path fill="#CC9966" d="M83.66,195.21l-0.207-0.949c0.051-0.046,4.45-4.535,3.202-7.945l1.091-0.4
				C89.263,190.059,83.89,195.002,83.66,195.21z"/>
		</g>
		<g>
			<path fill="#CC9966" d="M87.767,196.632l-0.757-0.223c0.209-0.222,5.151-5.41,9.286-3.952l-0.388,1.096
				C92.496,192.348,87.813,196.583,87.767,196.632z"/>
		</g>
		<path d="M114.482,195.519c-2.158,0.501-17.942-14.329-29.836-15.072c-11.895-0.746-32.352,13.486-36.369,10.867
			c-4.445-2.9,1.975-16.244,2.632-18.337c0.657-2.094,2.935-4.574,5.334-4.699c6.622-0.348,19.136,8.311,29.838,8.024
			c4.707-0.127,17.243-6.109,23.192-4.824c6.722,1.454,6.07,3.233,7.234,4.993C117.672,178.23,116.64,195.02,114.482,195.519z"/>
		<path d="M43.036,90.17c-1.112-0.612-2.213-1.07-3.258-1.302c-2.701-0.601-5.273-0.806-7.807-0.72
			c-1.697,0.026-3.358,0.206-4.973,0.515c-1.546,0.259-3.099,0.597-4.683,0.996c-5.874,1.483-24.964,7.332-25.646,11.375
			c-0.684,4.043-0.804,16.625,0.899,19.835c1.704,3.212,8.367,17.856,23.045,22.27c0.359,0.108,0.724,0.191,1.092,0.26
			c3.042,1.227,6.346,1.949,9.815,2.06c15.823,0.503,29.057-11.917,29.56-27.742C61.474,105.318,53.933,94.51,43.036,90.17z"/>
		
			<ellipse transform="matrix(0.999 -0.0453 0.0453 0.999 -5.2762 1.9993)" fill="#CCCCCC" cx="41.493" cy="117.46" rx="8.681" ry="9.136"/>
		
			<ellipse transform="matrix(0.999 -0.0453 0.0453 0.999 -5.1163 2.0727)" fill="#FFFFFF" cx="43.132" cy="113.817" rx="6.961" ry="7.326"/>
		
			<ellipse transform="matrix(0.999 -0.0453 0.0453 0.999 -4.7795 0.454)" fill="#CCCCCC" cx="7.634" cy="105.744" rx="5.515" ry="5.804"/>
		<path d="M109.743,85.26c1.047-0.582,2.087-1.017,3.071-1.24c2.547-0.577,4.976-0.779,7.369-0.706
			c1.603,0.018,3.172,0.183,4.698,0.471c1.461,0.238,2.928,0.552,4.426,0.924c5.551,1.381,23.595,6.84,24.253,10.655
			c0.659,3.815,0.815,15.695-0.782,18.732c-1.598,3.039-7.841,16.887-21.686,21.104c-0.338,0.104-0.683,0.183-1.03,0.249
			c-2.868,1.168-5.986,1.862-9.261,1.978c-14.938,0.528-27.476-11.156-28.003-26.095C92.384,99.624,99.469,89.394,109.743,85.26z"/>
		
			<ellipse transform="matrix(0.999 -0.0453 0.0453 0.999 -4.9515 6.4093)" fill="#CCCCCC" cx="138.982" cy="112.488" rx="7.346" ry="7.732"/>
		
			<ellipse transform="matrix(0.999 -0.0453 0.0453 0.999 -4.8101 6.4684)" fill="#FFFFFF" cx="140.369" cy="109.405" rx="5.891" ry="6.2"/>
		
			<ellipse transform="matrix(0.999 -0.0454 0.0454 0.999 -4.3212 5.0963)" fill="#CCCCCC" cx="110.125" cy="97.757" rx="5.14" ry="5.41"/>
		<path d="M66.897,77.299l-11.19,2.44c0,0-14.084-4.305-18.774-6.1c-4.688-1.794-21.019-1.684-21.019-1.684l9.378-6.702
			c0,0,9.07,2.167,20.326,5.102C56.875,73.291,66.897,77.299,66.897,77.299z"/>
		<path d="M82.961,76.987l11.282,1.969c0,0,13.893-4.889,18.503-6.879c4.609-1.989,20.93-2.561,20.93-2.561l-9.65-6.305
			c0,0-8.971,2.545-20.095,5.949C92.806,72.562,82.961,76.987,82.961,76.987z"/>
		<path fill="#CCCCCC" d="M164.609,87.643c-0.111-1.443-7.37,0.715-8.679,0.394c-1.309-0.321-6.113-8.461-8.656-9.502
			c-2.542-1.041-19.425-4.618-24.407-4.335c-4.981,0.283-15.648,0.688-18.475,2.074c-1.156,0.567-3.671,3.765-6.332,7.383
			c0,0,1.959-3.642,7.674-5.47c5.716-1.828,16.824-2.637,22.546-1.734c5.723,0.903,18.086,2.66,20.835,6.143
			c1.157,1.466,5.416,6.164,6.837,9.688c5.641-1.09,8.892,0.49,8.905,0.152C164.913,90.917,164.742,89.385,164.609,87.643z"/>
		<path fill="#CCCCCC" d="M67.491,96.234c-0.063,0.046-0.107,0.079-0.107,0.079S46.452,80.07,42.044,79.14
			c-4.408-0.929-23.191,1.078-27.75,2.248c-3.105,0.797-9.827,4.503-14.602,7.704c0,0,11.967-4.555,17.113-5.854
			c5.977-1.508,19.105-2.534,25.337-1.146c6.232,1.387,20.735,12.423,21.815,16.828c1.083,4.404,2.695,10.897,2.874,10.598
			C66.903,109.394,67.491,96.234,67.491,96.234z"/>
		<path fill="#CCCCCC" d="M88.766,95.6c-1.525,0.205-6.634-3.824-7.8-4.127c-0.615-0.16-1.912-0.572-3.336-0.712l-0.349,10.995
			c1.985-0.354,3.798-0.122,4.957,0.481c1.624,0.845,4.301,6.533,6.058,8.161L88.766,95.6z"/>
		<path fill="#CC9966" d="M195.23,93.689c-1.338-7.21-1.987-13.792,1.509-14.442c3.497-0.649,13.61,5.785,9.653,11.961
			c-5.938,9.271-5.372,7.405-6.688,14.893C199.088,109.603,196.568,100.899,195.23,93.689z"/>
		<path fill="#FFCC99" d="M-50.864,104.467c0.36-11.346-6.889-20.783-16.192-21.079c-9.302-0.296-17.136,8.662-17.497,20.009
			c-0.163,5.133,1.235,9.872,3.673,13.554c-4.509,3.573-7.616,9.879-7.847,17.155c-0.365,11.477,6.556,21.011,15.458,21.293
			s16.414-8.792,16.778-20.269c0.158-4.98-1.057-9.592-3.207-13.243C-54.633,118.466-51.103,111.994-50.864,104.467z"/>
		<path fill="#CC9966" d="M-65.647,108.281c1.792-7.111,2.859-13.639-0.591-14.508c-3.448-0.869-13.949,4.909-10.393,11.324
			c5.338,9.629,4.891,7.731,5.729,15.288C-70.509,123.918-67.441,115.391-65.647,108.281z"/>
	</g>
	<g display="inline">
		
			<ellipse transform="matrix(-0.8186 -0.5743 0.5743 -0.8186 2073.6316 1506.7446)" fill="#333333" cx="1274.722" cy="425.958" rx="15.188" ry="21.918"/>
		
			<ellipse transform="matrix(-0.9057 -0.424 0.424 -0.9057 2140.3728 1341.5649)" fill="#333333" cx="1219.435" cy="432.667" rx="14.17" ry="20.449"/>
		<path fill="#999999" d="M1210.602,450.269c7.087,3.317,16.714-2.283,21.504-12.512c2.735-5.841,3.296-11.927,1.957-16.691
			c2.593,5.01,2.47,12.455-0.847,19.54c-4.79,10.228-14.417,15.828-21.504,12.512c-3.039-1.423-5.115-4.257-6.12-7.835
			C1206.743,447.504,1208.425,449.249,1210.602,450.269z"/>
		<path fill="#999999" d="M1263.606,443.163c8.257,3.863,19.473-2.661,25.053-14.577c3.186-6.805,3.84-13.896,2.28-19.447
			c3.021,5.837,2.878,14.51-0.987,22.765c-5.58,11.916-16.796,18.441-25.054,14.577c-3.541-1.658-5.959-4.961-7.13-9.129
			C1259.109,439.942,1261.069,441.974,1263.606,443.163z"/>
		<path fill="#CCCCCC" d="M1186.416,368.379c-2.591-21.2,19.754-41.374,49.91-45.061c30.156-3.687,56.704,10.511,59.295,31.71
			c0.877,7.176-1.106,14.234-5.279,20.575l7.84,44.522c0,0-8.998,7.672-21.207,9.213c-12.209,1.541-20.716-1.831-20.716-1.831
			l-4.983-28.3c-1.821,0.356-3.677,0.651-5.564,0.882c-4.672,0.571-9.256,0.712-13.68,0.465l5.124,29.1
			c0,0-8.332,6.033-17.852,7.405c-9.52,1.372-17.576-1.167-17.576-1.167l-9.397-53.365
			C1189.123,378.336,1187.05,373.568,1186.416,368.379z"/>
		<path fill="#663333" d="M1284.984,375.475c6.652-7.433,10.205-16.129,9.432-24.873c0.197,0.743,0.369,1.495,0.504,2.261
			c1.674,9.509-1.897,19.086-9.133,27.17L1284.984,375.475z"/>
		<g>
			<path fill="#999999" d="M1199.225,390.566c-6.422-4.883-10.773-11.274-12.085-18.724c-0.135-0.766-0.231-1.532-0.299-2.297
				c1.727,6.48,5.825,12.065,11.578,16.446L1199.225,390.566z"/>
			<path fill="#999999" d="M1218.553,394.885c8.599,1.88,18.281,2.127,28.27,0.368c3.859-0.679,7.567-1.632,11.102-2.807
				l0.804,4.564c-3.534,1.174-7.245,2.121-11.103,2.8c-9.987,1.758-19.67,1.514-28.269-0.365L1218.553,394.885z"/>
		</g>
		<path fill="#333333" d="M1158.647,336.444c0,0,6.539-17.907,7.832-22.426c0.277-0.965,0.535-2.407,0.769-4.071
			c-0.257-4.466,1.881-15.159,1.881-15.159c4.436-13.999,16.046-25.033,31.171-27.696c0.91-0.16,1.817-0.275,2.723-0.371
			c5.879-8.625,14.973-14.92,25.902-16.845c13.207-2.326,26.07,2.268,35.081,11.219c21.393-2.8,42.065,15.226,46.608,41.028
			c4.648,26.399-9.346,50.927-31.259,54.785c-2.205,0.388-4.406,0.545-6.586,0.499c-4.591,3.342-10.318,5.826-16.743,6.958
			c-16.948,2.984-49.367,3.214-58.997,4.909c-11.004,1.938-15.926-3.406-13.81-27.948L1158.647,336.444z"/>
		<path fill="#333333" d="M1266.905,287.447"/>
		<path d="M1270.49,304.775c0.693,5.661-1.812,14.777-4.852,19.118c-3.041,4.34-5.351,7.639-5.351,7.639s2.23-17.454,0.825-22.974
			c-3.338-13.11,1.796-19.188,3.42-19.474C1266.155,288.797,1269.797,299.114,1270.49,304.775z"/>
		<path d="M1182.358,308.727c0,0,2.647,14.148,2.043,20.339c-0.604,6.191-1.208,12.388-1.208,12.388l-8.772-1.845
			c0,0,3.885-10.082,4.652-14.019C1179.839,321.653,1182.358,308.727,1182.358,308.727z"/>
		<path d="M1298.215,304.307c-3.616-20.538-17.455-36.137-33.74-40.239l-0.534-3.035c0.021,0.021,0.044,0.042,0.066,0.063
			c21.393-2.801,42.065,15.226,46.608,41.028c2.881,16.362-1.404,31.999-10.293,42.448l-12.396,2.183
			C1296.814,336.307,1301.096,320.668,1298.215,304.307z"/>
		
			<radialGradient id="SVGID_10_" cx="166.2142" cy="469.7188" r="33.8937" gradientTransform="matrix(-0.9848 0.1734 0.1734 0.9848 1349.9564 -127.133)" gradientUnits="userSpaceOnUse">
			<stop  offset="0" style="stop-color:#F9D8B7"/>
			<stop  offset="1" style="stop-color:#FFCC99"/>
		</radialGradient>
		<path fill="url(#SVGID_10_)" d="M1243.736,364.172c0.456-0.225,0.918-0.425,1.383-0.603c-2.355-1.195-4.221-2.949-5.346-5.228
			c-1.605-3.246-1.455-7.034,0.099-10.741c0.997-4.475,3.965-8.499,8.437-10.71c0.662-0.328,14.137-5.668,18.414-5.558
			c12.298-4.336,30.586,10.595,30.869,11.719c4.216,5.671,5.225,16.605,1.98,28.118c-1.667,5.916-4.214,11.115-7.184,15.13
			c-1.456,3.188-3.992,5.928-7.402,7.613c-5.932,2.933-12.788,1.829-17.386-2.255c-2.589,0.117-5.146-0.406-7.443-1.496
			c-0.834,0.647-1.743,1.222-2.728,1.708c-7.775,3.843-17.141,0.759-20.923-6.889
			C1232.726,377.332,1235.961,368.016,1243.736,364.172z"/>
		<path fill="#CC9966" d="M1240.85,387.699c5.461,3.07,9.673,6.514,17.812,0.683c0.288-0.253,0.55-0.281,1.019-0.763
			c2.152-1.678,4.565-3.971,7.335-7.055c-4.043,7.119-1.87,3.211-4.535,7.952c-0.197,0.349-0.407,0.678-0.626,0.997
			c1.21,0.951,2.491,1.621,4.298,1.457c1.351,0.143,2.594-0.685,3.218-0.975c1.379-0.65,2.991-1.642,4.933-3.1
			c-2.83,3.282-1.301,1.476-3.171,3.664c-0.089,0.104-0.185,0.194-0.277,0.291c6.011,3.398,11.676,5.155,23.97-8.284
			c-3.995,7.025-2.03,3.24-4.664,7.918c-3.929,6.979-12.859,7.661-20.124,3.572c-0.766-0.431-1.478-0.918-2.14-1.449
			c-2.324,0.612-4.967-0.086-7.103-1.749c-4.44,4.864-11.953,5.08-18.149,1.596c-3.931-2.21-6.448-5.958-7.23-10.066
			C1236.687,384.534,1238.519,386.387,1240.85,387.699z"/>
		<path fill="#CC9966" d="M1248.51,360.649c0.012-1.567,0.121-3.053,0.596-4.392c0.316,1.107,0.6,2.505,0.745,3.841
			c2.591-1.072,5.009-2.217,7.431-2.319c-1.458,1.134-3.582,2.46-5.364,3.156c-0.674,0.263-1.331,0.539-1.965,0.841
			c0,0.044-0.789,0.377-1.432,0.756c-3.697,2.176-6.247,5.714-5.923,13.6c-1.359-3.555-0.59-1.624-1.509-3.979
			C1239.742,368.697,1243.246,362.847,1248.51,360.649z"/>
		<path fill="#CC9966" d="M1300.35,348.582c1.202,4.476,2.084,16.169-0.246,19.662c0.615-2.463-1.704-12.2-2.417-14.856
			c-2.161-8.051-7.909-14.983-18.58-21.423C1288.258,332.078,1298.189,340.531,1300.35,348.582z"/>
		
			<radialGradient id="SVGID_11_" cx="272.8091" cy="450.8717" r="29.736" gradientTransform="matrix(-0.9848 0.1734 0.1734 0.9848 1349.9564 -127.133)" gradientUnits="userSpaceOnUse">
			<stop  offset="0" style="stop-color:#F9D8B7"/>
			<stop  offset="1" style="stop-color:#FFCC99"/>
		</radialGradient>
		<path fill="url(#SVGID_11_)" d="M1129.912,366.862c-1.339-7.607,3.323-14.977,10.763-17.861c-0.167-0.395-0.295-0.803-0.37-1.229
			c-0.995-5.649,6.773-11.738,17.349-13.6c4.493-0.791,8.768-0.69,12.279,0.119c7.884-0.609,15.479,6.756,17.295,17.065
			c0.138,0.785,0.235,1.564,0.3,2.336c0.178,0.612,0.329,1.237,0.442,1.881c1.483,8.423-3.372,16.394-10.971,18.409
			c1.358,9.488-4.348,18.275-12.989,19.797c-6.173,1.087-12.204-1.824-15.863-6.995c-0.779,0.346-1.61,0.606-2.485,0.76
			c-5.913,1.041-11.569-3.016-12.633-9.061c-0.279-1.582-0.213-3.143,0.14-4.605C1131.531,371.901,1130.38,369.521,1129.912,366.862
			z"/>
		<path fill="#CC9966" d="M1134.374,382.228c3.558,5.026,12.029,5.145,18.92,0.266c5.825-4.124,8.657-10.499,7.245-15.408
			c3.209,5.042,0.48,12.823-6.259,17.594c-6.892,4.879-15.363,4.76-18.921-0.266c-0.55-0.778-0.95-1.627-1.209-2.526
			C1134.223,382.003,1134.295,382.117,1134.374,382.228z"/>
		<path fill="#CC9966" d="M1130.952,369.677c3.439,5.108,11.905,5.425,18.909,0.71c2.727-1.836,4.821-4.166,6.17-6.627
			c0.439,0.495,0.893,0.958,1.359,1.393c-1.311,2.759-3.567,5.404-6.595,7.442c-7.004,4.715-15.47,4.398-18.909-0.71
			c-0.532-0.79-0.912-1.649-1.149-2.553C1130.807,369.448,1130.876,369.565,1130.952,369.677z"/>
		<path fill="#CC9966" d="M1169.302,388.916c2.156-1.491,3.918-3.284,5.247-5.198c-0.02,0.007-0.039,0.015-0.058,0.022
			c0.028-0.016,0.053-0.037,0.081-0.055c1.186-1.718,2.014-3.535,2.442-5.332c-0.03-2.059-0.775-4.339-2.25-6.387
			c-1.596-2.216-3.723-3.713-5.827-4.313c0.334-0.175,0.657-0.37,0.959-0.606c0.034-0.027,0.062-0.06,0.096-0.088
			c2.196,0.542,4.444,2.074,6.113,4.39c0.603,0.838,1.081,1.715,1.442,2.602c0.548,1.209,0.81,2.531,0.812,3.906
			c0,0.023,0.002,0.048,0.002,0.072c-0.028,4.59-2.97,9.753-8.057,13.274c-7.228,5.002-16.045,4.781-19.692-0.488
			c-0.563-0.816-0.97-1.704-1.229-2.643c0.073,0.119,0.148,0.238,0.227,0.355C1153.256,393.699,1162.075,393.918,1169.302,388.916z"
			/>
		<path fill="#CC9966" d="M1140.619,345.603l14.814,15.081l0.055,0.059c0.566,0.66,1.177,1.281,1.814,1.848l0.556,0.473
			c2.925,2.392,6.24,3.544,8.869,3.081c0.911-0.16,1.718-0.512,2.399-1.044c1.627-1.272,2.406-3.483,2.194-6.227
			c-0.225-2.924-1.536-6.051-3.689-8.805c-1.448-1.853-3.185-3.392-5.04-4.488l3.366-0.593c1.296,1.027,2.501,2.243,3.564,3.603
			c2.441,3.122,3.93,6.708,4.191,10.098c0.276,3.57-0.828,6.518-3.107,8.301c-0.994,0.777-2.158,1.287-3.461,1.517
			c-3.083,0.543-6.657-0.517-9.938-2.918l-0.157,0.158l-1.37-1.392c-0.696-0.622-1.363-1.301-1.983-2.021l-12.837-13.069
			c-0.156-0.377-0.278-0.767-0.35-1.173C1140.362,347.268,1140.409,346.433,1140.619,345.603z"/>
		<path fill="#CC9966" d="M1147.242,353.271l1.344,2.644c-6.295-1.573-12.383-0.096-15.413,3.626
			C1135.112,354.912,1140.851,352.517,1147.242,353.271z"/>
		<path fill="#CC9966" d="M1169.179,364.038c6.505-3.253,10.476-8.271,9.998-12.167c2.249,4.043-1.944,10.231-9.569,13.992
			c-0.033,0.016-0.066,0.031-0.099,0.047L1169.179,364.038z"/>
		<path fill="#663300" d="M1067.017,0.536"/>
		<path fill="#663300" d="M1300.656,433.34"/>
		
			<radialGradient id="SVGID_12_" cx="185.5945" cy="237.6293" r="134.1547" gradientTransform="matrix(-0.9848 0.1734 0.1734 0.9848 1349.9564 -127.133)" gradientUnits="userSpaceOnUse">
			<stop  offset="0" style="stop-color:#FCDEDE"/>
			<stop  offset="1" style="stop-color:#FFCCCC"/>
		</radialGradient>
		<circle fill="url(#SVGID_12_)" cx="1208.382" cy="139.081" r="134.155"/>
		<path fill="#333333" d="M1210.621,112.352c23.903-50.374-7.761-79.674,22.438-105.472c11.259,2.113,22.103,5.658,32.304,10.459
			c2.033-59.536,9.908-123.926,25.396-124.036c16.029-0.115,56.974,116.677,54.038,133.588
			c-2.936,16.911-14.796,32.783-13.612,51.504c0.106,1.679,0.089,3.827-0.038,6.332c4.233,9.642,7.395,19.937,9.302,30.77
			c6.021,34.191-1.481,67.635-18.66,94.847C1261.174,217.49,1184.125,168.189,1210.621,112.352z"/>
		<path fill="#666666" d="M1211.782,211.717c0,0-4.96-25.719-3.354-39.794c1.315-6.072-22.599-4.576-22.599-4.576
			s-21.717,4.058-22.471,6.964c0.846,10.364-7.234,29.883-7.234,29.883l29.297-2.826L1211.782,211.717z"/>
		<path fill="#996666" d="M1176.158,265.629c73.716,16.802,147.096-29.335,163.899-103.051c2.076-9.113,3.189-18.22,3.409-27.216
			c0.907,12.746-0.02,25.837-3.007,38.941c-16.281,71.428-87.385,116.135-158.815,99.854c-33.065-7.538-60.397-26.826-78.61-52.453
			C1121.449,243.029,1146.58,258.887,1176.158,265.629z"/>
		<circle fill="#CC9999" cx="1238.115" cy="145.505" r="23.868"/>
		<circle cx="1236.149" cy="139.589" r="21.572"/>
		<circle fill="#FFFFFF" cx="1246.43" cy="145.838" r="8.85"/>
		<path d="M1210.011,78l3.428,19.183c0,0,15.348,2.736,21.418,3.919c6.069,1.183,21.759,10.642,21.759,10.642l0.322-15.521
			c0,0-9.411-4.885-21.53-10.461C1223.291,80.187,1210.011,78,1210.011,78z"/>
		<path d="M1173.153,174.65c-2.878-0.073-5.424,3.427-6.495,8.402c-3-2.098-4.784-4.684-4.808-7.497
			c-0.061-7.157,11.255-13.056,25.275-13.175c14.02-0.12,25.435,5.584,25.496,12.741c0.031,3.652-2.906,6.975-7.649,9.37
			c-0.768-7.141-3.976-12.494-7.87-12.53c-4.524-0.04-8.257,7.111-8.338,15.974c-0.001,0.11,0.001,0.219,0.001,0.327
			c-0.47,0.017-0.942,0.03-1.419,0.033c-2.735,0.024-5.369-0.177-7.841-0.565C1179.634,180.583,1176.813,174.745,1173.153,174.65z"
			/>
		<path fill="none" stroke="#000000" stroke-width="4" stroke-miterlimit="10" d="M1280.749,215.781
			c0,0-28.622,26.971-44.836,21.546c-16.214-5.427-16.206-33.211-55.32-35.718s-32.34,23.391-48.686,22.893
			c-6.654-0.203-24.093-30.238-24.093-30.238"/>
		<path d="M1253.796,235.258c-4.77,2.708,10.483-10.709,15.105-17.204c4.566-6.416,12.093-7.802,13.656-5.979
			c1.562,1.822-1.28,8.47-7.998,12.579C1261.444,232.678,1255.884,234.072,1253.796,235.258z"/>
		<path d="M1118.284,210.018c2.576,2.722-4.712-9.094-6.434-14.261c-1.703-5.105-6.346-7.515-7.731-6.636
			c-1.385,0.879-0.856,5.791,2.714,9.819C1113.801,206.804,1117.155,208.826,1118.284,210.018z"/>
		<path fill="none" stroke="#000000" stroke-width="2" stroke-miterlimit="10" d="M1195.749,216.892c0,0-2.16-5.354-16.92-7.93
			c-14.76-2.576-21.22,3.667-21.22,3.667"/>
		
			<ellipse transform="matrix(-0.9848 0.1734 -0.1734 -0.9848 2489.6064 182.5161)" fill="#666666" cx="1236.83" cy="200.016" rx="2.271" ry="1.998"/>
		
			<ellipse transform="matrix(-0.9848 0.1734 -0.1734 -0.9848 2451.2168 191.5514)" fill="#666666" cx="1217.241" cy="202.856" rx="2.271" ry="1.998"/>
		
			<ellipse transform="matrix(-0.9848 0.1734 -0.1734 -0.9848 2456.5813 165.3845)" fill="#666666" cx="1221.066" cy="190.007" rx="2.271" ry="1.998"/>
		
			<ellipse transform="matrix(-0.9848 0.1734 -0.1734 -0.9848 2473.4128 209.4915)" fill="#666666" cx="1227.555" cy="212.796" rx="2.271" ry="1.998"/>
		
			<ellipse transform="matrix(0.9848 -0.1734 0.1734 0.9848 -16.6883 198.591)" fill="#666666" cx="1128.158" cy="194.8" rx="2.271" ry="1.998"/>
		
			<ellipse transform="matrix(0.9848 -0.1734 0.1734 0.9848 -14.567 202.8852)" fill="#666666" cx="1153.794" cy="184.807" rx="2.271" ry="1.998"/>
		
			<ellipse transform="matrix(0.9848 -0.1734 0.1734 0.9848 -15.6717 200.3717)" fill="#666666" cx="1138.857" cy="189.872" rx="2.271" ry="1.998"/>
		
			<ellipse transform="matrix(0.9848 -0.1734 0.1734 0.9848 -17.122 201.9409)" fill="#666666" cx="1147.112" cy="198.957" rx="2.271" ry="1.998"/>
		
			<line fill="#666666" stroke="#000000" stroke-width="2" stroke-miterlimit="10" x1="1184.246" y1="179.225" x2="1182.062" y2="201.392"/>
		<path fill="#996666" d="M1226.825,138.844c-4.682,0.824-8.757,3.048-11.897,6.159c-0.279-0.906-0.53-1.83-0.699-2.79
			c-2.153-12.226,6.014-23.882,18.237-26.034c12.227-2.153,23.881,6.013,26.034,18.239c1.328,7.543-1.281,14.862-6.338,19.873
			C1248.851,143.652,1238.091,136.86,1226.825,138.844z"/>
		<path fill="#333333" d="M1090.654-34.419c4.014-3.881,8.661-6.556,14.028-7.499c12.124-2.131,23.263,27.551,28.171,69.799
			c10.664-7.188,22.486-12.921,35.237-16.853c13.705,14.208-20.824,55.56-3.6,92.301c24.07,51.342,3.283,70.205-52.563,80.039
			c-10.356,1.824-20.623,2.023-30.54,0.787c-2.464-6.952-4.395-14.198-5.717-21.705c-4.041-22.948-1.985-45.558,4.995-66.174
			c0.011-0.6,0.026-1.212,0.045-1.85c0.51-17.467-9.372-26.453-12.25-41.864c-0.872-4.668-0.964-14.639,0.258-26.431
			c-17.308,4.56-31.204,6.677-33.656,3.186C1029.247,21.036,1057.097-8.392,1090.654-34.419z"/>
		<path opacity="0.5" fill="#996666" d="M1319.392,44.496c-0.073-0.623-0.155-1.183-0.245-1.657
			c-1.671-8.764,2.584-14.093,2.787-22.095c0.204-8.001-18.78-63.454-25.628-63.06c-6.463,0.37-9.862,28.811-8.705,56.024
			C1301.313,20.179,1312.507,31.061,1319.392,44.496z"/>
		<circle fill="#CC9999" cx="1143.686" cy="154.301" r="15.903"/>
		<circle cx="1140.717" cy="147.625" r="14.137"/>
		<circle fill="#FFFFFF" cx="1132.739" cy="145.222" r="6.361"/>
		<path d="M1160.833,112.028c0,0-16.771,1.931-23.029,5.076c-6.258,3.147-21.903,11.014-21.903,11.014l-10.276-6.369
			c0,0,11.729-10.245,20.086-14.784c8.356-4.538,27.149-9.636,27.149-9.636L1160.833,112.028z"/>
		<path opacity="0.5" fill="#996666" d="M1090.948,63.72c-0.027-0.627-0.034-1.191-0.021-1.674
			c0.261-8.918-4.785-13.507-6.254-21.374c-1.469-7.869,8.485-65.629,15.309-66.326c6.44-0.658,14.305,26.883,17.474,53.937
			C1104.944,36.845,1095.616,49.363,1090.948,63.72z"/>
		<path fill="#996666" d="M1134.699,146.735c-3.103,0.546-5.803,2.02-7.884,4.081c-0.185-0.6-0.351-1.214-0.463-1.849
			c-1.427-8.103,3.986-15.827,12.085-17.253c8.103-1.427,15.827,3.985,17.253,12.087c0.88,4.999-0.849,9.851-4.2,13.17
			C1149.297,149.921,1142.166,145.421,1134.699,146.735z"/>
	</g>
	<polygon display="inline" fill="#FFCC00" points="1411.867,106.457 1393.545,111.975 1378.612,100.01 1378.198,119.141 
		1362.205,129.645 1380.27,135.95 1385.319,154.408 1396.899,139.174 1416.012,140.076 1405.102,124.356 	"/>
	<polygon display="inline" fill="#FFCC00" points="1191.786,-54.616 1173.513,-48.937 1158.475,-60.768 1158.23,-41.635 
		1142.331,-30.989 1160.452,-24.844 1165.663,-6.432 1177.108,-21.768 1196.228,-21.035 1185.18,-36.658 	"/>
	<polygon display="inline" fill="#FFCC00" points="1033.787,175.262 1025.754,192.63 1006.893,195.859 1020.927,208.865 
		1018.17,227.8 1034.876,218.472 1052.033,226.946 1048.324,208.174 1061.685,194.477 1042.686,192.203 	"/>
</g>
<g id="CHARACTER_LVL_1">
	<defs>
		<rect id="SVGID_13_" width="1300" height="700"/>
	</defs>
	<clipPath id="SVGID_14_">
		<use xlink:href="#SVGID_13_"  overflow="visible"/>
	</clipPath>
	<g clip-path="url(#SVGID_14_)">
		
			<ellipse transform="matrix(0.7521 -0.659 0.659 0.7521 -431.383 281.4969)" fill="#666666" cx="158.527" cy="714.223" rx="16.316" ry="23.546"/>
		
			<ellipse transform="matrix(0.8548 -0.5189 0.5189 0.8548 -339.337 217.1182)" fill="#666666" cx="218.352" cy="715.002" rx="15.223" ry="21.968"/>
		<path fill="#333333" d="M229.82,732.782c-7.187,4.361-18.116-0.508-24.413-10.879c-3.596-5.923-4.898-12.358-4.019-17.601
			c-2.19,5.651-1.2,13.588,3.162,20.772c6.297,10.371,17.227,15.24,24.413,10.879c3.082-1.871,4.971-5.138,5.631-9.076
			C233.622,729.384,232.028,731.442,229.82,732.782z"/>
		<path fill="#333333" d="M172.387,731.315c-8.372,5.08-21.106-0.592-28.443-12.675c-4.189-6.9-5.707-14.398-4.682-20.507
			c-2.552,6.583-1.398,15.83,3.684,24.201c7.337,12.083,20.07,17.756,28.443,12.675c3.591-2.18,5.792-5.987,6.561-10.574
			C176.819,727.356,174.96,729.753,172.387,731.315z"/>
		<path fill="#003366" d="M246.193,642.524c0.319-22.942-25.878-41.909-58.513-42.362c-32.635-0.454-59.349,17.776-59.668,40.718
			c-0.108,7.766,2.825,15.075,8.015,21.366l-3.23,48.459c0,0,10.497,7.155,23.715,7.391c13.218,0.236,21.915-4.349,21.915-4.349
			l2.053-30.803c1.986,0.17,4.003,0.271,6.045,0.299c5.056,0.07,9.969-0.309,14.665-1.083l-2.111,31.672
			c0,0,9.596,5.481,19.922,5.847c10.326,0.366,18.638-3.276,18.638-3.276l3.872-58.083
			C244.451,653.472,246.115,648.14,246.193,642.524z"/>
		<path fill="#000033" d="M141.735,661.49c-7.963-7.171-12.763-16.048-12.947-25.476c-0.125,0.816-0.222,1.639-0.277,2.474
			c-0.69,10.349,4.231,20.166,12.894,27.965L141.735,661.49z"/>
		<g>
			<path fill="#000033" d="M235.075,667.701c6.294-5.958,10.204-13.286,10.745-21.394c0.056-0.834,0.07-1.663,0.054-2.488
				c-1.096,7.12-4.827,13.559-10.466,18.903L235.075,667.701z"/>
			<path fill="#000033" d="M214.93,674.547c-8.967,3.001-19.28,4.383-30.151,3.659c-4.2-0.28-8.271-0.869-12.182-1.715l-0.331,4.968
				c3.91,0.846,7.983,1.428,12.182,1.708c10.87,0.725,21.184-0.655,30.151-3.655L214.93,674.547z"/>
		</g>
		<path fill="#009933" d="M274.605,607.299c0,0-9.052-18.371-10.956-23.048c-0.407-0.999-0.849-2.509-1.292-4.259
			c-0.241-4.8-3.76-15.974-3.76-15.974c-6.355-14.44-20.03-24.883-36.492-25.98c-0.99-0.066-1.973-0.084-2.951-0.082
			c-7.276-8.533-17.715-14.206-29.611-14.999c-14.375-0.958-27.583,5.434-36.173,16.036c-23.173-0.52-43.169,21.122-45.041,49.205
			c-1.915,28.733,15.865,53.314,39.716,54.904c2.4,0.16,4.768,0.073,7.092-0.228c5.289,3.039,11.694,5.031,18.687,5.497
			c18.447,1.23,34.27-8.565,36.537-22.179c1.893,0.393,3.834,0.663,5.816,0.795c0.403,0.027,0.801,0.033,1.202,0.049
			c1.323,10.606,9.543,19.065,20.024,19.764c11.977,0.798,16.617-5.478,11.522-31.445L274.605,607.299z"/>
		<path fill="#333333" d="M153.318,567.473"/>
		<path fill="#336600" d="M151.491,586.394c-0.086,6.127,3.642,15.574,7.391,19.859c3.749,4.284,6.598,7.541,6.598,7.541
			s-4.398-18.385-3.535-24.443c2.051-14.388-4.135-20.287-5.902-20.405S151.577,580.267,151.491,586.394z"/>
		<path fill="#336600" d="M246.079,580.434c0,0-1.193,15.416,0.168,21.959c1.361,6.543,2.722,13.092,2.722,13.092l9.156-2.984
			c0,0-5.314-10.32-6.588-14.436C250.262,593.95,246.079,580.434,246.079,580.434z"/>
		<path fill="#336600" d="M121.824,589.097c1.49-22.354,14.469-40.614,31.388-46.876l0.22-3.304
			c-0.021,0.025-0.042,0.049-0.063,0.075c-23.173-0.52-43.169,21.122-45.041,49.205c-1.187,17.809,5.197,34.015,15.897,44.149
			l13.492,0.899C127.017,623.114,120.637,606.905,121.824,589.097z"/>
		<path fill="#CCCCCC" d="M79.872,663.272"/>
		
			<radialGradient id="SVGID_15_" cx="168.5837" cy="650.9126" r="36.412" gradientTransform="matrix(0.9978 0.0665 -0.0665 0.9978 33.9676 -13.1323)" gradientUnits="userSpaceOnUse">
			<stop  offset="0" style="stop-color:#F9D8B7"/>
			<stop  offset="1" style="stop-color:#FFCC99"/>
		</radialGradient>
		<path fill="url(#SVGID_15_)" d="M184.485,644.652c-0.513-0.188-1.03-0.348-1.546-0.484c2.378-1.548,4.167-3.638,5.106-6.202
			c1.339-3.652,0.742-7.681-1.347-11.461c-1.582-4.664-5.216-8.62-10.249-10.464c-0.745-0.273-15.754-4.42-20.309-3.809
			c-13.637-3.211-31.444,14.85-31.616,16.083c-3.848,6.544-3.662,18.339,1.133,30.26c2.464,6.127,5.785,11.385,9.422,15.33
			c1.923,3.237,4.949,5.87,8.785,7.276c6.675,2.447,13.87,0.476,18.309-4.417c2.779-0.174,5.45-1.029,7.777-2.458
			c0.965,0.595,2.003,1.104,3.11,1.509c8.748,3.207,18.396-1.169,21.552-9.775C197.765,657.436,193.233,647.86,184.485,644.652z"/>
		<path fill="#CC9966" d="M190.285,669.447c-5.478,3.91-9.579,8.075-18.945,2.788c-0.337-0.238-0.62-0.236-1.177-0.698
			c-2.491-1.544-5.334-3.714-8.649-6.688c5.141,7.136,2.368,3.214,5.763,7.969c0.25,0.35,0.513,0.677,0.784,0.993
			c-1.183,1.155-2.474,2.019-4.423,2.053c-1.426,0.308-2.85-0.432-3.55-0.67c-1.549-0.535-3.384-1.408-5.627-2.741
			c3.401,3.178,1.559,1.427,3.81,3.547c0.107,0.101,0.22,0.186,0.329,0.279c-6.028,4.324-11.875,6.855-26.559-6.079
			c5.079,7.042,2.543,3.226,5.896,7.919c5.003,7.001,14.62,6.697,21.906,1.49c0.768-0.549,1.473-1.151,2.119-1.795
			c2.553,0.385,5.295-0.666,7.385-2.689c5.304,4.683,13.353,4.045,19.569-0.392c3.943-2.814,6.199-7.109,6.559-11.586
			C194.365,665.585,192.623,667.777,190.285,669.447z"/>
		<path fill="#CC9966" d="M178.979,641.44c-0.194-1.672-0.482-3.247-1.144-4.622c-0.21,1.219-0.351,2.745-0.352,4.188
			c-2.891-0.845-5.606-1.79-8.204-1.618c1.688,1.042,4.109,2.214,6.094,2.751c0.751,0.203,1.484,0.422,2.196,0.671
			c0.005,0.047,0.886,0.311,1.616,0.642c4.2,1.897,7.332,5.381,7.897,13.841c1.041-3.954,0.442-1.802,1.152-4.424
			C189.274,649.023,184.855,643.181,178.979,641.44z"/>
		<path fill="#CC9966" d="M122.216,634.541c-0.767,4.92-0.358,17.51,2.535,20.971c-0.941-2.56,0.411-13.227,0.865-16.146
			c1.378-8.848,6.716-16.916,17.37-25.028C133.225,615.516,123.594,625.692,122.216,634.541z"/>
		
			<radialGradient id="SVGID_16_" cx="285.6751" cy="631.9533" r="31.9455" gradientTransform="matrix(0.9978 0.0665 -0.0665 0.9978 33.9676 -13.1323)" gradientUnits="userSpaceOnUse">
			<stop  offset="0" style="stop-color:#F9D8B7"/>
			<stop  offset="1" style="stop-color:#FFCC99"/>
		</radialGradient>
		<path fill="url(#SVGID_16_)" d="M308.853,635.834c0.552-8.279-5.28-15.612-13.559-17.833c0.133-0.441,0.222-0.892,0.253-1.355
			c0.41-6.148-8.59-11.755-20.101-12.522c-4.89-0.326-9.445,0.276-13.101,1.546c-8.49,0.26-15.752,9.004-16.5,20.225
			c-0.057,0.854-0.07,1.697-0.051,2.53c-0.12,0.674-0.209,1.36-0.255,2.06c-0.611,9.167,5.496,17.12,13.845,18.395
			c-0.354,10.291,6.755,19.017,16.16,19.644c6.719,0.448,12.824-3.358,16.135-9.303c0.872,0.28,1.79,0.462,2.743,0.525
			c6.436,0.429,12.008-4.557,12.446-11.137c0.115-1.722-0.136-3.381-0.681-4.902C307.706,641.402,308.66,638.727,308.853,635.834z"
			/>
		<path fill="#CC9966" d="M305.863,652.761c-3.22,5.779-12.253,6.884-20.177,2.47c-6.698-3.732-10.46-10.214-9.518-15.62
			c-2.845,5.756,0.968,13.752,8.717,18.069c7.924,4.415,16.958,3.309,20.178-2.47c0.498-0.894,0.827-1.847,0.999-2.837
			C305.998,652.503,305.933,652.633,305.863,652.761z"/>
		<path fill="#CC9966" d="M308.068,638.96c-3.083,5.853-12.089,7.17-20.114,2.943c-3.125-1.646-5.63-3.893-7.356-6.365
			c-0.411,0.58-0.843,1.126-1.29,1.645c1.719,2.795,4.434,5.36,7.903,7.187c8.026,4.227,17.031,2.91,20.114-2.943
			c0.477-0.906,0.783-1.866,0.932-2.859C308.196,638.699,308.136,638.831,308.068,638.96z"/>
		<path fill="#CC9966" d="M269.329,663.939c-2.476-1.344-4.564-3.055-6.204-4.946c0.022,0.005,0.043,0.012,0.065,0.017
			c-0.032-0.014-0.061-0.033-0.093-0.049c-1.465-1.698-2.559-3.543-3.224-5.413c-0.206-2.203,0.326-4.724,1.665-7.081
			c1.449-2.552,3.547-4.396,5.725-5.28c-0.377-0.149-0.745-0.32-1.094-0.536c-0.04-0.025-0.073-0.057-0.112-0.083
			c-2.283,0.833-4.507,2.728-6.022,5.395c-0.547,0.965-0.956,1.957-1.24,2.945c-0.445,1.355-0.573,2.797-0.416,4.266
			c0.002,0.025,0.003,0.052,0.006,0.077c0.56,4.9,4.299,10.074,10.139,13.247c8.298,4.508,17.69,3.253,20.976-2.796
			c0.508-0.937,0.839-1.932,1.007-2.964c-0.064,0.135-0.131,0.271-0.202,0.405C287.02,667.194,277.626,668.446,269.329,663.939z"/>
		<path fill="#CC9966" d="M294.961,614.363l-14.08,17.819l-0.051,0.07c-0.529,0.77-1.109,1.505-1.724,2.183l-0.539,0.57
			c-2.847,2.893-6.256,4.506-9.117,4.316c-0.992-0.066-1.894-0.348-2.683-0.838c-1.884-1.17-2.972-3.442-3.062-6.397
			c-0.097-3.149,0.941-6.64,2.923-9.83c1.333-2.146,3.01-3.991,4.865-5.376l-3.663-0.244c-1.265,1.247-2.412,2.685-3.391,4.26
			c-2.246,3.617-3.422,7.619-3.31,11.27c0.118,3.845,1.637,6.866,4.278,8.507c1.151,0.715,2.454,1.126,3.871,1.22
			c3.355,0.224,7.05-1.321,10.278-4.264l0.186,0.151l1.302-1.646c0.672-0.744,1.305-1.547,1.885-2.387l12.201-15.442
			c0.123-0.421,0.209-0.852,0.238-1.293C295.428,616.112,295.282,615.226,294.961,614.363z"/>
		<path fill="#CC9966" d="M288.774,623.319l-1.13,2.98c6.541-2.407,13.215-1.533,16.881,2.092
			C301.919,623.67,295.512,621.776,288.774,623.319z"/>
		<path fill="#CC9966" d="M264.101,635.897c-7.324-2.723-12.145-7.624-12.084-11.841c-1.935,4.578,3.258,10.703,11.837,13.839
			c0.037,0.013,0.074,0.026,0.112,0.039L264.101,635.897z"/>
		<path fill="#FFCC99" d="M364.051,394.491c3.188,15.356,4.876,29.401-2.571,30.947c-7.447,1.546-17.996-9.778-21.183-25.135
			c-3.188-15.356,6.178-30.601,13.624-32.147C361.368,366.611,360.862,379.135,364.051,394.491z"/>
		<path fill="#CC9966" d="M360.186,396.154c0.374-6.648,0.2-12.651-3.024-12.833c-3.224-0.181-11.59,6.779-7.316,11.885
			c6.417,7.665,5.691,6.051,7.74,12.642C358.545,410.932,359.811,402.802,360.186,396.154z"/>
		
			<radialGradient id="SVGID_17_" cx="188.3519" cy="409.0324" r="148.502" gradientTransform="matrix(0.9978 0.0665 -0.0665 0.9978 33.9676 -13.1323)" gradientUnits="userSpaceOnUse">
			<stop  offset="0" style="stop-color:#F9D8B7"/>
			<stop  offset="1" style="stop-color:#FFCC99"/>
		</radialGradient>
		<path fill="url(#SVGID_17_)" d="M192.459,266.811c-58.987,6.006-105.862,47.244-121.894,100.71
			c-1.956-4.164-4.774-6.79-8.614-7.249c-11.544-1.379-18.524,16.324-21.368,40.128c-2.844,23.805-0.473,44.698,11.07,46.076
			c6.448,0.771,11.471-4.416,15.146-13.292c12.823,72.721,79.843,124.272,154.478,116.672
			c78.161-7.958,135.072-77.771,127.114-155.932C340.434,315.763,270.62,258.852,192.459,266.811z"/>
		<path fill="#CC9966" d="M48.558,398.543c2.487-11.231,5.159-21.262,7.92-20.871c2.76,0.391,6.794,13.868,1.086,21.51
			c-8.569,11.473-7.285,8.922-11.766,19.535C43.703,423.681,46.071,409.775,48.558,398.543z"/>
		<circle fill="#CC9966" cx="272.254" cy="435.966" r="9.662"/>
		<circle fill="#CC9966" cx="189.388" cy="435.117" r="14.751"/>
		<circle cx="187.135" cy="431.186" r="12.208"/>
		<circle fill="#FFFFFF" cx="189.486" cy="427.542" r="5.47"/>
		<g>
			<path fill="#CC9966" d="M231.778,466.731c-2.915-0.194-6.74-2.685-7.575-3.251l1.445-2.133c1.953,1.321,5.465,3.118,6.798,2.789
				c0.158-0.039,0.185-0.09,0.211-0.138c0.753-1.414-1.308-5.249-2.938-7.396l2.051-1.559c0.842,1.107,4.954,6.801,3.161,10.166
				c-0.388,0.728-1.033,1.222-1.867,1.428C232.669,466.736,232.235,466.762,231.778,466.731z"/>
		</g>
		<path d="M179.589,424c1.022,0.346-0.988,6.288-3.617,5.79s-4.617-16.688-4.617-16.688S175.088,421.936,179.589,424z"/>
		<path d="M185.001,420.439c0.831,0.521-2.201,5.353-4.422,4.358c-2.221-0.996-0.561-15.735-0.561-15.735
			S181.455,417.662,185.001,420.439z"/>
		<path d="M190.111,419.608c0.45,0.594-3.003,3.211-4.312,1.907c-1.31-1.304,3.829-11.327,3.829-11.327
			S188.338,416.683,190.111,419.608z"/>
		<polygon fill="#CC3333" points="208.432,413.055 215.172,412.232 200.268,390.114 180.647,388.874 181.896,393.231 
			198.138,394.57 		"/>
		<polygon fill="#CC3333" points="258.572,414.278 253.313,414.123 263.234,395.991 278.287,393.632 277.635,397.083 
			265.196,399.277 		"/>
		<path d="M274.13,427.919c-0.636,0.505,2.299,4.199,4.034,3.178c1.735-1.022-0.979-12.987-0.979-12.987
			S276.79,425.313,274.13,427.919z"/>
		<path d="M269.393,426.776c-0.455,0.58,2.92,3.228,4.239,1.958c1.319-1.27-3.607-11.279-3.607-11.279
			S271.196,423.908,269.393,426.776z"/>
		<path d="M265.523,428.131c-0.167,0.534,2.942,1.508,3.536,0.252c0.596-1.256-5.592-7.042-5.592-7.042
			S266.032,425.61,265.523,428.131z"/>
		<circle cx="270.827" cy="434.795" r="8.588"/>
		<circle fill="#FFFFFF" cx="270.812" cy="431.781" r="3.865"/>
		<path d="M222.203,498.408c-46.02-0.685-83.577-23.287-88.024-51.672c-6.543,7.711-10.313,16.531-10.453,25.943
			c-0.465,31.224,39.142,57.133,88.466,57.867c49.323,0.734,89.685-23.984,90.148-55.208c0.032-2.091-0.122-4.157-0.442-6.195
			C286.735,487.012,256.658,498.921,222.203,498.408z"/>
		<path fill="#CC9999" d="M206.762,504.698c-20.713-0.308-37.639,8.014-37.875,18.605c12.763,4.705,27.492,7.499,43.211,7.733
			c10.995,0.164,21.543-0.941,31.305-3.096c0.413-1.116,0.649-2.265,0.667-3.444C244.228,513.871,227.525,505.007,206.762,504.698z"
			/>
		<polygon fill="none" stroke="#000000" stroke-width="10" stroke-miterlimit="10" points="201.968,471.95 140.142,440.716 
			152.31,393.758 228.788,408.539 		"/>
		<polygon fill="none" stroke="#000000" stroke-width="10" stroke-miterlimit="10" points="253.03,469.218 308.257,454.179 
			307.485,397.967 242.061,411.035 		"/>
		<polygon points="308.984,416.235 345.817,374.794 341.853,366.477 308.49,394.593 		"/>
		<polygon points="245.259,420.313 224.192,418.909 227.983,410.463 243.266,411.482 		"/>
		
			<radialGradient id="SVGID_18_" cx="39.7248" cy="518.1541" r="50.3707" gradientTransform="matrix(0.9978 0.0665 -0.0665 0.9978 33.9676 -13.1323)" gradientUnits="userSpaceOnUse">
			<stop  offset="0" style="stop-color:#DD4B24"/>
			<stop  offset="1" style="stop-color:#CC3300"/>
		</radialGradient>
		<path fill="url(#SVGID_18_)" d="M68.365,444.425c-19.067,5.745-39.104,24.76-51.696,51.514
			c-12.592,26.755-14.474,54.314-6.75,72.669c19.067-5.746,39.104-24.76,51.696-51.515
			C74.207,490.339,76.089,462.779,68.365,444.425z"/>
		<path fill="#CC9966" d="M202.803,545.319c-81.045-5.402-142.364-75.482-136.962-156.526c0.668-10.019,2.327-19.734,4.87-29.061
			c-4.857,12.839-7.934,26.598-8.894,41.004c-5.235,78.53,54.183,146.435,132.714,151.67c36.353,2.423,70.422-9.015,97.058-29.783
			C266.07,538.904,235.322,547.487,202.803,545.319z"/>
		<polygon points="147.097,412.23 67.932,372.094 68.466,364.077 150.459,390.845 		"/>
		
			<radialGradient id="SVGID_19_" cx="198.0168" cy="324.0398" r="106.4499" gradientTransform="matrix(0.9978 0.0665 -0.0665 0.9978 33.9676 -13.1323)" gradientUnits="userSpaceOnUse">
			<stop  offset="0" style="stop-color:#DD4B24"/>
			<stop  offset="1" style="stop-color:#CC3300"/>
		</radialGradient>
		<path fill="url(#SVGID_19_)" d="M346.26,374.699c-17.892-68.08-83.145-114.909-155.374-107.555
			c-58.93,6-106.03,46.394-123.448,99.235c2.659,2.024,5.605,3.546,8.819,4.477c21.941,6.352,47.994-17.047,58.19-52.265
			c0.808-2.789,1.49-5.569,2.054-8.326c24.693,34.953,82.131,61.9,150.564,66.461C307.735,378.104,327.682,377.322,346.26,374.699z"
			/>
	</g>
	<g clip-path="url(#SVGID_14_)">
		
			<rect x="921.065" y="571.293" transform="matrix(-1 0.0057 -0.0057 -1 1974.3707 1170.0435)" fill="#999999" width="128.922" height="33.058"/>
		
			<rect x="921.015" y="559.387" transform="matrix(-1 0.0057 -0.0057 -1 1974.2312 1152.287)" fill="#CCCCCC" width="128.921" height="39.132"/>
		<path fill="#999999" d="M1237.829,549.795l2.713,36.841c-12.466-13.214-30.549-20.917-50.077-19.48
			c-28.02,2.061-50.361,22.29-56.342,48.31c-2.225-5.688-3.65-11.799-4.122-18.21c-2.534-34.431,23.324-64.394,57.753-66.929
			C1207.279,528.89,1225.366,536.586,1237.829,549.795z"/>
		<path fill="#999999" d="M1234.669,536.564l2.711,36.839c-12.464-13.212-30.547-20.917-50.075-19.48
			c-28.021,2.062-50.361,22.291-56.344,48.311c-2.224-5.689-3.649-11.803-4.122-18.211c-2.533-34.43,23.325-64.396,57.754-66.929
			C1204.118,515.658,1222.205,523.354,1234.669,536.564z"/>
		<g>
			
				<ellipse transform="matrix(-0.6069 -0.7947 0.7947 -0.6069 1159.2213 2064.7612)" fill="#663300" cx="1090.197" cy="745.721" rx="15.311" ry="22.096"/>
			<path fill="#996633" d="M1072.94,758.172c5.132,6.718,17.154,6.164,26.855-1.242c5.539-4.231,9.117-9.778,10.217-15.012
				c-0.02,6.096-3.857,13.166-10.576,18.297c-9.702,7.405-21.723,7.96-26.856,1.241c-2.2-2.883-2.772-6.635-1.948-10.565
				C1070.623,753.595,1071.362,756.107,1072.94,758.172z"/>
		</g>
		<path fill="#993333" d="M1111.818,691.512l17.143-38.87l64.626,21.813c0,0,2.618,12.506-2.243,24.883
			c-4.136,10.529-10.252,16.673-11.988,18.273L1111.818,691.512z"/>
		
			<ellipse transform="matrix(-0.9884 0.1519 -0.1519 -0.9884 2307.7395 1150.9757)" fill="#993333" cx="1109.905" cy="663.638" rx="59.718" ry="42.022"/>
		<g>
			
				<ellipse transform="matrix(-0.1669 0.986 -0.986 -0.1669 2073.321 -404.0346)" fill="#663300" cx="1207.35" cy="673.884" rx="16.411" ry="23.683"/>
			<path fill="#996633" d="M1229.298,676.745c-0.063-9.85-11.637-17.767-25.854-17.681c-8.118,0.049-15.341,2.703-20.033,6.801
				c4.293-5.656,12.823-9.543,22.672-9.604c14.217-0.085,25.789,7.831,25.853,17.68c0.025,4.226-2.076,8.116-5.598,11.194
				C1228.243,682.629,1229.314,679.771,1229.298,676.745z"/>
		</g>
		<path fill="#993333" d="M1179.337,717.688l-33.031-27.309l44.644-32.122c0,0,11.664,5.217,18.835,16.414
			c6.099,9.527,7.486,18.084,7.764,20.429L1179.337,717.688z"/>
		<path fill="#663333" d="M1115.615,700.787c31.376-4.822,54.383-25.992,52.921-48.029c0.203,0.836,0.376,1.683,0.509,2.543
			c3.526,22.942-20.043,45.598-52.643,50.608c-32.598,5.01-61.883-9.524-65.409-32.464c-0.132-0.86-0.222-1.721-0.279-2.579
			C1055.938,692.325,1084.239,705.609,1115.615,700.787z"/>
		<path fill="#993333" d="M1129.927,681.432l-22.269,70.379c-2.941,0.299-11.759,0.868-19.783-1.949
			c-9.804-3.442-16.254-9.899-16.254-9.899l22.141-69.976L1129.927,681.432z"/>
		<path fill="#CCCCCC" d="M1038.485,607.433c0,0-0.01-9.759,0.062-20.617c0.071-10.856,9.636-26.825,25.722-30.905
			c0.968-0.245,1.936-0.442,2.904-0.617c5.646-9.764,14.941-17.276,26.564-20.223c14.046-3.563,28.274,0.357,38.701,9.282
			c22.829-4.729,27.708,17.821,34.668,45.261c7.121,28.076,7.471,57.891,0.638,59.624c-18.025,4.572-86.211,24.198-115.152,21.187
			C1040.583,669.175,1038.485,607.433,1038.485,607.433z"/>
		<path fill="#333333" d="M1137.669,572.519"/>
		<path fill="#CCCCCC" d="M1236.024,542.234l2.712,36.841c-12.465-13.214-30.549-20.918-50.077-19.482
			c-28.021,2.064-50.36,22.293-56.344,48.313c-2.223-5.69-3.648-11.801-4.12-18.211c-2.535-34.431,23.324-64.394,57.752-66.931
			C1205.472,521.329,1223.559,529.025,1236.024,542.234z"/>
		<g>
			
				<radialGradient id="SVGID_20_" cx="-2828.4888" cy="5319.6055" r="36.6211" gradientTransform="matrix(0.4412 0.8975 0.8975 -0.4412 -2267.5461 5452.7661)" gradientUnits="userSpaceOnUse">
				<stop  offset="0" style="stop-color:#F9D8B7"/>
				<stop  offset="1" style="stop-color:#FFCC99"/>
			</radialGradient>
			<path fill="url(#SVGID_20_)" d="M1265.971,592.109c-0.373-0.406-0.719-0.824-1.043-1.254c-0.53,2.803-1.789,5.268-3.815,7.123
				c-2.885,2.643-6.861,3.63-11.177,3.132c-4.943,0.315-10.014-1.552-13.655-5.528c-0.538-0.586-10.14-12.962-11.316-17.433
				c-8.204-11.456,1.781-34.931,2.862-35.563c4.614-6.084,15.656-10.424,28.581-10.528c6.64-0.051,12.803,1.025,17.865,2.898
				c3.748,0.549,7.354,2.359,10.13,5.387c4.83,5.274,5.751,12.719,2.898,18.721c0.901,2.652,1.129,5.464,0.69,8.175
				c0.924,0.67,1.792,1.441,2.593,2.316c6.33,6.91,5.953,17.56-0.844,23.789C1282.943,599.569,1272.301,599.018,1265.971,592.109z"
				/>
			<path fill="#CC9966" d="M1290.893,587.284c1.541-6.592,3.845-12.001-4.656-18.689c-0.35-0.224-0.457-0.486-1.099-0.828
				c-2.388-1.727-5.495-3.539-9.531-5.487c8.605,2.05,3.895,0.973,9.618,2.312c0.422,0.097,0.827,0.218,1.224,0.349
				c0.621-1.544,0.931-3.073,0.216-4.901c-0.257-1.443-1.492-2.485-1.98-3.046c-1.091-1.234-2.607-2.609-4.703-4.184
				c4.256,1.947,1.923,0.906,4.757,2.187c0.133,0.061,0.256,0.132,0.384,0.199c1.716-7.261,1.832-13.67-15.818-22.378
				c8.493,2.031,3.974,1.132,9.622,2.454c8.426,1.976,11.824,11.037,9.769,19.807c-0.217,0.924-0.508,1.81-0.859,2.656
				c1.336,2.228,1.407,5.183,0.325,7.898c6.385,3.144,8.873,10.874,7.124,18.355c-1.109,4.744-4.241,8.485-8.268,10.533
				C1288.864,592.558,1290.236,590.1,1290.893,587.284z"/>
			<path fill="#CC9966" d="M1260.517,587.485c-1.629,0.461-3.204,0.793-4.737,0.705c1.053-0.662,2.42-1.376,3.761-1.93
				c-1.892-2.366-3.81-4.531-4.644-7.013c1.615,1.172,3.631,2.976,4.892,4.616c0.476,0.621,0.959,1.22,1.463,1.785
				c0.047-0.013,0.629,0.706,1.217,1.258c3.372,3.181,7.811,4.761,15.896,2.049c-3.28,2.483-1.506,1.102-3.675,2.766
				C1271.51,594.159,1264.384,592.285,1260.517,587.485z"/>
			<path fill="#CC9966" d="M1232.377,537.327c4.283-2.594,16.151-7.034,20.477-5.668c-2.742,0.104-12.146,5.444-14.689,6.983
				c-7.702,4.67-13.164,12.722-16.632,25.735C1218.894,554.848,1224.672,541.994,1232.377,537.327z"/>
		</g>
		<g>
			
				<radialGradient id="SVGID_21_" cx="703.1769" cy="533.6249" r="41.7886" gradientTransform="matrix(-1 0.0057 0.0057 1 1606.6259 38.2053)" gradientUnits="userSpaceOnUse">
				<stop  offset="0" style="stop-color:#F9D8B7"/>
				<stop  offset="1" style="stop-color:#FFCC99"/>
			</radialGradient>
			<path fill="url(#SVGID_21_)" d="M860.599,597.559c-0.029-4.891,3.77-8.879,8.482-8.905c0,0,18.109-0.39,20.559-0.118
				c2.45,0.273,8.098-1.449,7.42-3.048c-0.678-1.599-10.895-2.743-13.507-3.613c-2.612-0.872-14.101-4.701-14.101-4.701
				c-3.926-0.307-7.047-4.213-7.074-9.008c-0.028-5.008,3.333-9.091,7.51-9.114c0.562-0.004,1.11,0.069,1.639,0.206l0,0
				c0,0,16.652,4.946,19.561,5.074c2.91,0.128,11.166,0.492,11.166,0.492c0.616-0.846-5.591-8.171-5.626-14.134
				c-0.037-6.561,3.9-11.905,8.79-11.932c1.742-0.009,3.366,0.657,4.742,1.813c0,0,3.891,5.383,7.784,8.002
				c3.892,2.621,13.348,5.573,13.348,5.573c12.134,3.004,21.175,14.079,21.25,27.337c0.085,14.969-11.29,27.286-25.773,28.377
				c0,0-32.024,3.127-33.674,3.141c-5.533,0.048-7.398-2.982-10.1-3.544c-1.452-0.301-0.037-4.503-8.436-4.617l-2.915,0.016
				C867.748,604.051,860.623,601.837,860.599,597.559z"/>
			<path fill="#CC9966" d="M898.473,550.655c0.034,5.962,6.242,13.286,5.626,14.132c0,0-0.766-0.034-1.907-0.084
				c0.209-1.193-5.629-8.255-5.663-14.038c-0.038-6.562,3.898-11.904,8.79-11.932c0.325-0.001,0.645,0.028,0.962,0.072
				C901.856,539.487,898.438,544.539,898.473,550.655z"/>
			<path fill="#CC9966" d="M869.238,573.253c0,0,11.489,3.828,14.103,4.699c2.611,0.87,19.322,4.569,19.998,6.168
				c0.383,0.901-1.242,1.842-3.172,2.441c-3.422-0.88-15.059-4.14-16.805-4.722c-2.612-0.871-14.101-4.698-14.101-4.698
				c-3.926-0.309-7.047-4.215-7.074-9.008c-0.004-0.67,0.057-1.321,0.167-1.949C863.079,570.053,865.858,572.987,869.238,573.253z"
				/>
			<path fill="#CC9966" d="M860.599,597.559c-0.004-0.669,0.07-1.318,0.202-1.949c0.749,3.378,3.349,6.019,6.633,6.7l-0.003,0.037
				c0,0,1.796,0.372,4.184,0.868c3.038-0.218,11.486-0.825,13.727-0.983c2.746-0.198,19.599-3.184,20.836-1.964
				c0.699,0.685-0.449,0.881-2.002,2.172c-3.498,0.499-17.331,2.076-17.331,2.076s-3.893,0.031-3.226,1.699
				c0.434,2.741,4.534,4.419,9.458,4.195c1.628,0.268,33.666-4.436,33.666-4.436c13.855-1.045,24.857-12.363,25.713-26.445
				c0.047,0.647,0.078,1.297,0.083,1.954c0.085,14.969-11.291,27.287-25.774,28.378c0,0-32.023,3.127-33.673,3.14
				c-7.476,0.059-13.246-6.189-15.95-6.75c-2.704-0.561-9.695-1.313-9.695-1.313l0.003-0.038
				C863.559,604.095,860.623,601.837,860.599,597.559z"/>
			<path fill="#CC9966" d="M903.563,563.206c9.563,9.651,31.774,19.985,38.411,16.868c-5.866,6.344-28.669-4.025-39.782-15.371
				C902.146,564.655,903.563,563.206,903.563,563.206z"/>
		</g>
		<path fill="#FFCC99" d="M899.195,431.159c-0.789,19.24-0.025,36.592,9.306,36.973c9.33,0.384,19.843-15.445,20.632-34.684
			c0.789-19.239-13.605-35.833-22.935-36.216C896.867,396.85,899.985,411.92,899.195,431.159z"/>
		<path fill="#CC9966" d="M904.209,432.402c-1.783-7.979-2.775-15.286,1.095-16.151c3.869-0.865,15.397,5.893,11.241,12.934
			c-6.241,10.569-5.684,8.468-6.847,16.863C909.153,449.976,905.993,440.381,904.209,432.402z"/>
		
			<radialGradient id="SVGID_22_" cx="-262.5723" cy="713.86" r="149.3678" gradientTransform="matrix(-0.9736 0.2282 0.2282 0.9736 655.504 -212.6506)" gradientUnits="userSpaceOnUse">
			<stop  offset="0" style="stop-color:#F9D8B7"/>
			<stop  offset="1" style="stop-color:#FFCC99"/>
		</radialGradient>
		<path fill="url(#SVGID_22_)" d="M1053.205,282.439c59.522-3.708,112.799,29.533,137.471,79.963
			c1.258-4.453,3.625-7.522,7.359-8.606c11.23-3.26,21.058,13.163,27.782,36.319c6.724,23.159,7.796,44.279-3.433,47.54
			c-6.273,1.823-12.108-2.502-17.21-10.708c-0.806,74.268-58.865,136.41-134.176,141.102
			c-78.869,4.914-146.789-55.039-151.702-133.908C914.383,355.272,974.337,287.353,1053.205,282.439z"/>
		<path fill="#CC9966" d="M1217.6,389.581c-4.309-10.737-8.605-20.253-11.28-19.413c-2.674,0.84-4.47,14.875,2.447,21.524
			c10.385,9.981,8.691,7.66,14.878,17.457C1226.538,413.732,1221.909,400.32,1217.6,389.581z"/>
		<path fill="#CC9966" d="M1085.227,558.865c79.542-18.645,128.907-98.241,110.262-177.78c-2.305-9.833-5.544-19.203-9.596-28.042
			c6.924,11.944,12.233,25.095,15.547,39.233c18.066,77.073-29.768,154.199-106.842,172.265
			c-35.678,8.363-71.363,2.596-101.199-13.648C1021.392,562.869,1053.312,566.346,1085.227,558.865z"/>
		<circle fill="#CC9966" cx="996.713" cy="440.571" r="13.577"/>
		<circle fill="#CC9966" cx="1086.754" cy="424.405" r="18.616"/>
		<circle cx="1090.429" cy="418.604" r="16.825"/>
		<circle fill="#FFFFFF" cx="1087.525" cy="412.195" r="6.903"/>
		<g>
			<path fill="#CC9966" d="M1041.058,463.003c0.6-0.141,0.998-0.302,1.051-0.324l-0.995-2.393c-0.105,0.044-2.711,1.072-4.017-0.636
				c-0.933-1.22-0.035-6.078,1.334-9.88l-2.438-0.879c-0.556,1.542-3.212,9.38-0.954,12.333
				C1036.837,463.573,1039.57,463.353,1041.058,463.003z"/>
		</g>
		<circle cx="993.863" cy="435.022" r="12.068"/>
		<circle fill="#FFFFFF" cx="993.193" cy="430.841" r="5.431"/>
		<path d="M1070.027,502.686c-25.863-3.054-40.878-3.168-58.647,9.487c-2.584-4.388-1.077-7.15-0.614-10.423
			c1.54-10.862,28.326-19.999,57.045-18.214c23.224,1.444,36.284,7.296,46.79,32.937c0.306,0.748-0.312,1.43-0.616,2.108
			C1106.218,511.062,1090.104,505.058,1070.027,502.686z"/>
		<path fill="#663300" d="M1052.786,394.407l11.484,15.291c0,0,11.611-8.042,16.251-11.129c4.64-3.086,19.698-5.18,19.698-5.18
			l-7.215-14.5c0,0-8.655,1.982-19.456,5.188C1062.746,387.284,1052.786,394.407,1052.786,394.407z"/>
		<path fill="#663300" d="M1011.481,422.227c0,0-12.41-6.449-18.521-6.136c-6.112,0.311-21.39,1.089-21.39,1.089l-2.994-12.41
			c0,0,14.107-5.45,22.473-6.243c8.366-0.792,24.063,3.146,24.063,3.146L1011.481,422.227z"/>
		<path fill="#996633" d="M997.097,299.078l-6.224-15.207l0.108-0.023c2.385-13.371,9.062-23.631,18.691-26.933l-0.025-0.108
			l39.264-9.204l5.101,21.76l-1.256,16.669L997.097,299.078z"/>
		<path fill="#330000" d="M1065.524,284.464c-17.142,4.019-22.472,24.363-16.144,51.361c0.213,0.905,0.442,1.8,0.682,2.686
			c-8.926-7.368-16.433-19.838-19.97-34.929c-6.328-26.998,2.439-52.141,19.582-56.159c16.567-3.883,37.511,13.438,44.434,38.973
			C1085.619,282.767,1073.086,282.692,1065.524,284.464z"/>
		<polygon fill="#663300" points="1016.881,346.603 1050.507,338.721 1028.414,275.696 990.856,283.834 		"/>
		
			<ellipse transform="matrix(0.9736 -0.2283 0.2283 0.9736 -46.5753 250.4959)" fill="#CC9966" cx="1059.376" cy="326.55" rx="2.454" ry="2.16"/>
		
			<ellipse transform="matrix(0.9736 -0.2283 0.2283 0.9736 -47.4659 254.6003)" fill="#CC9966" cx="1076.732" cy="332.463" rx="2.454" ry="2.159"/>
		
			<ellipse transform="matrix(0.9736 -0.2281 0.2281 0.9736 -42.7002 252.1582)" fill="#CC9966" cx="1069.665" cy="310.831" rx="2.454" ry="2.16"/>
		
			<ellipse transform="matrix(0.9736 -0.2283 0.2283 0.9736 -44.5064 256.2063)" fill="#CC9966" cx="1085.237" cy="320.489" rx="2.454" ry="2.159"/>
		
			<ellipse transform="matrix(0.9736 -0.2283 0.2283 0.9736 -45.3999 260.359)" fill="#CC9966" cx="1102.593" cy="326.402" rx="2.454" ry="2.159"/>
		
			<ellipse transform="matrix(0.9736 -0.2282 0.2282 0.9736 -42.3092 259.0687)" fill="#CC9966" cx="1099.34" cy="312.525" rx="2.454" ry="2.159"/>
		
			<ellipse transform="matrix(0.9736 -0.2281 0.2281 0.9736 -39.7356 250.3649)" fill="#CC9966" cx="1063.111" cy="297.063" rx="2.454" ry="2.159"/>
		
			<ellipse transform="matrix(0.9736 -0.2283 0.2283 0.9736 -38.8525 254.33)" fill="#CC9966" cx="1079.954" cy="295.111" rx="2.454" ry="2.159"/>
		
			<ellipse transform="matrix(0.9736 -0.2281 0.2281 0.9736 -38.6932 258.4481)" fill="#CC9966" cx="1098.946" cy="296.647" rx="2.454" ry="2.159"/>
		
			<ellipse transform="matrix(0.9736 -0.2283 0.2283 0.9736 -45.6361 266.299)" fill="#CC9966" cx="1128.148" cy="330.392" rx="2.454" ry="2.159"/>
		
			<ellipse transform="matrix(0.9737 -0.228 0.228 0.9737 -43.8827 263.7722)" fill="#CC9966" cx="1119.475" cy="321.779" rx="2.454" ry="2.159"/>
		
			<ellipse transform="matrix(0.9736 -0.2282 0.2282 0.9736 -40.389 262.6476)" fill="#CC9966" cx="1115.779" cy="306.01" rx="2.454" ry="2.159"/>
		
			<ellipse transform="matrix(0.9736 -0.2283 0.2283 0.9736 -46.5259 270.385)" fill="#CC9966" cx="1145.504" cy="336.305" rx="2.454" ry="2.159"/>
		
			<ellipse transform="matrix(0.9736 -0.2282 0.2282 0.9736 -41.7692 268.0812)" fill="#CC9966" cx="1138.437" cy="314.672" rx="2.454" ry="2.16"/>
		
			<ellipse transform="matrix(0.9736 -0.2282 0.2282 0.9736 -48.8493 271.2612)" fill="#CC9966" cx="1148.648" cy="346.88" rx="2.454" ry="2.159"/>
		
			<ellipse transform="matrix(0.9736 -0.2282 0.2282 0.9736 -49.7406 275.3775)" fill="#CC9966" cx="1166.004" cy="352.793" rx="2.454" ry="2.159"/>
		
			<ellipse transform="matrix(0.9736 -0.2282 0.2282 0.9736 -44.989 273.1578)" fill="#CC9966" cx="1158.937" cy="331.16" rx="2.454" ry="2.159"/>
		
			<ellipse transform="matrix(-0.9736 0.2283 -0.2283 -0.9736 2055.0188 438.2574)" fill="#CC9966" cx="1002.166" cy="337.965" rx="2.454" ry="2.159"/>
		
			<ellipse transform="matrix(-0.9736 0.2283 -0.2283 -0.9736 2040.2509 416.1814)" fill="#CC9966" cx="996.056" cy="326.088" rx="2.454" ry="2.159"/>
		
			<ellipse transform="matrix(-0.9736 0.2283 -0.2283 -0.9736 2024.7444 449.1198)" fill="#CC9966" cx="986.397" cy="341.661" rx="2.454" ry="2.159"/>
		
			<ellipse transform="matrix(-0.9736 0.2281 -0.2281 -0.9736 2002.1948 477.9087)" fill="#CC9966" cx="973.477" cy="354.671" rx="2.454" ry="2.159"/>
		
			<ellipse transform="matrix(-0.9736 0.2282 -0.2282 -0.9736 1992.6124 451.2321)" fill="#CC9966" cx="970.224" cy="340.794" rx="2.454" ry="2.159"/>
		
			<ellipse transform="matrix(-0.9736 0.2283 -0.2283 -0.9736 2036.2849 386.1161)" fill="#CC9966" cx="995.809" cy="310.842" rx="2.454" ry="2.16"/>
		
			<ellipse transform="matrix(-0.9736 0.2282 -0.2282 -0.9736 2010.4465 413.3553)" fill="#CC9966" cx="981.33" cy="322.886" rx="2.454" ry="2.159"/>
		
			<ellipse transform="matrix(-0.9736 0.2282 -0.2282 -0.9736 1983.1234 428.6544)" fill="#CC9966" cx="966.784" cy="328.958" rx="2.454" ry="2.159"/>
		
			<ellipse transform="matrix(-0.9736 0.2283 -0.2283 -0.9736 1963.9408 512.0347)" fill="#CC9966" cx="952.357" cy="369.602" rx="2.454" ry="2.159"/>
		
			<ellipse transform="matrix(-0.9736 0.2283 -0.2283 -0.9736 1969.078 488.3131)" fill="#CC9966" cx="956.299" cy="358.032" rx="2.454" ry="2.159"/>
		
			<ellipse transform="matrix(-0.9736 0.2282 -0.2282 -0.9736 1958.1705 458.1518)" fill="#CC9966" cx="952.603" cy="342.263" rx="2.454" ry="2.16"/>
		
			<ellipse transform="matrix(-0.9736 0.2283 -0.2283 -0.9736 1941.4115 540.6609)" fill="#CC9966" cx="939.437" cy="382.612" rx="2.454" ry="2.159"/>
		
			<ellipse transform="matrix(-0.9736 0.2283 -0.2283 -0.9736 1937.343 506.5875)" fill="#CC9966" cx="939.377" cy="365.325" rx="2.454" ry="2.16"/>
		
			<ellipse transform="matrix(-0.9736 0.2282 -0.2282 -0.9736 1925.0565 590.4356)" fill="#CC9966" cx="928.399" cy="406.492" rx="2.454" ry="2.159"/>
	</g>
	<g clip-path="url(#SVGID_14_)">
		<path fill="#808080" d="M714.524,521.12c-2.098-1.795-13.44,8.51-25.328,23.017c-11.892,14.508-19.831,27.715-17.734,29.508
			l28.318,29.824l26.719-76.091L714.524,521.12z"/>
		<path fill="#CBCBCB" d="M718.627,523.28c-2.076-1.741-13.712,8.73-25.985,23.385c-12.27,14.656-20.535,27.943-18.459,29.687
			l27.928,29.07l28.45-76.163L718.627,523.28z"/>
		<polygon fill="#E5E5E5" points="733.327,516.818 702.112,605.422 777.038,567.187 		"/>
		<path fill="#E5E5E5" d="M776.433,555.068l3.888-8.15c-1.743-5.799-4.898-12.186-9.323-18.364
			c-4.428-6.177-9.462-11.214-14.396-14.731l-8.705-1.617l-6.815-3.871c-1.462,0.198-2.783,0.693-3.925,1.511
			c-0.029,0.02-0.621,0.449-0.65,0.469l-0.583,0.415l0.003,0.004c-6.48,4.825-3.677,21.97,7.507,37.576
			c11.232,15.675,26.669,23.845,34.123,18.505c0.291-0.208,0.699-0.542,0.956-0.784l0.123,0.012l0.352-0.451
			c0.437-0.465,0.845-0.995,1.179-1.561L776.433,555.068z"/>
		
			<ellipse transform="matrix(0.8128 -0.5825 0.5825 0.8128 -170.2028 542.9408)" fill="#808080" cx="759.75" cy="536.317" rx="17.261" ry="34.508"/>
		<path fill="#B2B2B2" d="M773.719,526.307c10.287,14.354,13.279,29.824,6.685,34.551c-6.595,4.726-20.286-3.08-30.572-17.433
			c-10.29-14.358-13.281-29.826-6.687-34.552C749.743,504.146,763.429,511.948,773.719,526.307z"/>
		<path fill="#333333" d="M774.048,542.76c3.667,5.114,4.732,10.626,2.384,12.308c-2.352,1.683-7.226-1.098-10.891-6.213
			c-3.663-5.113-4.731-10.622-2.382-12.306C765.507,534.866,770.386,537.646,774.048,542.76z"/>
		<path fill="#1A1A1A" d="M764.27,546.895c0.382,0.656,0.807,1.31,1.271,1.96c3.665,5.115,8.539,7.896,10.891,6.213
			c1.372-0.983,1.569-3.28,0.767-6.039L764.27,546.895z"/>
		<path fill="#EC1C24" d="M738.453,533.372l-26.636,67.094l13.36-6.814l19.406-48.921
			C742.032,540.948,739.977,537.101,738.453,533.372z"/>
		<path fill="#1B1464" d="M741.52,563.608l-0.328-0.461c-5.087-7.097-14.278-9.481-22.005-6.239l-9.741,26.709
			c0.308,0.532,0.194,1.374,0.56,1.882l0.33,0.462c3.655,5.1,9.894,7.434,15.726,7.331l14.867-7.631
			C745.75,579.412,746.357,570.354,741.52,563.608z"/>
	</g>
</g>
</svg>
