<?xml version="1.0" encoding="utf-8"?>
<!-- Generator: Adobe Illustrator 17.0.0, SVG Export Plug-In . SVG Version: 6.00 Build 0)  -->
<!DOCTYPE svg PUBLIC "-//W3C//DTD SVG 1.1//EN" "http://www.w3.org/Graphics/SVG/1.1/DTD/svg11.dtd">
<svg version="1.1" id="EXPLOSIONS" xmlns="http://www.w3.org/2000/svg" xmlns:xlink="http://www.w3.org/1999/xlink" x="0px" y="0px"
	 width="1300px" height="700px" viewBox="0 0 1300 700" enable-background="new 0 0 1300 700" xml:space="preserve">
<defs>
	<rect id="SVGID_1_" width="1300" height="700"/>
</defs>
<clipPath id="SVGID_2_">
	<use xlink:href="#SVGID_1_"  overflow="visible"/>
</clipPath>
<g clip-path="url(#SVGID_2_)">
	
		<radialGradient id="SVGID_3_" cx="1282.7617" cy="-29.4393" r="518.8748" gradientTransform="matrix(1.0239 -0.3567 0.3759 0.9716 -1198.1176 1037.5044)" gradientUnits="userSpaceOnUse">
		<stop  offset="0" style="stop-color:#F5EA14"/>
		<stop  offset="1" style="stop-color:#F05A26"/>
	</radialGradient>
	<polygon fill="url(#SVGID_3_)" points="318.913,327.74 206.197,473.819 316.379,437.082 226.709,506.15 415.476,493.688 
		236.79,542.654 344.582,560.137 235.623,580.372 399.56,632.688 223.304,616.249 296.279,679.542 200.835,647.386 311.703,810.923 
		170.029,671.245 206.543,801.988 133.383,685.913 125.104,766.097 93.874,690.179 39.536,860.173 54.692,683.716 4.544,740.783 
		19.023,667.041 -29.846,693.717 -10.253,641.5 -141.424,694.409 -30.76,609.172 -99.255,616.769 -40.842,572.667 -220.03,564.956 
		-39.673,534.954 -143.866,501.961 -27.354,499.077 -132.559,407.822 -4.882,467.941 -78.737,352.26 25.924,444.074 
		-47.609,229.394 62.562,429.413 45.153,215.264 102.076,425.143 141.736,265.461 141.254,431.604 202.545,346.174 176.923,448.283 
			"/>
	
		<radialGradient id="SVGID_4_" cx="1272.8274" cy="-26.7067" r="163.311" gradientTransform="matrix(1.0239 -0.3567 0.3759 0.9716 -1198.1176 1037.5044)" gradientUnits="userSpaceOnUse">
		<stop  offset="0" style="stop-color:#F1F1F1"/>
		<stop  offset="1" style="stop-color:#F5EA14"/>
	</radialGradient>
	<polygon fill="url(#SVGID_4_)" points="76.196,456.875 107.034,525.793 157.762,481.348 135.341,548.047 209.991,558.406 
		138.775,582.771 166.846,627.489 115.324,609.635 106.26,643.596 78.728,612.893 24.678,668.097 50.419,590.646 -2.752,577.861 
		46.984,555.913 -0.396,506.791 70.44,529.05 	"/>
</g>
<g clip-path="url(#SVGID_2_)">
	
		<radialGradient id="SVGID_5_" cx="1586.1355" cy="273.5433" r="518.8748" gradientTransform="matrix(-0.5424 -0.9388 0.8839 -0.5514 1837.4075 2200.7361)" gradientUnits="userSpaceOnUse">
		<stop  offset="0" style="stop-color:#F5EA14"/>
		<stop  offset="1" style="stop-color:#F05A26"/>
	</radialGradient>
	<polygon fill="url(#SVGID_5_)" points="958.989,391.83 1123.614,475.152 1066.866,373.814 1151.525,448.94 1103.884,265.86 
		1185.491,432.193 1182.449,323.035 1222.758,426.266 1243.402,255.426 1260.309,431.638 1308.794,348.088 1295.108,447.869 
		1434.951,308.299 1324.32,473.654 1445.896,413.268 1345.6,506.898 1425.914,499.994 1357.2,544.907 1534.368,566.401 
		1358.2,584.605 1423.659,623.162 1348.51,622.769 1383.878,665.768 1328.913,656.316 1405.482,775.237 1301.004,682.521 
		1321.311,748.376 1267.037,699.271 1293.067,876.726 1229.775,705.195 1216.906,813.726 1192.223,699.823 1122.317,820.274 
		1157.426,683.588 1057.648,777.828 1128.205,657.805 931.124,770.293 1106.933,624.566 899.848,681.827 1095.329,586.554 
		931.042,577.543 1094.328,546.86 998.918,502.677 1104.021,508.695 	"/>
	
		<radialGradient id="SVGID_6_" cx="1576.201" cy="276.2759" r="163.311" gradientTransform="matrix(-0.5424 -0.9388 0.8839 -0.5514 1837.4075 2200.7361)" gradientUnits="userSpaceOnUse">
		<stop  offset="0" style="stop-color:#F1F1F1"/>
		<stop  offset="1" style="stop-color:#F5EA14"/>
	</radialGradient>
	<polygon fill="url(#SVGID_6_)" points="1131.351,606.024 1193.262,562.809 1140.093,521.316 1209.813,530.831 1205.99,455.562 
		1243.277,520.946 1281.937,484.987 1274.063,538.942 1309.121,541.477 1284.126,574.278 1348.487,617.016 1267.582,606.257 
		1264.995,660.883 1234.11,616.145 1194.745,671.896 1203.325,598.143 	"/>
</g>
</svg>
