<?xml version="1.0" encoding="utf-8"?>
<!-- Generator: Adobe Illustrator 17.1.0, SVG Export Plug-In . SVG Version: 6.00 Build 0)  -->
<!DOCTYPE svg PUBLIC "-//W3C//DTD SVG 1.1//EN" "http://www.w3.org/Graphics/SVG/1.1/DTD/svg11.dtd">
<svg version="1.1" id="Layer_1" xmlns="http://www.w3.org/2000/svg" xmlns:xlink="http://www.w3.org/1999/xlink" x="0px" y="0px"
	 viewBox="8.9 265.8 781 68" enable-background="new 8.9 265.8 781 68" xml:space="preserve">
<g>
	<path d="M26.7,309.2c-6.4,0-12.8-2.2-17.8-6.7l5.5-6.5c3.8,3.1,7.7,5.1,12.5,5.1c3.8,0,6.1-1.5,6.1-4v-0.1c0-2.3-1.4-3.5-8.5-5.3
		c-8.5-2.2-13.9-4.5-13.9-12.8v-0.1c0-7.6,6.1-12.7,14.7-12.7c6.1,0,11.3,1.9,15.6,5.3l-4.8,7c-3.7-2.6-7.4-4.1-10.9-4.1
		c-3.5,0-5.4,1.6-5.4,3.7v0.1c0,2.8,1.8,3.7,9.1,5.5c8.5,2.2,13.3,5.3,13.3,12.6v0.1C42.1,304.5,35.8,309.2,26.7,309.2z"/>
	<path d="M79.2,308.6l-13-17.9l-4.9,5v12.8h-9.2v-42h9.2v18.4l17-18.4h11.2l-17.1,17.8l17.9,24.2L79.2,308.6L79.2,308.6z"/>
	<path d="M97.8,308.6v-42h31.7v8.2H107v8.5h19.8v8.2H107v8.8h22.8v8.2H97.8z"/>
	<path d="M158.9,275.1v33.5h-9.2v-33.5h-12.8v-8.5h34.8v8.5H158.9z"/>
	<path d="M198.6,309.3c-12.4,0-21.5-9.5-21.5-21.6v-0.1c0-11.9,9-21.7,21.9-21.7c7.9,0,12.7,2.6,16.6,6.5l-5.9,6.8
		c-3.2-2.9-6.5-4.7-10.7-4.7c-7.1,0-12.2,5.9-12.2,13.1v0.1c0,7.2,5,13.2,12.2,13.2c4.8,0,7.7-1.9,11-4.9l5.9,5.9
		C211.5,306.4,206.7,309.3,198.6,309.3z"/>
	<path d="M251.4,308.6v-16.9h-17v16.9h-9.2v-42h9.2v16.6h17v-16.6h9.2v42H251.4z"/>
	<path d="M292.6,308.6h-20v-42h19.5c8.6,0,13.9,4.3,13.9,10.9v0.1c0,4.7-2.5,7.4-5.5,9.1c4.9,1.9,7.9,4.7,7.9,10.3v0.1
		C308.3,304.7,302.1,308.6,292.6,308.6z M296.8,279c0-2.8-2.2-4.3-6.1-4.3h-9.1v8.9h8.5c4.1,0,6.7-1.3,6.7-4.4L296.8,279L296.8,279z
		 M299.2,295.8c0-2.8-2.1-4.6-6.8-4.6h-10.7v9.2h11c4.1,0,6.5-1.4,6.5-4.6V295.8z"/>
	<path d="M338.3,309.3c-13,0-22.3-9.7-22.3-21.6v-0.1c0-11.9,9.4-21.7,22.4-21.7c13,0,22.3,9.7,22.3,21.6v0.1
		C360.7,299.5,351.2,309.3,338.3,309.3z M351,287.6c0-7.2-5.3-13.2-12.7-13.2c-7.4,0-12.6,5.9-12.6,13.1v0.1
		c0,7.2,5.3,13.2,12.7,13.2s12.6-5.9,12.6-13.1V287.6z"/>
	<path d="M391.2,309.3c-13,0-22.3-9.7-22.3-21.6v-0.1c0-11.9,9.4-21.7,22.4-21.7c13,0,22.3,9.7,22.3,21.6v0.1
		C413.6,299.5,404.2,309.3,391.2,309.3z M403.9,287.6c0-7.2-5.3-13.2-12.7-13.2c-7.4,0-12.6,5.9-12.6,13.1v0.1
		c0,7.2,5.3,13.2,12.7,13.2s12.6-5.9,12.6-13.1V287.6z"/>
	<path d="M450.8,308.6l-13-17.9l-4.9,5v12.8h-9.2v-42h9.2v18.4l17-18.4h11.2l-17.1,17.8l17.9,24.2H450.8z"/>
</g>
<path d="M491.5,285.3c9.4,2,13.7,5.5,13.7,11.9c0,7.3-6,11.9-14.3,11.9c-6.7,0-12.1-2.2-17.2-6.7l2.9-3.5c4.4,4,8.6,5.9,14.4,5.9
	c5.6,0,9.4-2.9,9.4-7.2c0-4-2.1-6.2-10.9-8c-9.7-2.1-14.1-5.2-14.1-12.2c0-6.7,5.8-11.5,13.8-11.5c6.1,0,10.5,1.7,14.8,5.2l-2.8,3.7
	c-3.9-3.2-7.8-4.6-12.1-4.6c-5.5,0-8.9,3-8.9,6.8C480.1,281.1,482.3,283.3,491.5,285.3z"/>
<path d="M547.1,270.9h-25.6v14.3h22.9v4.3h-22.9v14.7h25.9v4.3h-30.7v-42h30.4V270.9L547.1,270.9z"/>
<path d="M573.9,285.3c9.4,2,13.7,5.5,13.7,11.9c0,7.3-6,11.9-14.3,11.9c-6.7,0-12.1-2.2-17.2-6.7l2.9-3.5c4.4,4,8.6,5.9,14.4,5.9
	c5.6,0,9.4-2.9,9.4-7.2c0-4-2.1-6.2-10.9-8c-9.7-2.1-14.1-5.2-14.1-12.2c0-6.7,5.8-11.5,13.8-11.5c6.1,0,10.5,1.7,14.8,5.2l-2.8,3.7
	c-3.9-3.2-7.8-4.6-12.1-4.6c-5.5,0-8.9,3-8.9,6.8C562.5,281.1,564.7,283.3,573.9,285.3z"/>
<path d="M613.7,285.3c9.4,2,13.7,5.5,13.7,11.9c0,7.3-6,11.9-14.3,11.9c-6.7,0-12.1-2.2-17.2-6.7l2.9-3.5c4.4,4,8.6,5.9,14.4,5.9
	c5.6,0,9.4-2.9,9.4-7.2c0-4-2.1-6.2-10.9-8c-9.7-2.1-14.1-5.2-14.1-12.2c0-6.7,5.8-11.5,13.8-11.5c6.1,0,10.5,1.7,14.8,5.2l-2.8,3.7
	c-3.9-3.2-7.8-4.6-12.1-4.6c-5.5,0-8.9,3-8.9,6.8C602.3,281.1,604.4,283.3,613.7,285.3z"/>
<path d="M644.1,266.6v42h-4.7v-42H644.1z"/>
<path d="M677.8,309.3c-12.8,0-21.4-10-21.4-21.7c0-11.6,8.7-21.8,21.5-21.8c12.8,0,21.4,10,21.4,21.7
	C699.3,299.2,690.6,309.3,677.8,309.3z M677.8,270.2c-9.6,0-16.4,7.7-16.4,17.3s7,17.4,16.6,17.4c9.6,0,16.4-7.7,16.4-17.3
	C694.4,278,687.4,270.2,677.8,270.2z"/>
<path d="M742.1,266.6h4.6v42H743l-27.1-34.4v34.4h-4.6v-42h4.4l26.5,33.7L742.1,266.6L742.1,266.6z"/>
<path d="M775.6,285.3c9.4,2,13.7,5.5,13.7,11.9c0,7.3-6,11.9-14.3,11.9c-6.7,0-12.1-2.2-17.2-6.7l2.9-3.5c4.4,4,8.6,5.9,14.4,5.9
	c5.6,0,9.4-2.9,9.4-7.2c0-4-2.1-6.2-10.9-8c-9.7-2.1-14.1-5.2-14.1-12.2c0-6.7,5.8-11.5,13.8-11.5c6.1,0,10.5,1.7,14.8,5.2l-2.8,3.7
	c-3.9-3.2-7.8-4.6-12.1-4.6c-5.5,0-8.9,3-8.9,6.8C764.2,281.1,766.4,283.3,775.6,285.3z"/>
<rect x="8.8" y="330" fill="#231F20" width="781.2" height="3.8"/>
</svg>
