<?xml version="1.0" encoding="utf-8"?>
<!-- Generator: Adobe Illustrator 17.0.0, SVG Export Plug-In . SVG Version: 6.00 Build 0)  -->
<!DOCTYPE svg PUBLIC "-//W3C//DTD SVG 1.1//EN" "http://www.w3.org/Graphics/SVG/1.1/DTD/svg11.dtd">
<svg version="1.1" id="Layer_1" xmlns="http://www.w3.org/2000/svg" xmlns:xlink="http://www.w3.org/1999/xlink" x="0px" y="0px"
	 width="320px" height="89.247px" viewBox="0 0 320 89.247" enable-background="new 0 0 320 89.247" xml:space="preserve">
<path fill="#0F2733" d="M39.141,58.941c-12.156,0-22.004-9.896-22.004-22.106c0-0.916,0.156-1.892,0.388-2.89
	C7.519,36.031,0,44.932,0,55.586c0,12.207,22.007,33.661,22.007,33.661S40.805,70.89,43.617,58.48
	C42.18,58.785,40.677,58.941,39.141,58.941z"/>
<path fill="#0F2733" d="M26.27,32.539c0-9.591,17.285-26.454,17.285-26.454S60.85,22.948,60.85,32.539s-7.753,17.373-17.296,17.373
	C34.009,49.912,26.27,42.13,26.27,32.539z"/>
<path fill="#0F2733" d="M81.714,49.272c0-3.952-0.581-12.318-0.581-15.106h6.976c0.111,3.95,0.23,8.364,0.462,9.409h0.35
	c2.789-5.927,9.649-10.806,18.363-10.806c16.732,0,20.447,11.39,20.447,23.128v31.956h-6.972V56.244
	c0-8.714-2.439-17.199-13.475-17.199c-10.344,0-18.593,7.206-18.593,21.965v26.844h-6.977
	C81.714,87.854,81.714,49.272,81.714,49.272z"/>
<path fill="#0F2733" d="M183.16,79.951c-5.226,6.273-12.081,9.296-19.75,9.296c-16.504,0-28.24-11.855-28.24-28.237
	c0-16.389,11.736-28.24,28.24-28.24c7.785,0,14.754,3.371,19.985,9.299l-5.577,4.183c-4.067-4.414-8.836-7.206-14.409-7.206
	c-13.133,0-21.267,9.877-21.267,21.965c0,12.084,8.134,21.961,21.267,21.961c5.811,0,10.805-3.02,14.409-7.435L183.16,79.951z"/>
<path fill="#0F2733" d="M192.566,0h6.977v87.854h-6.977V0z"/>
<path fill="#0F2733" d="M255.039,72.743c0,3.952,0.585,12.324,0.585,15.11h-6.976c-0.114-3.955-0.231-8.365-0.465-9.412h-0.35
	c-2.788,5.926-9.643,10.806-18.36,10.806c-16.737,0-20.45-11.388-20.45-23.123V34.166h6.97V65.77c0,8.72,2.445,17.2,13.48,17.2
	c10.342,0,18.593-7.203,18.593-21.961V34.166h6.973L255.039,72.743L255.039,72.743z"/>
<path fill="#0F2733" d="M313.03,78.441h-0.233c-4.302,7.437-13.482,10.806-21.501,10.806c-16.502,0-28.238-11.855-28.238-28.237
	c0-16.389,11.735-28.24,28.238-28.24c8.019,0,17.199,3.371,21.501,10.806h0.233V0H320v87.854h-6.97V78.441z M291.296,39.045
	c-13.13,0-21.266,9.877-21.266,21.965c0,12.084,8.136,21.961,21.266,21.961c12.668,0,22.428-9.877,22.428-21.961
	C313.725,48.922,303.964,39.045,291.296,39.045z"/>
</svg>
