<?xml version="1.0" encoding="utf-8"?>
<!-- Generator: Adobe Illustrator 17.0.0, SVG Export Plug-In . SVG Version: 6.00 Build 0)  -->
<!DOCTYPE svg PUBLIC "-//W3C//DTD SVG 1.1//EN" "http://www.w3.org/Graphics/SVG/1.1/DTD/svg11.dtd">
<svg version="1.1" id="Layer_1" xmlns="http://www.w3.org/2000/svg" xmlns:xlink="http://www.w3.org/1999/xlink" x="0px" y="0px"
	 width="60.85px" height="83.162px" viewBox="0 6.085 60.85 83.162" enable-background="new 0 6.085 60.85 83.162"
	 xml:space="preserve">
<path fill="#0F2733" d="M39.141,58.941c-12.156,0-22.004-9.896-22.004-22.106c0-0.916,0.156-1.892,0.388-2.89
	C7.519,36.031,0,44.932,0,55.586c0,12.207,22.007,33.661,22.007,33.661S40.805,70.89,43.617,58.48
	C42.18,58.785,40.677,58.941,39.141,58.941z"/>
<path fill="#0F2733" d="M26.27,32.539c0-9.591,17.285-26.454,17.285-26.454S60.85,22.948,60.85,32.539s-7.753,17.373-17.296,17.373
	C34.009,49.912,26.27,42.13,26.27,32.539z"/>
</svg>
